<mxfile host="app.diagrams.net" modified="2022-05-05T18:02:15.475Z" agent="5.0 (Windows)" etag="12JwfBfmt0efQi6U9d7e" version="18.0.0" type="gitlab">
  <diagram id="eYyPZ071ysDcyDoXigBl" name="Page-1">
    <mxGraphModel dx="1159" dy="811" grid="1" gridSize="10" guides="1" tooltips="1" connect="1" arrows="1" fold="1" page="1" pageScale="1" pageWidth="1654" pageHeight="1169" math="0" shadow="0">
      <root>
        <mxCell id="0" />
        <mxCell id="1" parent="0" />
        <mxCell id="u7fwsHMoTbSUg-10r8cJ-1" value="" style="shape=image;verticalLabelPosition=bottom;labelBackgroundColor=default;verticalAlign=top;aspect=fixed;imageAspect=0;image=data:image/png,iVBORw0KGgoAAAANSUhEUgAAAfIAAAFZCAYAAABjSq39AAAAAXNSR0IArs4c6QAAAARnQU1BAACxjwv8YQUAAAAJcEhZcwAADsMAAA7DAcdvqGQAAP+lSURBVHhe7P0HtGXHed+J7nNT5xyBRo4d0GigAQIgSJCyJVEkRyQYQNIk/eSRPMvSyFZ48ps3s8ZrZGr8Zr3nJS+PZCaAyDS1SC1LVPBb9lC0JYqUmZBzDg10zrlv33Smfl+d/znfqbv3Cffe030bvf/d362qr74Ku9JXVbt2naxEiRIlSpQoUaJEiRIlSpQoUaJEiRIlSpQoUaJEiRIlSpQoUaJEiRIlSpQoUaJEiRIlSpQoUaJEiRIlSpQoUaJEiRIlSpQoUaJEiRIlSpQoUaJEiRIlSpQoUaJEiRIlSpQoUaJEiRIlSpQoUaJEiRIlSpQoUaJEiRIlSpQoUaJEiRIlSpQoUaJEiRKzFpWaWaJEiRIlavizP/uzkd27d2fbt2/HWQ3IKpVKtb+/P1u+fHn1t3/7t+eZYIkSswClIi9RosR5h7/8y7+c+OhHP9r3zW9+czwo6OzYsWPZgQMHshMnTmTDw8PVXbt2Vd9+++3qyMhwNjExgRLPBgYGquPj48Ecql577bXZ1q1bq7/+679eKvQSZx2lIi9RosR5gYceeHji6aefzl577bWgtPdlo6Oj2YsvvpgdP368OlGdyAb6B8KIOJGNjQX7QF+2aNGi6gUXrEF520p8cHAQJR/CHqoePXo0Q6m///3vn/jABz6Q/c//y/9aKvQSZw2lIi9RosQ5jT/90z+tvvXWW7aqRtEeOnQoO3jwYHby5MlsYmzclG6W9WWnT59CaWdSyv0DYfir9mUrVi7LlixZYlvnY2Nj2dy5Q9myZSuCIl8QFHo//Am21tlf7w/KfmRkJNu5M267Hz58uEoe1qy+YGLTpk3ZHXfckX3kzo+WSr3EGUWpyEuUKHFO4Jvf/CO2vE1Ro3DnzZtnyhqFyvtslPipU6cyFDer7aGhoWwoKGwU8KKFS7K+/syU+LJlyyxstTqerVixKlu9eqUpcuJEYc+fP6+6YMFCU+K458yZY3GcPn2a8LY6P3LkaJU0n3rqqYw8HTx4uLp69erq+vXrs1tuuaX6q79WbrmXOHMoFXmJEiVmDf7kT/6k+uqrr9q76mPHjmQvvfSSrYBRzmyJHzp0OCjowcAbDco1DGBhBOvv78sWL16crVy5Mlu4cKHRRRddlF1yySXZ4EBftmDBAvPjHTeKee7cOSGlSjY+Pmbvvvv6+iztajZuK/RKX4g4mLDiO/EB88c+MTFRjfKVKu/O586dW923b1/25JNPZz/60Y+yZ599vhqirN5xx3uzOz/68ex3/l//fK4FLlGihygVeYkSJc4IvvzlL1b3799vK1+AEt27d6+tpnfs2GEKF+WIzKJFi0whHz58ODs1fMKUKSvhpUuXmlJGmbJSxg0fOytwKWbiQrmPh5U5YYkLP+IPK/NqdSLIhRU6PBQ0QD8H70Ao+Lj9Dmr+thKvxVGdiEFANe4CHGM7v8qBuZdffplnqPKufe0FF1RvvPGm7F//639dKvQSPUOpyEuUKDFj+Mu//MvqkSNHTGGyit6/f69tT+/Zs8e2wOGhyFGIbG+zTY7iZYscwEchr1q1Kps7b8gUNNvkyLIlvnz5clPSKNmwGrYtcYF0iIs4oKCtszlD8Z02MCUe/KHaSjusuEfrYQiP6d3VqsxIgW8r8qDI66t1ZCuVPtKpktaLL75YfeONN7K33nqruv/AIZtsbNy4Mbv55luqv/mbv1kq9BIzjlKRlyhRYsr4whe+UN22bVv29ttvm8LFRImZsmN5G5RfsGKEVfE8W02jlOfPn2/2iy++2JQ2Cpt30CjotWvXNr2z7uurraRrChYFyuoYXlSikQAmcpAp3r5qiCcqctx2yC2EJW5MeCDEZRaFJQ1ktBOAHDweCf/a6rzKp2qWl7BCx1TYAJvQ/PDHP64+/fTT1eeeey4bH6tmt99+e/a5z30u+7Vf+3X290uUmBGUirxEiRKT8OCDD9rBMraNT548nu3duz+sqnFz4AvFmtkpcNwcGmMbef78uUGJcThsMCjoS40/NBi3w6UQWU3XlKApcwjlh7+UK4oeHrpZihnlyAochUqeUMjY8ZMyxi6YYq9MWDg+JSNeVsvwsTPpUByaEMAPsdgqPW6tx8kC+QLkMfibG36UNwU+MXxqpGkyQl44IX/46FHbct+9e3f1lVdeqR7YH3cg1q1bl910003V3/u9f1Wu0EtMG6UiL1HiPMWf/9mfVvlMi/fUHC5DMaGgUEAo8Z07d5qiO3hwf1Dmw6bYBgaGAm882OcEpczJ70q2ePHCYF9kCnP+/IVhpb08KO/l2dDQgCnlefPmmhJGWUpposwwpYRlCvjVzaCQ5U7RJFdDkWweJslyyC2kF8ywnA9mBhWD53cIj9H8IKzCeXbK+fXXX6++/vobKPTsyJFjVV4T8Mnau971rur/+Ov/rFToJaaMzlt8iRIlzkl87Z6vVjmAFU99H7IVIytHFPWbb74ZlCvvf6Msypp30WxtY2f1ySqa7e4LL7zQ+ChnlBBb4/gTHwoRe4xj0FavvKMmHewobpQ4QFar2ZaK3BRphBTuJMVbQ8qXO403RT1cPKU+GRW23Fsp8xjOpWOW4DYTRU4a8u/r67cb5B555JHqY489UX3mmeeY8FS33nhz9su//MvVf/Jrv1oq9BJdI79XlChRYtbj23/6H+zTJxQyipIDZdhRkqyqOViG0j106IB9Y40ywY8T3ChnwHYzipstbvzgo6zZJkYBsTXN517wJaNtZVaamF6JaqUNYtiwgs/ss63c1Th2QcrOxxdRvCIHeX7i1VfMRYp6EnxcIT/Nq/KYwSY0x6tnCDAL5TM6OlolP1YG43GiE79Bf7rKzXKU0/HjJ03msssuq954443V3/vf/z+lQi/RMYp7R4kSJWYF/uQ//LF94sT2N1u0KF/cKG4Ol6G0UYjcbIYdhWsKtDpucnw3vWrV6rCKXhbk+oNy4fOshcYfGBgMintxkJ8TFMxAsC8NfvOD0uFw11g8NT52Oq4s+6rZQP+QfbaFQtJ315hhjZ0NDPZl/X1hdR7k+LwLJYhiE6GoRLhRbCg14BSgARnAMwC5O4GXbdr67kiZ+3QmKXKhnlnepad5d7CT7exUUB8o9dPDUalTh7zSePvt7exYmELn+ljiW7fugurGjdeh0LOLLr60+rGPfaxU6iVaovPeUaJEiZ7j61//evXJJ5+0b5FZUQ+fOhHsL2ZHjvAOm1VulGMhG/RgtnZtvAQFhbh69Wq7CIUVNt9ho2A48b1y1fJs6ZLlUSkFZTZn7mDWVxmw77MHB+ZkQ3MGsrHRiWxkdLiuiJEbHIrb35UKiopDZSSOMkRBo4w5PT4Y8hG/u46La7bQ2WJn1R0VuHFrq3AInvjtFDTptJNpDa+EWyjyIiXvtvfzEPJW1+J5Cp2DgUGZB4Xe7Ed5QHzGhqJ/5plnOO1fHR0dy1566cXs2WdfsvJ8z3vfW/37f//nql/4whfKU+4lClEq8hIleoi/+Iu/sANlbKWyWtbWNKtpLkFBWQOUFas3tsB5rwx4Rx3WdOaHctbpb7a5UdQoAtzwWY2zEkcOhYI9BLbVNPIoehQGfloFyy0lKxM+IG6UspQOQF4KS3bCKLygMJL1UBj8KYtWmFlFLhQo7Txl3kaRO0x+0IDh4ZP2eiOkWf/unGfm1Ly9lsjiZTa0j9AW+JStym12KHa+TT9+4lSojwnOKFQ3b96cvec976neddddpVIv0YRSkZcoMQP4j//xP1a5hYyLTTjMhPJm4EZR4+a2MhS0FDnb5Ch2vWdGuUIM9AzsKF9+vKMvLPjWrl2TrVmzxvxQgtxYBgG2aFmRoxhQjCg9eGzlgrHxxidXEEAWnj7nQh4Tf/hSnOSztqI0f+KXDG7Iy+MGcgtS1mk44mqnyFuuojsC8adpFMU53bTqqCt1TvLzjNQ9zx3K3C6UoczjhKmRJpMveFxRu3379upA/1D1hRdfyZ577gWr+wsuuCBbv3599bbbbst+9Vd/NVZwiRIBpSIvUaJLcHsZF3y8+OLzdvkJ4NYy3ldHpYdSQ3FFc+HC+XbpCcpZq2BOfHMK/NJLL7Xw+LE1jlIGpkQHwqo12FHG2upmBTc+MWrvoHlXzRb5RHWs/u6ad9n6VS9W4yiAoDdsVcdWOJ+Podjk5jMyLkyBzy4xfORx8z21gOJFAQGeEeDmWWSS51TOK2v4+OOWMm+PGBdAnnAeiiPlR0iB500WGvE2o4g/NYQyta1znp2yoExq7mrcGYnfyKtcUPCa1I2cHsuCIo+XyYxXq6+++nJYqXPKfchW5h/72Mey3/qt3yoVeolSkZco4fHAA/dV2fZmxWyfaO3YUb8+lNU1Ay0DL6tvtr41OGOijJcuXWIrKxQLK1+2veGjoLWiZtBmMGblzRY5bsKnZEqqfthq8jtqzL4+LilBgbLajnJ6px35UU7u1PThJrtLTB9N5ZjONsydTkLq7jAZO3LkqLVFFPnzzz8bJo8v1xV+aHfVSy65pHrLLbdkW66/sfqROz9abrmfpygVeYnzDn/2Z39qn22hmHm3zMCI0tblKPBw87764IEDplRRxgyeKF8uQEF5szW9aNFCU8ooanuPvWyx8QEy8FhdIcOqTKtRrdBYnQko3ah4oz2ajUFePI+UN9md6o7WmJxGqdCnh8Lyq1dMaA9NldTkDMp8fDxeT8uOT2iftsJ/+eVXs+eff94mi2y537Blq3229j/+018vV+jnISaPDCVKvEPA6vrZZ5+1S09YZbMiRpFqG5xtZN4BM3CiwCAUrj9YdsXll5ub36xmMOUba7bJsfO5FgofO59eYQLik8KWYlT8cgP8Ueatweq4oWBTswjt/AWvNDoNU6IbtJ8I1eqAP/XKUL3wCgU7E0g+JaRd0S5ffPGlKr+FPjQ0N2Pr/YUXXrD6e+973lf91Kc+lf3T3/hn8URjifMCZc8tcc7hL/7iz6pvvfWWKWcUIdeJssJmBcxgp8Nc/GgFbpQsKxveHfN5FdvV8+YuyFasXGYDJb+ytXjR0mze/Dnmb7+6NTTP4qiGgZMVOIfLiJfVNVvno6PxgBhuU4AhTtwMtLjJFySFDomfKnzB4nFmRDv/ErMb7RU5oC041CudMxHsBDHBBMjRfthyZ0cprM6rr776un2DDp/XQKzYr7ziavsO/Xe/8C9LhX4eoBwRSsxafOtb36py6vfY8SP2eQ5b3RC3l6HEGchQapgobVYtfOrDQMaAx8qFFfSKFcuD31xTvlyIwoUny5evqPO5C3zxYm4zGwqKFaWLMo6HkOYMxos8ULjDw6csX7jx00qcPGDH5D22lDN54Dtrr7AlJxCXH8S9PaKhyEGpxM81dKbIhaT+Q/u3n2E1k7qnbTOhZGJKe6cd7thhV+3aRTONT9f67ZflNtQulvmN3/iNUqG/g1GOCiVmBR566CHbKmSLEGWNYn7llZey4ydOBoUcL0JhjJMeW758iZ3yZmDj0yzeE+oucFYwKMg1a1abG+XJgIcyZQUt5SnliikFCR9/Bk4bVE2xc5q78W01svBQ4myt4yYNwgWj7g/Fw2gRFl8NSk+yxWhW5CXONXSnyFOEtmGNQ22kNhEMc834moa2jsm5jOPHuTzo5errr79ufYhLhZ559oXQLgcyDsTddddd1d/5nd8pFfo7EKUiL9Ez/Pt//++rb731pg02DEQoTF2OwqlvlCBg2xA7K2tkWFWjFAm3ZvVKO1DGYAVf30+zGtHpcNnxJy5WLChe+BDb3lLgUuhSoJi4pbwBPEAcDJyaCMBXHBBgAOXSFOLQYOvBykjxKU3ZIcXjZbwZT6qXOF9BO6DNhTZtF8pgh8dXC2rj3EcQ2n2VTxGZAEOhnVVfeOHF7IUXX7Z+RBum73zoQx9i0lv9/Of/H6VCfwchjhYlSkwRbH/zHppBBkXM5SeAwcVW1MHEXwMQg0xt4Kmf7paJMuZXtQCKd+0FYUW9aJENQITl5DgrbClS4pRi1QoaO2GByQzEAQ85BjMpbUirGcLhxo4swC0QN3zJecTrSOOAK2pGXJGJTxzeJE+CeM1ovbWeH6ZzEN904yjRO0hZ025rqH2XHn9Rjkkr/UZ9jAkx5zvghwlz9a3t2zkHYne58+t3P/MzP2P9gvD33XdfY7uoxDmNUpGX6Bj////4FzYgPPHEE/aOmsGCbTyU96lTjWtFGSgYd3i/fdlllxkPMPBwApx3d2yHo8D12ZaUNQMWctjjgBOaaO2azFQJglSxglTZtXKnfimK/Tvd8p7e1mq7/LVHp/nsDGl+ZmIiAcrJRNewAvPl1rDXrsatspsUz3fw3jz0XbtV7vnnn6/u23eArXb7AmP16tXVX/+n5Tv0cxnTHSVKvEPw0AMP2kUozOiZ3XOl6KHDB2wQYBscpc3gwGpaqwQGYYgtbVbKmChf5Ph8a+XK5aaUpWzhsxLnEhRk8UOeFQV8/CHk8ZvgJ7ZqSrwIykMR8vw8r1XY1jg/FXmJ2QX6C4Y5AmrugNjueJfOL9yxW0Y/BpxDQZlfccVV9sUHO1Mf//jHbcv9M//gc+Uq/RzEdEeJEucQ/uLPv23K+tChQ6aQpWBR2nxbzftrDsnwCQuEEo/b3vG9NcqWMKyiUcYABQ6tWLHCZLU1jQx8FBGraszGIBMHHOKP/s3KDnddPlHkrRRbKz+PTuW6Q5HCPNuKfLo4MxMB3zbO/jOfmwhl2ChEQ9x6t08vQ7/VJJv+ztXCfJnB4Tg+5bz99ttrO2AD1a/de3+pzM8xlD3mHYj777+/imLmDu23Qyfl8hMUNIfM+HQLZas7tYMuDR2au77j+2m2uFltcyL84ovXmYkiXrqUS1I4AY7y5zQ275QJz4ExlG/kMziIHz/jik0MUwobBa4xBx52+WM2jUc1Re4Hd2+XrOd5tPOfOZyfilz5a6ozhyK+QPhURnHm+ZVoj1Bm9ULjwpj4Tj0o9ZHGj9/ofMhLL3F/+zN2DiSs1Kt79+7PPv3pT7PlXmUy/jv//H8qlfo5gLM9SpToAn/5l39e3bZtm82oWTEzy8ZEQXMhCp2Uzslqm9k1h8MCM6y099e3vemwa9eutQNhEFvgdGzsyGASD6trlPrAQH9Qz+N2gcqChfNCg+m3363G1I94oGzZBefHPOy9nOn0PvsxD/KocYV0gHdLqZNv3Jjw5D9dKC3izUMRX1D4cxXtnq89OlPkQlpeUyk/xYmptgCm/yznHeykO+UG8ZvoslOu9PVDB+OlScjFLfcX+CEf++ndkyeHqx/7+CezdevW2XjwkY98pFTqsxRlz5iF+PM//3M7Cc4gyOdbvLfmhxP4/WqUNn50RPu0KoC7wZlhAzokHZTV9ZKli7KBoFXxY3bN1jjKWT+JSRysuPV+mpk7dsLjNzY2aqe+NYDC08AMT4oYZa3BAX/cUsq4fRggnuKQP5AdvuKfDnzcSr9EA+3LpPvy92VeBMnI9PnALncaV1mH3YHyox+FccEKkl+7Y4xgTLCvMUbj6zN27FgMbNv2loXhUCu7ere/547q2NiEXTZTnnKfvSh7xVkG2+DcB/7KK6/YSpoT4NwNjnKuI9RS0I2B+kwh8xOYrLZZQV955ZX2fho+ipgOhxJHBkVfHQ+rZZbLAXRQ/KU86dCQydXcKGE6ODDFHFbjuPHHLQWLG/iBNeXh5kc7cEPyF3ATl+wieI04zpEmWi3YPWhzWG/2o/P859WvbwsecsuUXJEppO7Zj+nW/3RfzcTy1VZ6f/9gKPJGXcSfqw2K/XScxGsS/uSTT3KfezYyOm4/0HLo0KHqhz/84SpjC5cv/fZv/3ap1GcRzrVecU7g29/+dhWlzMo5ngQ/lR0+fDTbtWtHUNSHggSr2MGgeEeC8uZuZC5MQcGyEh0Is+b+bNGiJWH1vNC2r4eGBoM7bnMPDvL99Zwgh8LtD3ZOjC8O8Q1kXEGKP1eN8q6ad9T9waRzauVMJ1an9goak5U4Mjqhzkyd37RGVkqcMJoAqNN7aJAgDH78prVkCANwK07k5Y89DjYxv8j7m9E6BXEIyk/P8Q5X5O3K0fs325uHmHbxUHcikDSvpro9N9BbRa7yLCoXLhTCT32OhTlh6MdhHKjG36Mfq48Fw6dG7DcHDh44bLuAfYH/+GNP2uKCLfawarfv2D/ykY9ky5atqP6jf/SPSoU+C3Cu9YqzDt5T0yE+8pE7rez+w3/44yrb3ZwER/HwOQefeTC75ZOPPcGP76mPHj0eCP7cQFzmMBAUJT9tGc0FCxaZOWcOt5ctDKvsVUFBLwphg7KeN5TNnxeVOgqDVTLvptn25vMSUxYokmDqnbXc3SAdDHCnvBTt/M95FCnoDsGeBphqOfWFFRUDrAZsP+kRj4kPKJoo+XpM40IG4A9fEzb5KTzwskB+klPe5AbjY3HiCI/8caYDBcFkETdKgUuCuF5XfigMezW0ZEl9R8iDuEiK546TvcbzMnHUBBM/5bUY06vf9uiuD05Gb/NXq6dYWQbSI8+NdO2V3q699oqPw3GMcfwOOmMUk/97vnZfbIAlzhqmNrqcZ+D3q7n4hJ8LpFHToBkkGKD4TeBjx07UJCPmz59rB8oqfWHma6e7K/a51hVXXGGXoeBmtXvRRRfVV8EMPHQqBiPA4IUSPzV8wvwhwmmAxF40SBXxWyENI/dU4npHYZqKPFmQdg0UuYfqX6aHryv8ISlX7PL3YeHRliWrdiglCKFsmTByiJGJIocY7a7v0L79RBKl2zSxDBgePm3vXnlVpC8nOLCpV0f4ocA5u0G/Iv0tW7bY3eAbN24M/SHezqe80y/oMyhsJgPIK59RJk4i9IwKV4zp1W97nBOK3KOJofZAPjCfe/aF7LHHHgvK3OqxOnfu/OyDH/xgdsnFl9nFTv/sN3+jVOpnAe1a+TseDz54v62o2QaHsDPgoFA5uYkCPX7iqK0UNLgxmPBOGuXMgMQ7ZgYiBhhW4jRoLjkBKHK2uPGDTzjFz4lx4qeDNA9GsYMhwyocUx3OD1xAfCCeRx6vFbqVL9F7qL6pa5F4QIrYT/Yg4NsOfmo/8PAjLG0W02+x4mdtMyjm2O4JFxXz0aNHgtLl9Qztj8OWXM17MKysuT9/JNBw4B23PkNa9CubDARhrc6Jm7RIGxnSQJ5dLH3+yK1jGzasZ/WXXXb5JfYM9B3CEZ4+BYgXxU488PXMspeYMkIxxgkeJuV75Mgxq6Pjx05mr776asZ97sFd5TcFqC8+XWM35bOf+4elQj+DOC9GbX6/Wie92fZmG5wBAUXNN9Y0TAYaVgR82sVgw2Ey/UQl4XDrkBk8fZ7FYIEdpQyfA2jYweDgQDY2En/DmoGKFYQGIaC4NfDQYeSPG2J1Y2ZNXgMxUOdqhXb+efBhlHaJswNf93l1oUHWKyzfPnwYb/ftjkknq2ImpbQ92ir95MRx+kxjpU7/YBscP/oIsvDpT/Ql9TH6krbOUdTI0Acg2jfp0WfIJ/0JOU5IEyfhpPjhr1t3oV3zu/n6TTZxZrudfqgJAfERv+68xw3wg++fucTUUGt7dr1rKFYrV067cycFW+1cKMMFM9VqpXr55Zdb/XIAt9xyP3PofpQ/B/D7v/+v6yfBaVSvvPpSUNg7rBEK9PcwVgTFGz/VYkBBCXMi89JLLzUeAw+DF4fJGEBYKTBQaLBgoMHOYMGgxuSARg6PcMgHtRtKuVkZawCVrNzyr3UccyMD4An4pf69gk83D8pHiSJMXhH6Misq3ygT6tbaQrEMbYe2B2iPgDaBH+6JscahRKXr2xgKkzjsSt7aOQ9MDjex7T0WwpM+bRsFjiIfGYlKU+AR4m+6L7Y+RJ9D2ULLly+1+FHC7EjRp0iT/JAv8sAk4Pvf/771GeJA+cMnzWeeedrC8kqK8Gy733DDDZZPwnN3AX1Iz4fJs+FPOrrnH7RryyUmg/JUG1EZh3Kvctqd+uKDGMa5p59+OvvJT36aPfroo6E+D1dXr16ZffSjH8vWXhDPO/zWb/1WqdR7iHOiZT/wwANVfZJFZ2Sg4CQ4M8L4gx3xQgMaGY2Kd3enh0ezo8cOG49GiKLmvTX+8BgcGFQYePTpFnGwmsaPdPjcixUCMhZvbSDAhIgHU40cO4MK8WjFMhQGEvzx08CF24cFCi8SvJ0wEEAeUvgSZweqj2J0Xz+NOMPAWXtH6tuBh5RiCtoF7fDg/gNmsm2NwkRJY6fP0Eb1yohBGZO0UaD40T8YIjiQCZ880PfoI6yoAYoXPv0DHnLEg1z0i8+CckaGfKnNYtJfyNd/+S//xcJy6I17DpAnTy+88LzFRxrkndU5785xc8aELXfC0beAyoN4G2XTqIOicixRDOqJtqBJGG2DtmllXrWyrl/9zGSP30Hfvn0Hcnz9GhT5yuzzn/+8jcHQnXfeWSr1GcasatXf/vaf2E1EDC68q0Zxj4ZGw/Y3KwYGHxQrAwZyNJ6RkWFrHOq8KN1ly5aGgYDVc9wmZEBh8IGQoQGyWmCVre1EiMEDkwGEBosbjI3Hy1bq7toAwcBE/DR08kVY+Gr4DBrIYkLwGXTwQxY/DZDpAAMfECYFsqSjOEu0wnTLp/WOh+qpFTqRAV6uXv/VWNeANsYgigng4+ZTR7bGaQu0Rylp4jhy6LDx6FOspjEJT9uDcNOfaJPI4Ydd/SUq8kbfoi8x0cVNekyO1QbVjnFDpA8hC8gTaZAePNzIka/vfe97Jsv78GuuucYm18i+9dY2ex76Ke9kWZXzLhalcdVVV2WbN2+251B+CUMeSINDeSnwa0bZf1ojtinaQKzPWMeMX7STkyeHY1mHeqQeQr1WOdX+8kuv2tWvO3fttc/VqFPaDxO1L37xy6Uin2GcNUX+jW98feLJJ5+scBKcDs3KmvcsHKYQrM+F8YxxDMXLIMIAgJ13MBxwYcuN2T+NasWKeFc4blYVNDYaHwqYxkRjhGh0GnCQkSk/yZEv3pMD4gHyw40sIE8aAOHR8EmT8D5t0sAPkD5xKC7FL0wecCJP4UR5ckDxFfmfP+itIlcbaAtOcbvT3R25Qe0HZ2g3KF2tqKWw2P7m/TKTWhQefkx6T5wYCW0rRBObmyE0vzDpjWc4mPzSblGcbH1KcdIe6Vsoa6UR2xL5CPEFa7xDn35QCZNebghjXGbSyoEzlD79Lk48SCNt/+pjghQ58gz0rLjJH3LsigEm11xSgolS5zpRFDkE1q9fb+GIlzQ0MbHJN+Vaw+T+0GH9nafgO3TKFKIe6Q+qU+qHLXbs1K34akeU9XPPv1T90Q9/kv34xz+ucpcGv4jIgbglS5bZJLDccp8Z9HSU/8M//MPxl196wQaWULkVlCurBwYGlFwYlCp8O02F0yhY4epkN6BRwGPgYfVM56SB0GCw08lR2oRXQ4L4XMUr5lZQx/am7MDb80AarTHdgaJd/O9MaCLi61B1gxtTZY+seL6+xAMyJQvgYSeeorhwSw6TQQqedmPkhxKCT/sTiJNDQdHOrg+TNt5lsxND+lBfmMTuD8rpeIhzKPSJw3YqnIt99u7dkw2PnLb4UXZsQaPIADzSYyVOW4dwkyZ5ow9Z3wjpLAlKWYqb/FofCfLYUdgKT1h4mD7O2IYpH9KkHKObQb41PzyrhZ+MGG+sA7ZjeUfOMzFJv+6662z1pjxCjAWUAXnD5JCV8s8noChxVn2AyQlKggkFcQDiZswgHkwuOlI5qE6jbJyIg+iXP1kWT89RjFj/5y6U/1if3SHU1eHjVl979+61HZVt27ZNMNlkAsCY/pnPfMbGfOrxo3d+vFTqU8TkFjpDePjhh0e/9a1v9T3y0x9bRYbBpaKZP52U7ZjQUSrM0Bh46FwMPKwGqGA6LB0KOfiYAisB/AEDaFNHC7Nv75ZcEbys7KnZCu1lptuRp9KB3lnwgz5gUAa+7JFJ3ZCv/7y6Ii74mIrXD/7yB7RR4oRHvChV3PCBVwBMWo8dPRFWhPE+fBQuCoswkqftsopmcsuXE8TFzhQDHf2EMIcOHQwtqGqypCtlTBqsNrFjqk9hEpadqYXzF2RzQlrw6GPIqkxULig27PIT4YbPrYMCfKFTeyipmivC+wPS4JlZkZMmCpjtcvV35JFRmVJ2mG+/vd3kmdxwLzjhGDsoS05OX3vttbVymWuKQnUGKAv7Fp781epXNLm/Trf/Tbf/n20o/1Mrh4nxPusDlDX3B1BXnHfavn179cSJU7aTEtpqlZ2Y//MP/l2pyKeIySPbDOChhx46fe+99/b95Cc/qYyPjVXmzBlky6xy0003WSflZHi83ayvwgBFh9NvVkN0LnU8Vu50YuwaBFhxA9wadOWXmuq8Quys+ZBfK5kSMwvqqV15S0Z1qboF3u4BH1K7KSLaD0T8tDkBP5RcUJl1O3LI4EahSAkC/FDk4qFsUDInjh4PynvUtr75TIetcUActG1eJ4Gx8YmsP/QBgKLhPTCX9LGKJ25W1Pq2moktypoJLwqPvCv/mkyovE6HiQJ5JQ7S9M+IXWEh+WOKFwfyGAa+N0ErHoP/WCO5XJAG5fS3f/u35uagGytyPZfKlQkMZRvHij6b7PBclCFfqJw8ecriee2112x7npPt5GPDhg2mLLATF48kO/FyMJb49PwAN7sKlEXeFcGN5zsTY0WbApx18PllwjhgP58q0HaZzD711FPZM888m/3gBz8I9Xa0umrVsuzjH/94dumll1vb/s3f+n9OdwZ1XqEnrTAocVPkoWNVqhNjFToNdjqjfRMalPm1117N++0KnYYOxXYjdjqnBiT50dn07lCdO3a2OMAK6lTeVKfzHc7bizql7N6/xMxDyqQT5MkR3iOtL9oH4RTW25GFiEOk8LQxG+zHolITnxWfHcKsrabZMmQ1jRulgh2TdFEuQXUEd/yuGhAX8TJYQSgs3IShf6CwGewwbVDsj3nFT/Lkk/bPShu7nsk/l8BoiCzQ80nOuyGFa/A04WkMxJIRiEPwftEe0q2deG/wJsuxY/d3f/d3ZmdVvWnTJisD7T5QdlYXYSwAKHNk8WfCxE4Hry7YweDdOXmirPj8lHfoxEcZcPUr36VTN1rx6/058UGkR1qUfXQ3LxRSIN9bNLfv2Y/m/I6FmRzb6NQVXxIByoxJVzzlfsS23Jnkhnrml9bszAZb7rSFf/DZz5cKvQP0pBU++OCDI3fffXdl//79lXUXrq2ECqlwtSnvygGrigsvXMvnI5U1a1bbCp334HRA3l3Raeh46rxxHIqzZHU2dSB1tE7gO53sGoi8X4kzh6IBMuXj9kqjU6CINemjLfl4iQ8FCsFHQcBDWUMoEMTxR2Egg7JgNRgVddwux03cEDzarRQuihygmNjiJQ2AEqbNw2PySloMdrwrlHIn/ERo81KoPAdEOhZ3kIH0TN4UAdp26ga4CS9IRnKgnb3IFLS1Dt+TeOSFMkSRA96Re0XO5J3npdyQpdytPifiDgRlpUkS9cSWO3WF3OOPPx7GlnVWzocPH7TVOd+hI8+XLSh70iAeLRJUNt7eCp3ITA9nW5EX6dE0X/n5ZEVO+VJOo6NxcUZdUgfWZ0L/5DNilDm7KVz9GmSrXGc9f/7CbNXqtdkXv/jFUpm3QU9a4cMPPzwSlHll+/btles2bajccsstFToWn5H95Cc/sZny8PBI6LRLK+96183ZzTffbNtfthqvxmsiAZXNIEblq8NYp6sNAJGaB6IU4im8B7y8MCV6B1/eRWUvPiakehJfdY+bwcD7AfFpK3OG5tXdEG3JFESNx+SSFTbbfcSJqW1w3t1yGA1FwwqCg08hSkMQDXHEC4VQymxzo3xQDmztopCILxufyObNn5stXhT8F8zL+kJ7RTljDgyGlfjpoMC5ayDEPT4RlFTghySDoiIR2n7cHeBZyK8UL/knfvhyp4DH88ouWL4C4IkE2WXmhU/tRX5gNP4Mdj3N1CR+ylbvyHl9wNY6rxeIy34YCDM8N/56Xl55YIfg44+C4BQ9QKnzPfP+/QdNsb/22itWL7w7ZyzauHGDHZCjTAk3NCeu/okvfYYUynsn6EY2H/kK8syhSIem+SrKZ5x4asJE9VEm4jWuAGbnaiTohldtUsd97seOnaquWMnq/LPZrbfemv3SL/1SUWbOe0y3leUizKBG/viP/7iya9euyk1bb6hs3rzZ3oVTWceOxdO3b7zxRoWBksM8DHp0Mm5Uu3b91XbRAx2TDsg4ImXejKjc1bHlFmRv1ylL9B6qA0xv96YgGfE1UMvu+RCDsOz4YdLWaDsMDEcOH7MtbpQxq2wGDeRQ2Kye4SErRY4CYYBhsCc8PIhJJis7lDZ2FDZ82ql4gLBsi+O2ASpoZP2qXVxZE18047WitFvaNwMdB7B4Vp6Z10dYY9vX83nFqrypTGTCE0Komq0ByeXBhwXkx8u3s6dx0zu9XyqHqRU5abNb13RqnR9mCTI8v4CcFDuKAFPKQKANHDlyNMgN2usOlDoynM3hO2d+x590+JSOsWf1mpX1CR4m5Yy8ytvH7e3TRfu4ihTkmUJ4fn0amYuU3+ymnjT2U7a0c8oUHuD8CBNg6pH+xusq9AOvrHbs2Jm9/MproR5sIlfltewHPvCB7Fd/9VdjpZSoY+ZapMO/+3f/buRP/uRPKjt3bq9sCrPe2267pY+OSGXSObiDfPfuPZUdO7bbN7D6BSROnqLIeZfFoRcU/KJFC0ID4N1YHPCsYQXQKKBGR8ivW/kjW+LMQ/Xk7Z7nB+hJ/mEA0WAqBZ2SlLMIBawLRDCJBjuDA24UrLb2aHOYKA0Gb9oKipztba0IIZQ2K24UOTKQlDrhcat9M3ApnH1d4QY2eAovAsSh9GO4xid3odUb38fPc+ImjOSA0hUsXE2RKy0gOXiQwojX7G5+deX9PLzb20+HZyOPXPU6MnI6PCvnBThDwDNwo1z8kZVHH30spJVlK1bw+dmmbPnyFWFCVPu0NKzK1Q4g7MDSCW2EMpEbf5QOV4fGusis3nfu3B3SiRdKcZ0o8fIOFkWOQmelzu9wDw7MyRYvWZgNDcbf4icOZEFqzgQ6i6tZOZ45dKIv07w1u9Vu6Xf0TZSy2rfVVS0NJtOUNeV/4uQxK3+23F97fZt9Xkj/JXxY5FX5Zbz/4//4/3aSufMGM9ciHb7yla+M/NEf/VFlz55dlS3Xb8pu3npDvdCpvNjhBiooaCqZbcwnnnjKfib02LHhMEguyN71rndl7373rdmG0Kn5PW9WBnwKE1cqMboYT9xGs0YQGgsdlUaizt1ZY5zF0MUgU0XhTHpmUB88a3YIUK/YMamPOJjHSySoJ2bgDLCEVSen7nAjQ1i+pcYOGLzZBtfBMiZ/bIGzuiIs76np7CdOxO+sPYaG+urKmXeq2FHOKHQUMiZu+KwOyA8gbZRxilaDr/xkekWe+gHsvtyA/OGpHefJeDkfj+Tg0Xd4DpWp+CLKkjRU7pDS5JDe0Nz5QSbWG3zCUBfEpTAAvk9bJpMl6oxXaSjSAwcOhXrbFSZgJ0M8o9mhQ/G2OUBUTNyvvJLPxzZk11xzVYhHA36Mk7oGbIXLjr9PvzHxD7zair2/n9d1VZvU8S6WU9NvvrnDwq9ff5W92uMLgWuuuTa7/vrN4dkplxAHB21rUDkB0iFeKS7slEXkxbZDO0JxpZAMUDnl9vMO+q6Pq3don49uUH/mgNSuHaloBoTxnkkfOyo/+tGP7NzDwYNHs4svWsfqvHr//Q9Oc4B8Z6AnreC+++4b+frXv17ZvXtnZct112ZbmxR53L4KHSIo8jhQ0bm40Y3TqwzMvEtnq5OBdcXqFXbBw/XXX29b7nQQDSoMKP398TMbGjQdmzjjQDwR4ogrnXNamc9yRQ4o+9gJY6fU4IJbdQIP0sDPJykock6uokwg5BjUUdBHj8Z79WkXzNYJhzyTNuqbeKWEFDf1zrY2Spl6R1Fg6iQ4/sijuLUChocJHx7UPFib1WQ8Wrm9HUVe5Ad4LvEwU39fdkAm/JSAygO3VrH0BSbA2tFC0VENmGz5j45y6QxhSYeBM06YKadToQ9xIpx4iJPyRzljKu/0X+pROxwQduqLrW1k4WGq/ihn4mNiRV3iBviTbyZdy5YtsV26Cy+8oH7/up6JVTpjBM9LPMQB2DonT8jxrMiyOlf5wGcXh0kfE4zdu/fY1r7aGCvzq6++2tLiEO4ll1xsPyWssCp/ENtMY4cA4K/0SZPxriMU9fM2/dfnpzfozfih+hDkxmzyC+2QekQ3UE9cmIRS57NNynjxoqXUV3Xr1q3Zb/zGb53DA/300JNW8MADD4w89NBDfTt3bs9uvH5DTZHHMtaAEExT5NbRQgeiwwNWXcyYqSjsfaGDo9A5cUoHW7R4gX2eABEOipVf6+C1jh3jjAdiIs7bOu4pNJCoHnCrjq0O+gYzvljgPAQdDx4DMIMpShuTMEHcBn46q06BI4sdk4EdIIsdE6IdUM8oZJQ1W+AobvxQHih1bkyTwlYelT/4mLghpQHlIeXL7fne3kqRY5cbU3nweeHZPCSvPEsBYoenOLFThjxf9CecVjr0CfoD/ScqcFbf/G4BigfFfuzYCaunEGM9D1pdU0/EDUgX5QtP5w0od6C8AvJJXoiLVxKqTxQm7UX+1D+v24iP8Chw3pvryxa226lnwmgCQJz8HoKel2eXH3GoLEF4GjPhQSwaUAwodJ6D7XbaDHEy3lx55RVmh0f65NvCZlFRkyZpKC0mj34cqq8sc4C/L6OpYLrh26M3ihzw/B7e3bDHRZrKmR0WFnvcHcAFM9u2vWXlvX79RtvF/d9+9wu9LpBZiZ48NIo8UN+uXTuyrVs2tlTkNXvogI13knQCOjLbpz/+6U/tHcmRIydty/22d9+Svfe977XDKnQeOi1mXGXEgYyBhHgYMOjQEaUi7wWsc9XqDcINaTBFkf/1X/81dy1bnTIQYsZt8lO1WLg1jTAoI35Ra4HdTEZ88ZzEIhvMCUudMthqdQbRXtSuQHOe4tas8uT9ceMnnjeFVu4iP8/vt1VwA2l4DVAiQN7Il55JlMphomxRXth5HvWB+FwxvMkHhRKe2ExOxWNyKn5sdNxOzR85fDQ7eOiAnZ4/cfJ4tmP7Tlu1HjvJdZpxGxsljrKmS9WKLcTP/e1zbfJEPZA+dcOEijpE+ZEHlC9u8kVcQHkmfsoBkzSY+OkA4ksvvRT6M+cU5lqfZ9ub31fgmYmLiZ6UK6tX+MSFUpYyVVkCvzoH8uf1AcqB+9x37NhjfldddVm2Zcv1JsP36KzW41hTzebOi9+y+7h5HsYedj7IB/aOV+RThNVtT9E7RZ4irRcQmoeVr9oKOxcqb8qXU+5cKvPII4+EtnMyTOyXZp/61Keyu++5t9cFM6vQk4cNSnyUz892796Z3bBZijyCSqh1gPrWOpXEVh6dj8pisMaP2fnh0LFZCTBLZ/bMQMJ2HNvtzJivufYq234jDJ2fuDQrj4Nko3FMDfWsl2gBdTzKHztlT0d77tkX7N0WgyQDuOp7yZKlppD5jpoBm8FfyoDBUgPm0FA8nMaKiDjhaUVGHRMXYQD+EICntgYwIeTh+3x6npcF8IH8gLcLRf79BXzZfR7FUz55Bik9kIaHbHALIAx2hYWwHzxwyExW3CdOHAv952ToT8fDZOp04A0H+3AIzc7HqZAWl9LwYz/DoS/xM6ahXPvjxTP0KeIB2KkfgKLGTR0pP5jwoLlz59gzYFe/pl0A5LATVm0DM04W4rkHVsqYtBF4tAPaDcShWE6ch2hs7KAuyZeeHXveL6ABVuaSA8TNrhFjCK8KuEaU7VwUPPFu3nyd3eXO8/GJHN85Ex6QDuH7KK5au4NHXCqn9ihSmL0df/QMxThzitxD9UJ5xjYe+zv1LD4yJ47HBR91t3PnLvu0mfpi0rhhw6bshhtvyn7t136t3UOe8+jJA+YoctKxtDRwBbO+Iod0+4/cgIrjRxeoNH7WlM7FZwm8Q6WTMIhcF+Jn201bb3R0Bo1GPNNtiKUibwXKWIOB6g2TzsTg9uILL9uq6vXXX7cVHpMz+BdeuM4mY2ydosBZwVFvhAO0kzgwx5+VxQ8QlvQgeOrYAuEgIQ4CjQFLYdU+JCt/PQOQrCC753nkyXpFDlIZ0iOPmFICygNuZBSG8uB5UX56LmSZ6ELYkUUOmfGxibBKOW6y7IKgoFCK5hdkxPevIkifcmWyDH90Iv5sMMqW/omJQlZfVVhBdkyIk+nEGe1xck1YeKRHHLjxQ0ZlAOjjfIIEj+fjlRsrdr1C4cwMCh37ypUrLJ/EDxEH4cZD/lWeguUxeScNT3mjvbFtyzjDBTOkyQUy2lHg+3Ne9ZE/JqLsFnmwzT93znzbfu8cRePU2R1/prsQUpucKmgX9HlevWoMIE7xOWujumaM4eD0q69yscwua1/rgzLfuvXm7MYbb8w+9rGPTT0jsxw9ebD7779/NChzTq1nN15PQRYrciqHSsGugUsdHD/uaiYMPIFOxoUBUTkcC51poV0q8/73v99mysRDnPFO9m4VuZenE53djjTbUatLs6seZYf6KnHAZ3XzxBNPZH/9138TBuRt2Zw5/bayoYMxIPOum47JFY3UH2F4V8unigyYtAUbmMNgix9xM+jSXrAD7JD8Tab2M7TyE5RP8RRO4JmsrU40wnhZb3p4Hva+av5kAGDnmXhu0paCI988J8AfIIPS1eoUGcKzGmGCpMNmkL3Hrl2HqdZMFSGPIuZVBQqY9FCElD1KkEkCMihGlCV2DeQqT/Lp6xs7cnIr3/Cs/KqNrX75ky4gPbbFFYZnBPgjCzhtTptglc6uHGF4fi54GR4eC31/ka3MOQzLPRTKS2wrIb6cw2LEDelZCDPQH3cF4OE2XsgHv0rHRJSrX996a3sIF7fcOeVO3uN79PiajzQx+ZyOLy7SU+/KWzQn5ysfZ3v8aZ1PPVMR1KfayRUhtqE46Vad1XzqccKn7Gn7tOtTJ09bfT322OPZf/vhj223iVd0d955Jwexp5aRWY6ePBQrcinydityKiN2urhCYKABdCrjV2OnUqUhx8DO4AWxQmcWRkdnRc5WG79+REezbTfrSJ12GpDK0pHOdmeavajVpdmbO1oE7yQBgy/KZu/efVZn7K5o+xKFDrE6X7PmgvrKCiVCtdMWGCAx1Ubwx62BWKbSr7eZMJD7PKkdyV9tUHbgeWzBAux5Jmhlb6fI1Z5R0kxWsetdNEqL5+KZscMTX0pDYQDlBg+wamYFGaY9xud0OtUUVzaseplgjWcLFy4O+aAOCUdZ0R9RYrwDnryiVP59XcuOnwg3SpwJGPmFR96QhVRfqke951Y8hIn1zEQgTvBpK4RlMvPGG6+ZnXZFeCYjtCF25HjVxioZf/vp2NrBNEggPgiQB1bouNO2zLkN0tN4QxtmGxelQR0wzvD+nOckTS4t4TmJi99nN3tNmSu9aMYJTnuc7bFnZhQ56Ox5G0Ce9i2dQD2pfegQoeqV+kKOesE8fuykjTMHDh4JC7+3bfFHm2IHhYnX7bffnv3jf/yPu8vQLEZPHoQVOTOfffv2oMgrN910I2xLS5UZOkyTu7iSWzdktr+oJE65q6MzgNn782uuyZauWFrfclcnxWSQYgDATodUg0CEOKAof7Y70tlOvztQhh46XGSDZQBlysD42muv179OYFUJ6GRMvjAZADFDaBskCUM9oZSoN9qL6g879QWkyHCrTRFOMuRFbuVVsooL4IedK1rVFgindLAD+NotgocbIm8oZ/G1mla8KCAIO3zsxM1AhLJAOSsN4qf8lDeAHwMWPEzKBZOyQonT3jEBp/bnzuWmNJ6FQY/tSO5p5/UFz0PbRzKaKGC6azQbUHl5qExT+LwWfUJFOJWHRz0+O9hEmUcecpiUDa8JKCvstCH8eGaAMkW58s6fMxa0I8KRV8pZuwDUkzeJw1NsX416pg55xcfOAOMOr4mImx0O2h2H4UgXO7z58+dZnTCRID5T6sHU8xGnvraBLygvyOd9h/5Ogn/ufDTaTr1dOKg/Avy9gqf9YHAZkF7vUX/0J/QDp9zZyfnkXZ9ul4lZj548wL333mvvyA8c2Jdt3nhtTxU5jZ7OQuWwMufCALZV2E7h51Pf8773ZNwExA8x+NVBHCQbW2zEA+JqJaaJ3NnvSOeWIge+w6HIGZDgUfaUdyzfuBpjQGbLnTv4n332RQuzbt0aGxR5TcLnRtQV4TAZXBnAiRPlRb3HATEO9LJLXnwBXqz7OAgobuQIm7ZDtnbhxbYwbukpDoWHCIu/eCgYfUoHj8kK7+1QBnpurhANyQb/WmIB4bFM0bC1refjWdkyZNXJpBQ7hKKWMof0HID8QMPDfMvdaNOSkZyeV27vB7wdpG7ia4kW30ErLeVBqKdhq2TqMyo/n1fagfosE3nKmTJloEa5cv4CmfXrrwkr9DUmRzmSX5UVJnFQNsqLyocyi+k10oSUByZb1CfjTZx4jdmWO4qcOmERwa88cpvdnLnx/a7iV90A4mNHRPEDX1e9PvV+tqHyLEZ++1FZAdmjGetS4EdZBgbiFw70vddeeyP74Q9/WLtY5nC2YsWy7EMf+lD23334I9k/+Nxn22Vm1qInGf83/+bfjHLXOr84tGVTWJHfvBW2pVWruEqtrdYrsn2F5oPP1gBKgm1HtiXVydha4dQ77/zY9kIxoNDXrF1lHRVQ6VSy3gXipgPRwbHT+c9t1Ar6DMJ3JAZTypAyplxR7JgCiipeAMPlHLvtoAqfH9HpGPwuuGCtKTBW6igu2okGZOImLXhKU+kAKTlBsrIjRzsQvzF4NxBXrDHPtDEpctzkke1WlIgmKfBQ4sjp2fHT6ptnAtjJH0pHbZHw8LSaRkbtj3AoeLmVX9zkX88AAeKCl24tyz/PnWu6MwKC/ECRPY03D/hBkhWawzT8eCaAPM9OXTNhp9/jph5YLQPKik8cGaj5XI0wbL3TlhQ/PHYnZFd+fDqQgB9pxgXBqE3UtIPCZIL6pt6paxQ6Yw1hmEjw2og8KTzxciiO+oMHxbQb/SW2tcYBr3cifPnmoS/ZFSqCyseXExNAzljBI53YP4etvvgCiitgaS/U4dKly+28CFvu/9P/+39pnalZiJ5k+A/+4A9Gv/Wtb1UOHTqQbd6wvqeKnM9qaPgKTyehQ6HIqaRXX3/dKo4BlpPtdC5Me6e2ZqVtw6vjhqHCKl0dyzh1v3MVZ16Re1AvTIq08tHhN+qIsmXlyUCMHwMgipxtMP36GNu7bFOywtIKlLpDnni8EgS4sZMuslKgyPs2ZnmppUk8hIFwQ1rtzZkz1zo6eURBk2/iwdRqm5Ugg674hKUdkr7kWV3zHAzmhMHNc8Q05tQHd8JQJrRp5DShxE/PgBvCjQx2gB8E4jPFLVo+wUIOpOWgsEDxCmavne72fNDOLcBvl573B80yjbEBvp5XzxE/l4tnCejj7HxQ5tQXZzBWr459nDriUCUH4ihTdjTigb7GITviJk7iUv0D+LQr/Kjn6I7KVvUjpcCklHbBZAyiPtld4qT7ihXLrV6JS8qaU/WYyBE/rwNwN9pxbN/Al8v5gjDNrtnaIy0fay+1V2Nh6mem6pJ65JY4rup98cUXw6QsXnTEDXHcvc8h3Ds/9onmhjmL0ZOMPvTQQ2P3339/WGHtnMaKvJ0CjREQjk4B6NC1X8qxzmAV29dvs2VOufMt87Fjp8IqaKH9LN5tt90WZ81hxaI4qGDCceAndqSeFNEZxNlV5NSzHxTJD+VLuVJPdJ5Y3rX32LUVOwMyCv0HP/i77OWX+TY0CxOwVfbZD4dVUH6EIW7CWV0HwCO8FCiDKXZ4tAkIKA+sqqhz8sGuACtseChzwgD4KPOxMRSPsUI6MvvqW90MxpisvlAepLtkyWKzx1Vc49UCaUPkF5AfPYP8gBS6gIzcyNTbeYDiEAH/vOJ5eJ7seTyhlTv1I3/t5CE9q+BleNZm/4YdOcqHcuY5keWEO2VNfepGQfxZgbErx4SQcJdccpHZqXtAPNQPfoTnxDtx8oocPooAGfwh8gThh3xgGWgrvLPn97VZTIyMTGTXXHOFvd5DmTN5Ix4eifhj2BBfX2NSChR/87Off3CH/mto1gsqH8owD2woxT4X+xH1TflT9qeH40E6wr744kvZT3/60+xv//ZvQ18fydauXZl94hN3ZV/+yt3nRAX0JJMo8nvvvdcU+Y2br5MiB6HcLckZU+TqWNYZQhx+K4qK4xU3s3OIAZrOzeyZX2BiVcQsnW1bvkfnMxbiIJx+bOLcR62gzxLYKqRM6TixbKNil3K3wTJQvazDCpABDUXKQMhPkLKyYjKGm5UVnY9tUuqNwVlblsRBGnRWwjOAQwyu1D98ZFhZa3UtnlZWygedXYMsYDeASQHpkD+9w0ae9MkTwB9lTlgGeQ6a4U88pEFY5VVpKQ34HpIDKkMgecWJnwAPt+R5RrnxE4mn+AX8vAm8HbRye7vSTAFPfEzkPPLiaJRDY0fB86UEcar90N8pe+qe9oMs9YJyX7t2tR2Ko4x49UZ7oqwoT+qST8gACtbSC+0SP+KgbQDSoB3QhsgyfPxJjzQ4fMuPxND+WGmzdUuaEG136dIljbZbjfWEG5O04OtZhdT9TkdlIraFxnM3t9d2aChyjTON9gefV0e0iT179trYQp2xs/LMM8+Y/NJlq+xgHIu+X/mVX5m1hd+YAs4g7rzzzt/lABMHbdasWlnhRw9qCPVhZVGvF1maK8p1fg7L2PvrtAzhMYuN2+oUOh2YaOJpW7bf+rOhOXMDrz90mmVhRXdhtmhR/EGN4eHT9g7t4EF+E53DKvEHOTRjY0uVztmUl3MSabmdWbBiBQxMEOXJt+Fc9IKfBmYGUepwbJzPqTioOJQtWxrv1F+79sKgHPn9bxRT/OlL6u/gwUOhzviBDi47OR5W8fuN9u8/UDf53A07svwQy+HD/PjCkbBiGw75oYPzjhylyYl4Ptlaki1bxqGyZWbnsJ1uEYMY8CFW3XybykSCwRzljUJA4dMOaUPRHpUp7UqDCXZ4sb1GhYodP/UDDTTiiQ80EEGk48MB78+FSrTgiZpprRnZGrVyYw+2YG1OP3W3hsWQkBDtMa7UP9prZ2IdGs+GnXIDlFUklC0TpgGrlzgxHMgWzF8Y3AvsOto4qRuzNsRtYLQnXTxEvEzQqB/iGQ0KGPT1M6EIEz5+Qz6MR/1hhUe+qUvzD/nkczPaFPXO2QfaBmkT5/HjJ+xwI3T8+LHaWBNfz6C8OZDFBT7kA9BXeLb4nBEq887L/txHaNnJ88Z2IaJ4GBcavEZ5GWwiFs+6UKbYqVfCxX7D61gOk3IuZa71cfqUJmh79u633RUWf5/73Oe+8P3vf//3ajHPKvDkM46HH3549J577okXwnS9Iu9uxsWBBl/R6uRxYBzIRsLAj5tZFxVJB1Ilsd3205/+xK71O3zkRFAaC+zdyPve977s2ms22IUyviPFvJHx7vJ4dlEr6LMEHd6hjjTYqr6iO74jpl6kzKTUubWJz6XiCum0xcMqiy0wrn196aXXLJ6lS+ONW/HQWRxYfbXxmsRvfzNQo4RRyMTJD12wk7NgAatutsEZQFkVNQ62AdqCBljx1T5IH8CLA0ScnDBoaLWOG76eH5PwMpWOykF+ALvIx6EwguKqy4a4vLsdJsm4+PPC+3jz42/0TSENo2cRfDwoT++vsA1eY1eBugTUESzVg+qENgax4tL5BrbBmSxedNGFFl6r5ka4SnZ6JP6Ai8YQUwhhDQSPulLbxI5fzH+sI+wcyGUHiM+fuMt9b1AOc+cO2FmdW2+9xcYc2iJjEmmwnR+ajf0+OnkgHoApOl+Qbq2nz+7LJ6K5P4TaqPXxxm4KJq9gsdMnqbex0fjuHD/qjDHpxImT2QsvvmyvZR999HHbZWECf9ddd2Vf/vKXZ1Ul9CQzDz300Oi9997Ld+SV6zduyLbGz88o8KDAbYCascNu7RC6Ys3WSIOKogIhKoctFbZv2bqFx8C7du0FGb98xDtZtt8NlQn74fuR0WGLg2dRw+F7UPFqz1hrZD3Z9DiH0HoiQTl5pG5WVPBUngx2bFVywv3AgYM2EPMunXfq+KGQGYy5FIRVEasj6gNlTkeFAAMmCj3WYdy9YWYevxvWQNzIz6R89RC+Tyhd33YF7Ck/zWfqFjrl58l5Xp49L4yQ+hXF1UCjDATvzisXIS8c/RtljvKlvbDlDjg0x1cu2nlBhu13tr9pd7EvN9cLPJoLcTYURONQJyYrQeTh896esYYdQG2948chSC6x4qQ7k4iFCxeEuFAm8ZfhSAs5lAtQuuSRdEtMHWojqWkIYw87KJyb2bMnfj7KIVzGHxQ6Z3Xec/sd2X//K78cG8ZZRE+0zEc/+tHfffzxxysnThyvrF29KrugtrUeGiOoWY1Vt9QZM4wq32iasg0VFOwkYxQUDJ2E7VAGfkwGd7a72HqlspiR0fEweWfGNlmc3XH1Z7ychO9Eo4KgQ8XOrcYQn6k3z3XuoPXzp/U+qR3Ya5UaBfvg0EC2cNGCbMXylWGgXWN1pu1sBjpeiTARY3CkTln1sNrhLm6dJOZbbJ0gZ+ubsGxpUrdS9NQj1K5d4t9OplsoPsXt4/duzxfyeHnoVK5T5A6EXSI/T8VlkC/fjLiNGhUhq+tY1/HOePovfrQf0tFKndUzOz/x1UvFDjoSnraGPIq78ZxxlyaFbcuHsURhGGvYCWT1z+FH8kCcpMcYQ3qMOTq7QRjySPvETlsETD6YhPQPxJPujXyUmA7UljBlZ7zpq/TZGHLRRetC/cV2Qh2g3Nly57cAPv+5z3/hn//O73zhm9/61lnbdu+JIv/4xz/eSpFbKdXLyhVgT5C8YyMdqC+slOlcNrsNJp2ZT1N0spQV33PPPZc99dRz2euvv2KzafgofToQ73LphLxX5YQrnY93NbzrwqR/Masm7vMb7etVdaI24N2UHyQ/DVxxBR2/M+fiDT7xYYDcvv3tUF/bQv3Fy1cYrJFbuJDbt+JpZDoigy80NBRPvzNgEzf1SJtgoEXRa5BW+h6ep/xOF2mcguIXz9uBt3eKqYQ504jvPyPSZwZ5bs8jfIxD5RfbE0Qd8/0wv8SHnfegKElWugzUKFjaC2cruDudyR9x0K919gM7ccdmWYufK2XDQiG2p4aSpy3RtmiPjCOcmtc2Pqu9559/2Q5Z7dmz28YY3rHH8yRxgkk47BDv7GnH5fgyPfj2kmfnLASTNcYFXs2xQ3vDDVsyfkTn1KmT2aOPPpp997/8ldHnP/cPv/DY44+fFWXe3AtmCLwj54rW3bt3VrZs2ljfWg9ga93SpP3R0NUQVYAzjtqMVgoAWFpVdcTYsfCnoyGGAqAjMxN/661tNlNntqy73NlS2XRd3HJX5wRs39olBPYtKKee4/eK5zemN9BQtupUqkejiegGDHLsmlBH/HY9N/vxM5xsXXKwiUkagyL1tWbNqtoKLIKBmzbIwIyp+FWnZwtpf/BuPTdoZ/e8PKT+7dzA82RPzTy0i0vwPK/Ii+JuFQdtg7rE7eXk5l0pJm2Hcxe0ARQ27QI+P9yDyaoMQsGyq8Nujw0jwQ/FSj/HrrjhgbhTF9sxfIg0TBkHk/GDBQHh2XLnqxpM8s2roYsvvsjuc0fhM1FVHNwWR5tQO03bS4mpgbL14KwC9QTkx04N7YVdFF7HvPFG44saJmgsCO947/uzf/Jrv3rGKqUnK/Jf/MVf5NS6rcjXrFoZlN8FVgihsRmQUburOXvWEINezUfwIE90GExmXBBuBno6DYqbzoQ/HY0Ox7tYlDynUA8fOhJm70FRh7iGuGEupIWC6R9gRh6vE208Vm17v2vqTbmcObTOf/t6ZwBkmzsOYMhTR2wt8nqDDxTgsTXO1hd26o1td04R8x4d6FIXXoWwfUl9Eg+zbKAJWVyx0Sbi4KtOnIJ0UppJdBqfl8uzz3S+ZhLUZx7IcyP/ZhiiPS/MZF6ebIyXQ2rUKfbGRSy0Cc7JoGBR0vR/xgG2x+njEH2eryMIxwo9fqIWL/HhWWKbiWNJzH9cNeNnbTaQFLiekbC0M3aOICn2+D52Z1hUxN9mR5ateX0CaSfog2zaPmO6JTpFWl6qF4FXeey+8rUCa1B2QvjH7+yzQ4vSpk6405/2sG/f3mzbtjdtrPnMpz/1L7/3t2fmlHtPFPkHPvCB333qqacqJ0+esK11fX4WCsgQ7caqF5rMmYZ9dhNocvyxwugkdAZW5XQ0OpVmuYSjM7MFdsMNN9hJZw6pcMqdbXcI0Ok5XMXWLTP5iTDLj51VnYwBJW8A6gS9KZczh+nlX+8IVV+A+mEQgwb6401+lDcDIZ8YsfKmzuhg1Al1w2yZG5zefPMNW/FQ36zSiYt614BOXPCILw6yzd9pg8ltKQK+qFMUyRfF0U42z46ZF26mEespH6lfK1mh0zy3k1NaUa4hCx9FS33TbznIRJ2zquLAG/2diTxtgd0dPlXbt++AbanS9lDsDO60JbUjXscQL3aglTk8ZEiPsAAZBnziJn0mE+wGIsP2/sgI14key7Zvf8te9TEWsSNon9XZeZ/Jz30m6vl8AOUIaRJFXdEOqDt9vibw2RrXAN9++3tsTGF8+fGPf5T9X//Xd7PVq1f+y89+9nP/8vEeb7n3pNa/9KUvjX7jG9/o40dTOLXO52c05FAgZ3xrnc8PWsWNH5VTl6nGLVZAxxscip+X4M9M+dhRvgflp/F4D7vbtliYwcdT7lfaOxSUCBUfJjIWPsRk8eWjlR9onnGfe5he/v3XAJQpKyrqBQKY1I2ufmUQxA2fumHLHT63+jHxomOyOkexs4WKkucwHNumDJD4K47YDooVDjLEPVNQXMSbIo8HfPqy5/GAtwspr50bpHHKnScrpH6tZFshDac6EF/l1ODh1mQwQn6Q5Gkr3/ve90wp0ybow7Z6Du2K9qI2gxwKly9XMOnztB/AhJ6xgPbDZ5eMG8RBOIi2BfBnLEFpsyNEnOQDf8KgsLXK12FaJqVcH3rzzTdbOvzOPnLqBx5FbaXEVNBY1AGNQ7ySifUcr5nGju7gbhLqlqt633xzW/Wtt3dYnbJ6v/rqq6u33HJL9X/4H/5JnN3NIHqyIudCmKeffrrCzFVb6yA0MEO0G6ve6GTONPjOjbgVvyok5VFBEN7q4Jj6jpWORQVyMIZPD1j90ZEAip13JXR2OifvTqg8wvAJSYjR5PLRyg/0plzOHKaXf+Z9vp50sQOIijbWJZdpMBCyImLwxM4gqZPC1J22wghPR2PVQ6dTvVFnpMFgDsX2kD/RUp5kzgTy4sTu+SmR306B/NlAN3lshbx40mea/IyNIU5lJlL7IV7qn8k5bQdFyaocO7tqtB36O22LcLSTk6fie23aD+2InTr4DOwo7UOH+GRpj/F5FceYwDjBao1VOG2QNkZ8pI+iZmIZ34tfbMQ4w+4SBJ8dAni20zQYn4uwxOGRuktMHRr/VaZxRc6Y0Fil0w4ifzxbsniptR92dBYvXpQNzR2yxUR8l/4Gi7/qP/yHn//d733vb/+VRThD6EmNP/DAA6OB+rgQhsNuN9y4xR46FEB47tgxmLFiVwH1qvFN9KpN1w7LUYHx51OfsENW3OW+fPli+61bLnvYuGm9DQh0OGT5lTU9tzohAwFXwtKxNcujjPCf7or2nQ4OF3rEMmtAv97FIEv5UrYciGObHXCP+3PPvRT8KrYq53teDhdp4KZuFKfqhTqjLvGnvqhPZFSfmMjCDzmwsB6S6wReFtPbAel4IJ9nAm8XUl6r8MC7sZMPL5vKowgpq2iPsrFcYt9R2ek5/DPG+BrnFHz88JAjnMLjro0zRvQ7FLncklGapM9kGyXOZO5v/uZvzK1XMyYX2g9y/LgJMrQHZFDKvGLj19fIHtmqZS3kgXqJbvywL1gwxyYHKGHaFqv+ePhyjcVPvph4orCR0XOEWCxO/JtIV8eWaAm1F5Ub8O0IHuVMXaudAbWpUHvmRs63OQgZ/zOzihey9LL+KgsPxh1+nOVHP/pR9Yknnprg51MvvHAtC97qV756T7wtaproSUtoochtaz3a3xmKnGeIM+0442YWzil3FAcdkkNXl1x6kf2APbO02Ajis6sDqxw47U4joOJBVD7xEogSRYiDsod383vElC8rdEwGd62SKOfnn3/BJmD4s1JiNcWMOh6YW2t1pt0YxYEdBY5b25v1zhsIu/KgFb34Hnm8IiCbZ5K20EizEWcaf6fuojiK7AC3J8DBQfJIuUHKL/4qTyATxD4Sy5RDjMgB6ktx0HeUBhMqZOgv+FNfyMRPv2LfUvyEUdyAbW2UM/TjH//Y4mF7nPoH1DUy1LfyXBvLrL/Tx+fN4/6C+BvyKGvC46atoZhJnzzRVuCRF2Sl1PUs+BFO/T/msVHGxFOv/9qVZ3KX6BwqR4gyhnyb8P4ocvwggfoT8SM98hMP2ORvfLzaV4k/P8x4s3///mpQ4hPs/Lz22mu0ueqqVauqYdI49r47fqb63//KLy+0wFNAT1rBua3IGxUW0Rhg8tDfF1fR5J+GgJKgkt58c5u9L2EgYsuMd+fc3ETnXb4inoZvNA7N7rRbEd2yl+gc6owCxUc50rEoS8oYGYiB88033rLJF+87WaVzSxx+dD4U+sqVq+oDO4OvOiphGZxRHqor2gAKgXQ0YKeH5Xz+1GZawYf1doCb50qhOPPiTnmtZLxfkZ3003z58FgpD5UPdkzlXfXRkI+kOKXsfb1BxAcPf8UnOSlmeKOj3M0fb3ED7IgRRvWkVyr4s/VJnlgZU/+EV9uh7lHEShsFjD+y2r3hRjYOO9G3cSPHdjgmpOeCAG7aCSZ5AfJrC36DIoDnLVGMtN1AKagblb/KEzmFpU7ERw6eTMIKuCFQCxMY/dbW4NcmaONcJPPUU8/wKqca7NWweBj7wM9/sMpVvb/3r/73KSnzDltNd6gpcu5at+/I38mKXCs+OiSggnk+tuF4L/Loo4+FVd9zYfZ+MnTwhfYrOu9973vtkAwHVhgk1Jk52AUYaIiHgQN7iamD/ql2RllDADdlTv1hh15++WW7rYkVGPZXXnkj1E3FTgozCbviiitMuQPCMvhr9UcakOpLHZxP4Hzb9h3dQ/wUxNkKpJ1CcWHqOT2K0vLhhDy756Xpez+grXU9B3byVBsP6vUhKLyvM5QiQOESRn2Nsqb8qQfxkaf+6H+4jx49bm6IydrwcDy4xs+LArKlR8DOvf3cAkhY8sh34Gx/s9XOZI68YKKsuawFf85xkC55IIzagZ4FHs+Cv55dz4bpIXfKn4SaIm8rd56DOqCMRCmoJ+qaukGWusGkbqjHeh1Vg1Ln6HRQKFyPqzoEhFXdiowXxIkjXiBk40E1mBNcPMT2emi31R/84AfVH/7wh+NhHApiE9Ubttww9sRTTy6ziLtAT1pBUOJjgcJK51xQ5JMHwma0HkiBnkOzfGbomIcOciFJPEzFdjs/0sLhGL5B5NAVP4+Hcrjgwnh4joGKeJi5UT5qTCWKQXlpwMyDOiVtDsKuzk0dqX7hMfFihYYcK/Nnnn4udLax+qljVl+6WIb36dSNlAcgTtzwiQ8FE1h1P+Dz6vPu+R4KJzOFD9curpSfJ5fG4WXy7HoGiPL0MoDP/+Ar/778sVNe8lMckonuxrWkuGvjSP01CH4gKulh81MckX/SwqCAIdKjr6Gs2QZHDpKCZveMHyuhL4MwGJvSZldGeWKCbavzMLAzEWRCLj+NBbKTFyAegC/CX2GREUlWr/AmoabIS7QGZemhspZdrzHUZpCnXiQXpl3mDjEFGdolcVqQejxMEmmLio82yW7sgQMHqvjR5jA56DY0NGdCByRDu6zu3Ll7IvhVV65YjTkRxpixf/Ev/sXEb/zWb66wyDtE/ugwTRQo8gqFFQrlHaXIeSaIZ1ID0LMwe+M9HT/kwW+zc+EEF8poK3fJksX27px3sReuW2sDCcoiNq7GLK/E1EG9aFCmQ1E/tXZoPLZe1QFV3nRo/W59f9+Q/WIV2+6EJz5MJmAodVaEDPLqwOrcjTQa7QHIH8D3bm8X0vpP3Xlh4OXxQcovCp9ngiI78G7lk/av/hH7fVRclDHlJZM6YnWEPyA8xDtI3kVrggWYGGvSSzjiIxx1gEKm3JFFYXOIlDrilZa2wTGXL19Wf72FvGR0Yxqw9FiJhfhFli92TGtutQnAswDGNhD5MTxpEJb0lKbCKS4gOdxWFiF95cdD78gVrkQ+VJZAptVhrUzVZ6lHyl51Q12eOM6v3sXdFcZr2p3kOfuCLO2Q9slXCRpnMGt351cJR1oo8iBbXb58RQhuYNIYMtQXopmorlq5ZuK1116bCGmMf+pTn5r40le+vNwi6xCTW8gMYFYpciniwhnsVBV5DEcDoNJ5NjUQKh7MmTMvzNjpnPEKR2Hbtjfsp/F4J7d//+GwMlic3XTTTdn73//+7MqrLrcOXiur0GCatx5LpGhdf5Slrx86EES94qb+VF9Ap+DhIYci5/5rTijDw+RObE65M/FiIqYtd+qY9JQOSoXbnnB74Od5MT/tB2WFSePzSONK42yXRlF4H87bVa4APgRPdu6yV/lqoITgMchRZqxQ+CyLwU6Dpers8OGjwU55UZcKT98atPfWvPYgfSZTXGPKTgnljrLm/TQH0WJeGv3Tlx8/VZyCvDEpoC7lJj+44fPztrj1PJiAdJDR3Qe0LSaKaZr4pW4wWS64i74QLlfkHYF6UrmqnjyoI5Qx9Yo/bRKgjA/sPxTcp60NMrFnV/Xw4YPWHtSOOQ9F9YmoPiaPxBuoumZN/Klk2uMll1xSXblyVTWkBdE+qwsWLJoIeasGmvjP//k/V594/Kmxj3zkI+P33n9fuSL36LUip6HEzt3ovJhUNivx+PlToxEhR2PhFCPElX5subM1wwqBgQjFwI+ArLsofn8f0yJ8p51X8ucDWpcJ5U2d0L78AIoyiGZDEWG3wbPmps74nWK2cVEy1Cmfq3HKHWUDH8XD+3MUCenwPpVOq9l5rPeYrgbsFOLn+YunPGHKXgTCdBJnHtJwDdP+BuI5KDzyEN2YvAeMP0jDQTJ+eCQqO1YmtHfKg/Kj3GRq0IzlTt/hhr05gRhU47tKtropW0z6GStqJk0oa8JR1pQxfih2uSGtznmHjalnUfmZ240LuImHvPk+HcermEcOyykeVvHIEB/+QIocJ2mCmDY7PbxqYWeC9JkEcFAPRU3Y2L+Ri5P3GNbymre9XiryjsBhZED9qM3p7ggu9dm7Z3926PCBbHQkjMunT1p7lfy+vQdCXcX350zIqD/qknqnXmjHtDfapA5D4gfR9kI7NoUNAq9Kuw1hqkGuGuXmmAKnzkPexr///e9P/PC//Xjil37pl8b+zz/8g7OvyO+9996xr3/969muXTsqN26+zq437esPOQ4FEsqB9+QmF83YIIt+t7v91vg5goJ3XWyz8znCiy++ZI2IgYB3dyhyLoVYvXpVtnTZ4mz5spXZ6RG+WW2sJBkcGRQ0eMSBJgwqDCS2imHQL5jRFyLN5zt/wNDALHg3W7vqjHTcbW++ba9HKHsOxqHUeWeOImOQuOaaa0zp0Dnnz4/3ZxMffmzdaouYcxJSZAAZSzcM0NSbwIqMfgMvKoTalmuA70fwUSpyg6iIoltxImdtJMTh44FwWx4ceGbyiShtDZMfEhkZQRnzuddA8OfKUvKF7Ii58WfgY9BUesQVcmDlCSmfmAyEtPOFCxbHVXLoL/BZVaPIGQQpSwZLypH2z/NRlm1RU3q+XAHu9HlTKI/dgfSScPR/8tGtOU20frqosCgHkUC5GAV/lbFvLyo7TE1mJBfbXZwAUXz0FfUhySoskF1u5Ym2ZbJBCVheagQkj3JmQg1Ig7T0Dho/Xu1gsuoGyLIVjv/w8Kls7959QQZ/vnSIXy+QBnmHqiG/xDt/3oJs0eL4uWB8rvhqhEumaI+0X5Qz7ZP+j19o72EYCM8U6pG3MZaBWCU1e58p8vCk2cj42Phf/dVfTTz22BPVT3/602Nf+vJXz/7W+t133z32jW98w1bkN1y3OSjy6ycpchWWFMU7V5GrM4YW7UFHDaAMWO3RoPh0je12tm8ZENmi+Xt/72ds+3bTpk3WWKTMASaDJ2XJN+iAAY4fFIHXF8qUAbY7JPk8DxS5oEFCwM1gQbtlRk4nRhkxGLFSZ1sNRY7M00/b5yQ2AYvvYxfZYUZ+AY86RkYDTS12GzTo/KSjtDlAJRCGdkL6Vp+1egcaSPAjP4C6R448YsbBJA6cgtKBBxGPwgP8iRMQntO15Fky5JltcA4GMigiy24SK5xaMENcdbISid9So4hpv0xMOeiJgo7tN15xiRJ3A2A9/yoj5VN88o5bCqIIyPvnB6m7FbqRzUWtn08Z01Tm7Xq/no9yggT4Vta1NodbsmqPQHJqM7ipK/FjXXLxDt/L83VB3Hpmoht3ZVHW1FHUBdqRwE0cHCYkHkhxC/CYVDN+0kbxox1ytoVLujhwxjvuAwdie2VSLvBqjLGRyXbsr/EWyBUrltvrGt0GSYbp97RNTSB5VvUH7LRBtWWAnbyFtlvtG4z5bSjyMOM32CGHEKDPTraPjk+YIn/00cdnjyK/55576op8y6brsi1bNldQLjxoyHNdkWNSieB8VeSUAY2dLUkGLbbZOVhF46ThHjsWfz6VLVsUA+/Q+XQNWcqT8ovl2OiQscPEFVd5oUz3oAwFDR6sSunEvp0yUHD3Ph3+6aefNsW+bNlyG0RQdih1rSJ1yh3YABHAADA6Gr90UH8AsV5jumlecOMvN3mS4lN4DTJSePJHFrA6YWeANgQx+KGMeUb/vPC5XhJImStPxMXARl7YRmTgQ2Fjh7RCQZ5BEnnCc2UxK2xklC9bycxnK1IXucTXbprk6LkJL7eeDXcnQDYPRfx3DhrKKw+tyhA/mpr81b5wQ7hFqjfCUDe4aVu0fXsHPcCvQ4YxKTRNPt9ilc3Oy8jpEAadph2IYI6OnbZ+RZskTtohCps+Rbr0G9qvrrulbUKkDWEnfZvkBWVNfuiHap+0K9ouskNz4usa2qfipr0iE9t77KeEw0SGuAmr58aucgHOHd+sBhQp8jBx4ZO0bGyiOhEU+fhPf/roxKc+9anxr3z1ntlx2O3BBx/kpLYp8rAiLxV5gSIHlAtbszQUGiYzSraHaMSPPPJT6whUNqekL7/iUnsni3JHOdDo/Ls2ylWNDKhxlZgaGIz8SjxUlZWpFBM9lbJGedsp9/6B7IknnjA3t8JRdxA7KgwO1DGDCKBOdfoVqM5wq3+QBvUpUv2KyB95IQzpxD4W739msJMCRhY5noM2pvYF5FaaxKHn5Z01Shk+RFloYER5Ey9tkBU2bVKDHisYZPAXCB9Kz3giYOVabT4zg510yD+QPHlUGcT4uoPiP3+g8acYvk3JDYH69naNJ1mVPW1O9Yaf6g03Shse9cuZBw5+cnaCZE6d4pfeToYJI1verNw5O3TKTCa38Sdj47kUtsLZrUShK23aBWnjpr3RtkkXArRZFDeKnN0gTTQJCzGZpD/yK3LpM3m3djqB+iVQWtZ2a3zCCNgD5Sly/gR7kyKv1hR5NSjy8bvuumv8q3d/bVYocrsQJr4jv94UOb/jysOGsikVuQPvQKl0GgSDYGzwp60Bsyp68sknzM0KnW1ceAyamzdvtstlUBBsxw70D9nMVgMfZRu3rrof7Eo0QBlSL5QrbXZgoHE1Mu54otqtekM9cJc7r0dQpnyPzkqd+9sZXCAOM86bN98GAAYggXiIQwNDTC8OpAA+BOBBGlDInz7Tkp0zFwcPHqjHRxtDYR87diLYaSPEGc2lSxfZRJH0yDeDH7tAnNNAKbOyYvCj7ZEez6u8Ey95wU06tDn1cREgHPDPAAhPGyaMl4Eoe4Cs4jT5YKoMSrSCxp98UH5pfai+KG+8aNOAdgFUR7hNGQaoLjQBxE7dcdc47YJt7aAPQps8GuIcCyvsA9mOHW8H2hX8RsL4djzbv5/XNfEVDVkhGyEL5l6yhNcyqy1OxkMmj7RXPt2lT+GmzULkj2cibxO1folbfNxMMsWPzx8nwED513PmgbAQz6Y4BblDfFLkVVPbBitrngyTXsh78uro+MTEd7/73eqjjz4+/olPfGL87nvunR2KPKzIK35FjiLnAUNZ2an12oOGAotPeD4rcsqBTkH58E5HjYiZKSfbAbNRPllju4mGxmDNAMuqD0KhYwIpdn7oQeVbYmqg/KgPypz6sS8RQtuVMuHdH3WHDG7qky0/6osBh7sD2HZHCfKeDuXKq5GlS5dZHaMsMWkDhLc4aukxKFLfGmCo87jdfcImdLixky/k1YaUP+z8VjJg4PKHxhiA1A9ZSbNa0XYi4VjlIMfugZQpYVDoyp/iiOUSnwG78kB+4CMHCENY3N4fHpNQTICfoLhMpkZAdvxLtENxGVFn1IvsQOXNapyzINjhQapn2h6TRo1PAB7tm1dO2uE5cOBg4EdlqkkmoP3SP2hjAu2MMQ3CjsLnk0PaoLbF6RO0G9oQYZFVW8Cf9umfaSjIYYeIU8+BPHkgntg+46sA/HDjr/bqQdzy8/6YKj+AGxqr2lZ6niKHExxRkY+MjZsif+yxJ2afIucd+fUbN1Vqh92s01EONAYKLBZKfMJ3riJvDd4RaVZLuQA1EBqWNejqWHZ6eNSUAjy2Qvm2mUF+/vwFNhBzWpotd7aQuOxi8WJuogqDoB2e6mSwK5LJn4CcL4ivLeLESoMA4FAOPAYjeFKClBcmgwp47VX76UKLg99EZ6XOykIrlw0bNtbrn0GOlQvxaaA8fvxoPW14GgBpB4SHTxuBAH2K+LTduGrVSuMz6DEYsoph8APkgdWMf2dNeGSJl/T9dZTwIIAcpDwoj4qDPBCG9o0bWP8P8cWBM6YPkANeaROfwgGlLX/xZH/HYjqH5To4KEf5aTKk+qSNSanxWRbjDRNI/Kk7/Bh74KO44SNLOHYOIeSJi7M/tCPal9o5aRIPbY+JJW61T77YYXVNWNo599cjQ/smXWQJh0l6tBOgtkKbIi/A2lsY14KWMR6yamPkhzQgtUfs+OEmftyVMJEA8FVOSlPpIAvkjxs/oz5TcG0VuVbkjzzy2PgnP/nJ2aPI77///qjIN2+ubN1SKvIisIIDNEDKhUaAncZkDSV0RiurSpxZUmbMdh955BFzHz4cf07x0KFjoRMsybh4/4477rCDVnyXyySg1njaoEhmGgPJOQAr4wTqmIDxgQFEnTe24bjlCCQLDzlW6FJQJhvqTWlIkROGVTqn3Nev32ADHGHiABgH0fjeOv5EJlB6jDkoXiZvDGgoZba/dV4CYjDEjyslyYMGJvIBYdfAh520MTXQkj7+Q3PitiH+CufDwtcEQH4gls+ETTzmzY3f1BOewZiVt+Krt/EAHz+EmzgwlZ5kVRc20NbSfMdiOopcqB0iyzMZf5jsyzx5Yjg7eGh/duTwMas3LkHhMhQOm1lUobxR4rhPnGASG/sIJsR8kjaJ8qU9sbCgPV5wwYWhrfB51vyM63HnzOEaaz4fpA3Ench4XoQ6pm0wOY2XtZCm2gBtQvUOD5P25MdO7LQtttVDrBZO7Yiw2PHn+dR+gdoj7R/QXkfG4uqfuNUesQPcwOcN+LGijSLH5Le9TZFzaj0o8mpQ5GOzQpGH1fjo1772tVDZe/o2X3ddZevWG6ySrPBDeSOjh22nyM87JB3XOlkoNxGfY9C4meVicigEBcF2LqAtUba8O7r++uuySy65OLv0sovrjZDORVjiio0/DqzwkaGhw9dKNDQ0i/f8ReycRWBl3hqNQ1soalaorCR4d/7444/bIMBdAhwCYvCzASjUg7YT2SpkQoZb2+KqOwYa3MiguOERH3Hgh5s6t4E7INZnMVJ/3Ba+RRloECvG7G4/lLV/7rwyimXQeFavSLCLr0Hey0kGP+oFN3bSBSpjEWhSHGElIzvATnxAq0qFww8ofog2APEzy0ePHglxDwZFzE1lO8PYwalwzk0ct3EkfkfNz8EOG5/R50RQ2r4tkR522htE+8OfCSRuxhGeUenC43Mzvp7hNj5M3Iz3jD1x3OfZKLPUnD4qQe/Q/vWymjKCfHmTXyvr4NZzQlZXIZjKHsBTHah8geKi7vDTmNpmaz0Eq4yHODnsVv3Od74zwednn/rUp8Zmxan1hx56iBU5n5/1bdq4sVTk3SBR5Kxg1LCsEdZW8GpInP5EETCL5N3U88/HT9cY9BcunB+U+Wa7x50tVXjaRiWsBoH4LqrRIGNjVbo9aSLnEBqdOA/tyicOWHHgsJl+qF/KnfflvCphVc7qho7Pe3MUNvWDEl+2bKmtZqgPeFGpx21AeNiZFGBqAALWTgLZAFbj5UH5MlmHZnfr50/DTsbMDMi9AuUIfDkV2fWs4smd8j3geX/vBtjpi6pD2gFu5GgntBcUJW742AnDZNxefTjFwk4dW9paUcI/ciS+mmELnHGBOPQeGzvpaSsdqDwIS7gF8xrfWZNHwqCgdN6CnSH4tE8oDc9BNuyeAM/jzWK0bj+KT2iOLyjaEBxe/fh4gJdRnuDJTpng5rno3jyz/IBkeT7KTXzqQPWBDHU1Mh4/Xi9Q5EGuMhbCpIp8Iijy+IP4HaK5FGYIYTU++vWvfz3buXN7/5brr89KRT510DBoSJC5K3FW32g88ZAGnYiOyrtzHbbie/Rjx06FTjc/u/XWW7P3ve992eWXX24NzMLMje9VAY2QOKkPNVxkkC0xHcQVmLV9N8ixQmfg3bVrlw2kKOlVK+P1rgLyNqhkjRPdhFX9qA8BeKQD8MMOj8GonTIGhMlDEX/qaD0wn2mozIpAfxNSWdWrBzzxIepAyldKmrpUW8BNP6OeVN+YUprUMW5k8IOPyedY9HPFR1viLAbb4PgxFtCudm3fE8IEhWMr7LBiDJqNvJAnJosoZVbNfI3ALh6KGR5gLLjo4nWWB4jnsslFgHikQfpeBgKkE7yCOy4YvJ+ATGu0bi88v+Djkp1FCmnGvBBX7I/KM+Xq/TGJExN/f6EWPMoewq66wE55Khx8vU6qDMTtsBaKnBX5RKLI+Y68q58yneleavjqV786+s1vftMU+ebrrisV+TRAmdEgIENtxS4e75zYYqeD0aiYbVO2dLCf/OQnZsKnYXEtKLcWcbEM79DpuPjxLlQNMjb2OICIV2I6iBMxlaPslDN1xqpKAzlKPA4e4/YN7tj4iA2qqmvCyA5iXTXaAoDn+bWBo2P0vr5j3mYL2j2vtrYpSykNlS9u1YnqVHxAXVK3eWmozqhf6puwev2i1TZ2ePRhzkzQz4lPnxbiBoSFrwNm2u4GixfEU+D8gFP8oZmFQZ4wHDabayZb3fD5gRm2vlG8PAJj89zAA3o+SOUByU/P2MyPu30pJA+prIrRfXtRXgDPqj4H2EFjXAPUD8/j80DekcVEjq9UlFfFIX89J2cGqCeICTmTIYDceBZWWgGJIg9/4nOF/PCOPKzbTZGPB0WeffrTnx7/8lfuPvuK/Itf/OLot771LdtaL9+RTw/pux2gRkQDpLGp0zIo4IZP53/jjTdtQODzj6eeeio0uCP1d68cirviisut0+uHPlj5mRIJ4dVp6dQlpoPYYak7ypVb92j7EHUFXwOLZCh3BhD6O24NGKp/ATeygvy9POFln53ofqDuFVRuAm5W5JSdL1OVOby8+sEN4R4cHDIFi9LFTV0z8Evp0g6IAyUgBY1Spv+iyIkSN4o89uV4hzhxsQtHfPRh+j487Gx5s8rGvTwoFTtbgSKfO5QtCAqb28zs1XF4DK5x5rcZcIenqfMHQvvjEq+Yx4bSJT14uMm7nh2k5QA0vgPPF3z4fHTWPvLyAXyefL3hhrTi9n6Mpzwj9RRCmZ36UJ0B6hM3E3B2RigXwnH9MLue1u949lC8yHegyHXYbfYo8j/8wz9kRV7Zt29PPLVeKvKpw70zV0fwDZVypBHSuTWoYNLAony/bbvxDToyR44cMqVO5+bHPi677NLsuuuusxU6cfFOHpMBg4ZZKvLpgRUA9UCZMgiwQlHdUMYaQFSPyOiuaeoROT8YxTpttIHUjzA2iAQQn+RnLxrt+2xAZaVySk0m0ml5qowpe5Sp+hym6hFQl7z64n20Xnfx3TUnweHRHyHCobQ5K3HqFEqa9kDdZtnKlcttkk2cyKGgOe/CJ4z0YRQ476sh2pWALOnPDf6suPmskR+54UIjVua0S9oivyFAdnXnOfy4Fc7zx3M0wJeLSMBOepDc4mlFLnnJSJ7yao3O24fSkAmoF+UFwq40eTaeGxmVL/WBP32TOjt1Mipw6oZXF0y0mFCh5ONEq5KNjlWzeXMH7TwLry/f/e53W5w2QarwaUCIPz52wCRFrsNudtf6rFLk9913n31HjiIvD7t1ijhYNCNUtlPkaowefF5Go0HpUr5qtDRSfsLv9OmxbM7QvGzP3l3GY9bPJ1C6j52Dchs3bgzKfJPFwbsyFDz3HTO7R+78RqcDSV79gThA1MZ2qwPrB4HBLJ4fFcEEqjdWRP1hgInhYkDVO2EF6o9+JD/Jwge4a9ZcqK2cXRSUr9p9fMXYM6jMAGUhkntoMF74g52ypq6YGDOYU87UF6szBniUNCtnVm/IQHxWhSIgDsqb8ApLf2MiwFas+q8meZjxS4V4qx7pEwd8FDs8wpI+plbkqnvyaumN8K014wLjK348L/mmrXEGhq1zJiG0BZQ2kxWeP5YLcZOu2q3yh5tnUTqAtLEXufOgsp4qFLevM2/2DcZ+pNcT9XoY5aDwKTtPQD3peY4ePVZ/XvgoYPgQ8dBeqCuIZ+fzOuLWmQWU+M/+7M9a2uxwVPr7WynyEKWtyHVF6/isUuQPP/zw6N13323fkW+5/vpSkXeEvAGr9n61dlKd8lMDFQaH+q1B0uHU4NTBGQzj7zrT8eIPGKDIuQecRsoAxOE4ZpJ82wmPbaGbbrrJ4p6/IG7TxbzFAWCqoCHzlqBb8+yjMdDnoVEf+WXDFjl1gr5gEKBeCKMBkMETHn4QfihyjstS9/AAdvMLYSDx8JefZJWnGN+sKMQWaF2+Eb79dWM6MDFgUpCY9C0mwwzsnEngAhQmsXzmSbmyMuMnLqkjip2vRA4c2B/6EfeAR8WKjBQ5dsqfvkV/0uFFvpfmu2h9H71wIb+mxe8kVO0X4XDPnz8vTJ75kRGUL79tv9ryoPqmPmk3UjReiea1DV6VxeE2xgEhpzjJu40TDqkc5SgeiLwIyckPO4jtLk5KSUN84OW7g6/XhsmvRLLqZ2LCCXl2HmSS1qlQD5jUhV5bUG70SXj8KNChQwdD+Fgm8Mg3ixjcKGzGIiZK1CUmz6TPQZmEUedcw/zcc8/Z2PnhD3/Y0gglWJ2o2OdnFkeElV9wGSdkra7IqyjyRx99nB9NmZgVirx213rf7t07M96Rc7MbV+3RCPoHwhy1VtGYpSJvjVo7mAZiWQMaJkQ90JBpsGy5a6vo5Zdfzi5ad7Fd94rMxk0bzE4d0VGY2dMR1DkhdUo6D40XP8I2/GuTkJAFdEq35nQROlLNdi5BA9VMYHrx+DrGVL1CAJPBTW1KyoW2hR/bupJTGICM4iMsdgZN7LQxgDsqGvx51RAPH+FmS5ifiI1bo+xKESLKaUVJ3CFWPII/6TBhoo0yuaXN0pZJg1XycLZv314z+TEPvrOmX5AOJ8FZdZ0+fSrYd4XB/pSlTXxkLwxjRhwq4/yJBvqLLlqXrV650nZdFi1aEvyWhMk0ip3+wa4M5ULZNhRTalIu04XKGqgeVBdWRjV/2T3ET+F5CkPdAdxxbA/jhTv1LR7QGCFdIB5lhwzKUW0ptg/CIoMs4XhVxen9g6E++AU0bps7mu3ff8DqlXpkK5z4mWDxHT11FaI0WLMKmDuXU/tz7bAf7RjlzK4k9Uc74jUGF9loxwMQJ/nEhJgg7Hj77exv/uZvsne9613ZBz/4QZMNVK32xYdrpciRQ5F/97vfHX/88SdNkX/xS185+4r8/vvvHwuKnBU5ijz++lmpyKeE6SpyGhRlDdUal9npcwySvOdhAGYm+uSTT4aVSPx9aN4JsTq/dv01Fk98n35ZCNNQ5BqsY4eLbuqYeoWHOR5WOtPBdJX5uanIe4F8RdHabB6wAe0n9tvYlqKiDSFoUAH4CbSB4eHGL1bJBIpX7Yc2yOCNPztHmLgBQVDgIyPDQZ4GEbeGedfLyou2p3e8ZAPFHk9jD2R7dh8Iyjjez62tVN5PYydd8s2WK/2AySz5IE+Y+C9cuNgGanjsdJEvBnuIZ0c5w+fZSI+8xzzzC1uLs7lBiQMmJQpPXJDsrUC804HSgojLE1BfhigL2QX15zQf8FRv2AEyikdxzQkTF3YnKCvSAoQBKEfshFNdAOqdnUPcXExDnVEHxCNgp94Yt7AjSxrUs5Qu/ty0CFQ31IHqglU3QB5/wmBn/MNkt2wg1B/yQ2HCJ5BXCHmevUiRB6DIsfsLYWq25hW5bnZjRX7XXXdNfPXur82KFTk/Y8qPpmTXhRWdU+QVfoOWh6eSMUtFXgwro0afmhIoY3UqQAOD4oAYO6r8uZxk5HTjLnca/jXXXm3v0bnLnUNxdBRWHYsWLajHRQeKddkYIDhYQ5xn+/fQS0UOpJi7NeOgRT2qjYgEraKpd8nSRuAxOHK4qigsoO0QB2HlVnwgDvQo+3jwUp9HHTnCJz/DNlDzNQar5HjuA0UwbFuuxHXiODcgNj7hYnUmxcxATruFj2InH2rD8ZOtOdnqFavteeDFlfUiW7Ex2JM3+gJbrrwOIT0pRvyws4sFH56eiecDPLPsvQLPRNqqA0A+sCufgHJQHwaS5RkIm/cM/nmFSeNAmHDhj3KmHHlmwkgRKx7yQR1g4sekClB3KHUmWtQh/qRBnMSHW/kiXuqUutFzQ/CoN+qJ9CHGNuSUV+UXU2VhCIaFsR2BKIcfPPMOdvLXSpFjBrWPGZCryCeCImdrXXetT9zztftmhyJnRV7bWm9S5H3h+SkECphCKBX5ZFA2Qq8UubXQmpvOQMPnUM5QGCjpNJxsp6McPnLIfpaTn97kp1OJi8Nx1wYFz6wVN+EFNXCbzYaOxdbk2USpyKf7/I12UhucDGpPtBHs1LsGddqE5DVhnNz+IrAjL/jwtF3Fyelx3l3zORjmnt37suMnjtrd4Dt2vp1tf3tndvTYYXMfOXooO3zoaFACDPLEWYs8YMGCOXbCm0GdNs+9CsRPW+ZeBfgocLZU8Z8Iq3kpBSkR3GCcd7NjE9m8+fFHZuQfnzsqF/oBdoAf8G7/7L0AeSIfIg/yofL1UN4h8gfBU314vp5JQM6HHw/1j2Jm8iTlDJhQsfUNoaAZe7Q7SLyhWYVyZnJEOcUf/dFqmm1v6hAebuWBOqT+yCPQsynftFHyBE/tlUkEQAZSviHc1aCfzB5UpXhelnh4tp3btzcpchD8O1Hk1RDXOIpcP5pSu9ltdmyt86MpKHJudkOR9/VZAZaKvA0oF4/pKnIaWxpnRGOApjHTIehENG4GZ64QxX7i+En7gZbBsBqhI7Fq1+ocsOXOD3bQqYiHbU3CAzX0s4mzr8hnRpFOHdNLX4oYUJ+C2hTthnrHjwFYbUjtKLAm3UZIWGQFrcC03Q0xqNMGIeR5B3rkyOEw6PNb/Vx+wu8FMNBzII2tW07wM8ASvi8M6PHEd9wijWMNbRQFwOqMvJA/3AJKQM/F1jl57A9yxAF4TuXd/MJqm/oJURsfIl7FwXNQHgC+f37JiNc7NJQTIN8+bcpFzyVgh69x2ueR8LGfxzJAiQHkKE/qER6rbZ79dODpND9x0i6MH+pc7UZpEB9lzTgDLyrvOEminREWYFediE9YTFbZyJMGMugdPZ+eCZP0INxAdp8fe/7ao6Om0vCYkFbk3/ve9woVOQZhQgnWCto8JuhfIQ5W5PXfI+dmty9/5e5Z8etn9RU5W+s33rilVOQdgnLxmK4iF2IjasSvARq3OgF25CB1hGNHj2dvh0Y6Nh633Fmps53Ib5/TYVHq8UBcPKy0fPlSq186I9tp6fOcaZSKfHrp0y+pQ1HkNSsl335oNxpw2e7mdDgDKasuFLXfHoVoIxr88QPExwqN9sYhJRQEhD9hlBZtDDftlAEcwg8FEH/Od3nwj20ZPspZ77AJH8efOCDr2cgrqE9QHL+RdlQMtHPyanIhHo1r8ADyguL3IEwef2bRnAdI9Uf+9LzY9TyUM/WCHVP1BlQuvJumfiA9A3zqDcWGifto8Fd5UHYqE9LSOIFJneFPHWIH+HGKn/DKs+zEIzvh9RyaBOBHu+BAIkAeUliR8i4/SGVkMgNRLwXfehiliR3wvKzIU0Ue0PSOnHDo7ujVR6EEu8U5we+Rs7WOIq99fnb2FTkr8oceesgOu23csIEVeXjwvtAnSkXeCmpUHr1S5AKdh4EOf0gKno4AcfMToKPQmfn5TTrvyVMn7D06B+DYcifeDaGut2zZYoMudcwggNka01V0rVEq8ulB7UHtI7aR2IYwqV9WV7QjtSVA20FBH9h/yAZ9Dpjt3LnTVtga/AkLj4FwZETjAONDli1dusTeRXPYCVkUMBNIdn/4XFLKmy1w/JU30pWb+FHkbMUDwgDlkfzSRhmHkKWNa6BGBt5Qf1jthTxIUdjgHdoUaSgd/DCJz/PNXqs/7AJ+IvLbGtOrf/qvz5PyRbrkG8WnPGDSx7Wiph+/tWO7uSHcPD9lFu9z5zfKebZYZyhgypg0VKbUG59osdsBn4kAW+OaEFh5BuCXlr9kAGUL4OOvdMgz6WDKDh9gD7mzOJWOgAyEjPeHpzyYuz/yA2dS3DH+9oock631GLZZkdO/Qjy2Iv/Od76TBUU+Vrtr/ewr8nvuuWfs4Ycfruzdu1uH3UJmS0XeCpRHHmZCkavx+TTgQTR++HJzCph6oRPBHx2J36Uzw6be6MB0rlPDJ+2UOzxWOvxAC7fD3XDDDSaLgo+n3GNHLEZvFe3seEc+nTw0D0BTB/GQj25MB1bWE6PZ6eHRUPcnslMnT5uC5F30vv17zD0yOpwdPXI8Oz1yyr7Lph2gGGhXtAMUASaDMgM7gzwDM+64+oqKAD7+KGpAGK465TOg+fN5B8r4wVY4p4tZgdGGadMQ+UZxhacIqzFuKiR9QFvHTvumbUtZwIeHm/aMDPleOG9+Nno6KnqF4Ztz7LGvNCsb4JWJ8ac9riX10CXC05riFTHpQkmjmHXim2fF1K4HpDI5fuqkPTfguagrKVVkUMoqN+qLeuTZ8QPEQZ0SBr7igI8MPACfeFS25IWyBZQjPMWLqfBAceOGrzjINxM5oDCkg+kBT/KYkjF3TZFz2A2+gL/SLVDkVmgtFDmmPUKIlx9N0Yqcz89mx4Uwd999t63IDx7cn23auDGs0jaHzPZVQq7rp9YB5vmoyNUxOsFMKPLpoDZjNLs6FOAdpk4AM2C/+MJL1ipZLTEgs+XOCp2wdPaFixrXTKrTAHiEY7sytofGOy06irX0WQ6ViZ6p8XzhucJAEp+v4ady8PBuHx+DmwZH7PAoF4AbMOAx8OHWSkV1xWdYFndQxPaTuBMhb1lQMO5CFBQzF6Hg5iIUFDQKm8G9GuLBHBsdD0NQmMCdDMr62BEzg1rLdu3cnQ2fPmXukdGgzE+PhvAjdjMdd3oDnp9nYMLHYE9+MVHW5FfKm3YDH9JzxPqHGDOmYraG0ohlFevFFHAA5VydaBzkRAYCktNEAFhbDkGpB+QIPx4mGVxshDxyyNAn5Pbxqf2rnombCRF8LwNQyihcYOmGuKSQyRftAeK7a8KhbFDcwHZKahNyKXdk9XzIY5JP6o26wCQ/PBMkO3WlZ4L0DMQBvCm7Rx6vCMTrTZDyMJsp8GqTuVakfEM+HiZi+AXfuoy5a4Sb8nx727bs+9//fnbLLbdkP//zP0/ZVKmTFlvrmBPovcD3W+sTs+ZmN1bkKPIDB/Y1ba2HBzvvFXk3DRdYdZ9FoMipJ/JNw1SHpeMzcDAAM0A89ujj2UsvvWRbpaeCEtiw/mr7YRYGieuvvz7bsHG9xcMgxQBAeMWLySE57MRNg++2nM4WYueM9Ur5APEAOwI8H2RuOnft2fScXh7gFuGvgd2XjcJRjlL0UkAA/9B67KCZ0kRG+RCYiDEhYzBicCYN7hB49dVX7SdWq2MT5g9FJRGes1Y1LHY48MXhMSZrKGK2vzkJzra4Kbmg/DF10pi8kk89D3kjT+RN0DPG9tZcNmcS5KGvNj5hh4DKEVMK0PzC5IhngsBY0OpM5CSLDM/OcykO7B7iA/Orxamw+GFHMaOMscPjPTavLTgFTl3hJm+7dx8I4ZmEW5Sh7zXSYCJFnRE/9UPdYSr/yLEtjiw8PQOEHWIigCngR769nPjeFFJ3ERSPTwvgTv3EixTcZ1+RM45XgxkeVvUdFXltfLVfP9Opdb4jnxWn1u+77z477LZ//95CRU4FxsYRK7JU5Pk484q8eWBBGQDyDVFPasS4NTAxqOhd6Ouvv54dPXLMBv7+ocFs/fr1RgzofOITt9zjdhwDATN+uyYzKCx4kOINLcTSn81I69QGgJp5eixOWCDQKMfGc2GXm2eGBBQfZQRU5lAan3cTnrqwz3nCio6T3tQPCpq4KF/Kmp0UZLQqEwiLEmCS1sfKPYB8MMhrtYwCwJ/0WGnDU9z6NIjvutnpZuKGmzjIJ/mTMgc+70BlEd2URdomu0GMuxVIj7Qg7DwDdvIpns8TBOCR90b4aMpN+EqtLQNkxScNygU/xcPEGAVN2UPUDzeVYVJfktc7a5U34eFTh8RNXMjCx0RhK5/UEyAcfMtj4FM/2iGJzxKJOhOUd8g/h5eXnyB7agqpOwV5E/LsKU/UcDfzi0jl0wgXidkqpr4jR84TvDxFHsrFFDm3a1u4UDzBDA+rtlxX5FVktbX+058+Ov6JT3xidnxH/uCDD44FZW7vyNla94rcvyPHPJ8UebtGm4ezrcipF+WbBslgZQ00wDd+BhIGDZQAp9zf2va2mUdPHLfBnxPE+LPdDvH+kgGfrXji4J5rDWqANLEP2DvP2Qtfp5QHgKf8VwbiqtOXoSCeTF+emLgZxCk3iMGdwR55yoqyxtTqi8EeEx7hDh44bOEOH46rN96NqoyRhZDT4I6slDN26mzOwKAN8osX83OYKPKFYXAfDIM+F2zwjhvFQZ9mG51Bnpjg8R40s2120iPOtN1AeXUOYhj5NbfJ7tC6/cR0GopI6acgz1Aqq3sSGMsgnpFyRZZyDWoylPGJoHSZ0PG8nB3gR1d4D81klXvZqVO2y0/bKX3cHPKzQ6WhfiDKiTpBWcMnbRSv0hKheCFkAStq6o+8wKcvNo+/sS2Qbz07foD44MkN5IYIozrFlJxMH1ZhUuTxPJQn4O2CeN4URXczrxXxvDFMg9dKkcvtFTnvyD/wgQ9Qth0pckz4te/I+fUzFPl4UOSz4vOz8aDIwwpgj1fkVDafedYbUiyQGOadrMjbNdZW6L0ibz9Ixvw3ttfUadWQGWSszdYGMvygkydOZY8/9WT2wgsvmVJn0Nu8Od7fzsByySWXBPd1NpAMDMYDdjGuONMnbi7kmM1QecgOVN+4q7V2LZ5M4MsPPnbFpzjjyjb6o7jZNtVqmxv33njjDRvo4WmbnO1vEIJZ/yKqULT1C09Q9gz0TKTgMdgzwLPi1olw0qc+CGzpU78Dob/yPIxH1ZD3/jDIhXaBssbNXQPIyT0wGJ+dPADi5Dl8OZEPTEg82YFke4W0/DHJJ+mSN8pO+cYfKH9Wf6E8lMf0+cDpoJC5ee74cQ7+8WnWsWzXrh1hbDwQlDkK/XSoM37SNP7ut66cZWJ0+jS7IoM2uVKdqN7YBodPWtQpJOWtPEQyloUF9CvAMwONxYDn0zMCwjPx0HOJB+BBCu8pT15+KfJ4HgovtHLLjtmwN9x5BHjmIj8Ou2EPf+tyKicRivytN9/MfvCDH5gi91vrnazI4aPI/+t//a8Tjz32xMTHPvaxsQ99+Bcn7rzzzpVRtj1ibmcYYUU+fu+99zYp8tp35OedIm/XUNthtijy2rucegMXNAgy8OAv0IhZPZ44FX/XFyXDZTK0CZQOAxOXymzatNHivHDdWlMqxEVYBiXi5vOfVkjzc6ZB+n5QBKpz3KfDAI2Mz2csz0hsd2vgw5Sytt9CDitttk9xo3wBPNJDlpWZKdsA0oIoV7a6GdipD8LxDpvVNQM/YbUliywTBfyj0orKGzv5tTiDGVfGcfeMdsAP5ARRc+vKVPiSo03JzXP5doMbu55fBNL2hZs89RrKk9qv8hPzGfMqf8qTOhgOCpi8jYVJKGXKxIpdD72i4Bt62jzvyClv5AB27apQ1sRJGK2WiRM/raLZ9VAdkw75QBY/7KovzJjfZkXKCX8P8alb5JHFFAFkGnJxopXWA+6Up3CefJzeFFJ3CoX38LzUX27MSOas1638vRvCLbvnsyLHL/jWZcxdI9z0wykq8kB99qMpUuRhRT7xkY98ZPznP/DBsc985jOromx71B5zZvHQQw+NBUVu35Hr87OgyHM/Pwv/DaUiz8f0FbmUa9GAWMSfDHVcGibx8mzYqU/qkkGOFQWAx+AyMha3gRn8tm/fHugtW0ky8KFY+GEJBqVN122wk+6Ek+IhvnY/GhPzcvZAGTTaclQ8DNRSvNw1zU8loqApB54PGcoDQpGrjTDYM7tHiWPi5vkYKAhHOaEI4gC/wOJjdUY5i8eKGkXO4M5nWaS1YmW8D5ywhKHc8VcegeqWdCDkTOGHIYLxh/6JYo6rfS7b4J031/pySQsheXaUFe9nYcid3wd4LsoLqAxVl412pjFBbbg3IF3KmuclbdUPdRYGWPNXvVEXKGh2Qcgz5YAipj3zfhs7cQ2HCSwyc+fFlTRxUOZqJyhq6gE/7DrRj5uyh4ebslc7oI7VxgB5Ut4JozTEJ3/cgocdHmGRA/KHL+AG+InClMB48ktNxSeIX0fM6qRwwiT5BOShFVJ/5dvbU55MT5RNnh9ND7Pbd+QdKHKzhDZeV+R/FX+PfOKjH/3oxIf/u4+MfvKTn1xtoh0g5nyGwTtyFLn/jryuyMPDc+CNCoyFEcOUijwfZ1uR01EZHGiMNEyeBzv1hZuBABn4ECs0eFISjPuEx08DEg2fy2Sgbdu2Wxu47rqN2dXXXJnNnTM/u/LKK+1wHLL9tP0C8FkPiubMgHKkrPJN/foWP9Zx6NAB20JFMezdf8B+BpNXCygHBmPKi0OBKHFAf6eZhMc14ntpFLSUNFeNXnrpZXZJCl12+fJlQWGvDOHiO1bk2QLVz3ISB252wehrqjcNPNjFo66wxzqNskBygyEOHx7CzjPAlyJAHihu3EpPcSqs3EobHsAfyD+OCZE3ZVTbtw/S1U4Iype2S/1wan//oYP1PKOkUdbHjqHEuWCGvPGdNu2anzGNF50AlDDb39oZ0YobExAn5MsIk74C5Ga7XTz1M5W5ZIgDnuJphIUX78PHDQHJ0h+VvkD8koVC7dR8GnmGBGQ8X34yK6H8U55HHq8b+LzL7k1P4sn05MuhwQ+O0P6xd/qOvIUixwwMa9vBFUf2oBL162f2M6a178hnx++R69Q6737W2yUhvCPvr4SBJyry0JDCUFAvEMDDNqF2WpZvW88u0vQLBpZaftOGGebPNdv5C8qEQdnqPdh1OpfBEyWHQmMQpUMMDoTVeZj86ZT7BReuzS6++OJseHTYwtNeCM+gOMJkIcTHQMcgBxHG6iAsFOCPBh5QO6NzqY6ID8T8xfaHHVncmnggx8nv/fv3mYJEdO/efeZmtY1CxeT3kDmkhEJFXis83n8SL3lD2cPDzjOw+0B6c+fGU+GsxHCTJjJD4RlY+c6dy2lxDr0NBT8Gdy7ZQDGSb9oYz5dnTg88P3n3ZeQBzwasGpCj3OHz/NgV3gN/hVW8kvFufnSDsoBH/QLVj/nX6px4sCMrO/d0Hz4cfzULHiafaLF6lgy7Hyho4sJUfmiL2ImPdoAJ4LGSnjcvfkaHnfzwnMoXsiL84alOsYs85E796DfNvJi/ZhnszfUju8y0bL2skBde4YTUTXkAzy8Kk/JBHm8qKHouyh14f9WT3CIvK4qKPEyeKrFNS453xIqHtrL9rW31rfWf+7mfo2/ag/FqxcIEVzBDYVl5BVezIh8LE3JW5FzRGhT5WFDkK/DvFM1PPUP46le/aje78flZ42Y3FPmE3blOgy4V+fkBlA6dvdbfrZ4pIxQQfNzcCvfmG9vqyjyuZmjHE9nGTRvsXTrfY8Ln+2TCUcoMvBowQ4QWP3bzH4vKYyzYpVgYeDGRYXDWFjhu2qEmGMSrfEohQ0w8kGF7lfeh8FhlE4dWcigV0gPEgcJl25TVNXzeL8NHgcPnylHcg4Pxco2o7BsD/8hwvFEPgs+zKW5keKbpgHgE33ZlJw3PT4E/ecIkLuVHefUmMkDPoLiVB+z4iYc/ihw3dkhlTTqUFaC+UM74UcaY1BPZ5jAZv4iGDHWlswfUP3J6bUF6+GGyitYKmkOYpG+TqtrWNnwUOXnFrrzF52jkHWJih9sTIE4gtzdlB0WKHDTLyWzwQOoGzeEm29Mwyqvg3apLQX5FYVJ+O7STb5d/z0vJ8xv11yyLvsU8A4qcrXU7tT5r7lr/0pe+NPbNb34z+fzsXFfkBQpcKBV5AeLzx23SWD7UNW7VPYMup3/pENzlzs+m8h795KmR7MYbr8uuuuqqbDAMrGy58xOqDMLj1TFbvTKQMKgHtWdx4SZeVrLWpoIdf8IABnpkSAulDVl7DPliIH/rrfgOnwGefO3YsdMUNv7oqCBay3/FVtAoY/KBYube79WrV9vgLixbvKTp/Sf5ID2d6EbBEDd5jkq8ocx8/wDw5af+InOqID7g4ymKk3QFyVC2xMEzQT7vyDBhU37FI4xkMJUH6sbzTKZWX9gpO9WbJk2aVLENjjKXUo+KnV0aizrEGyd5pE99QcRJ3ei8AYcxUeBMFplg4QdIl3ypnWAnPuWbOCHAuQTQ4EW+/AXiAeJ708s2FHnzuCI54onyjTbhkfLkTk2Qx/NQnj1UBsD7y57H6wbtwuTlH+Q9C3ZPnqe26XnmPp8V+e///u+Pffvb3zZFXvs9cjrBO16R5zW6812RcykI9c07ZEAZMWiqPFVm/A46gzODMgqVd5TcUrVv/16THwmDKfe46wdaVqxamV199ZVhIInKZLA/bq8zgLNyHglKmJXXnn37bODHrhUcbq3MiEuKAoWNIqAtMqBHc64pbAg3W6WyE5/ksKOsUQqAZ4G/eEG8KcvSqYY2HwZmPtNCOZAWYVQGDNY+P4QH2BsybpAJEH86UFyCd1OmSs/nQaD/kl/5Sx5+VIBROQMN+gqPW8qYVTby1AF1qANlvBpBXqtnSBMrgMmECx5yKmsmBdTdnDnx1DekMPh5OZQ68XJmg/pgQsbrHPiAZwI8B2FiPPFZsJOunilV5Nz9Lr/U9PB+3l+KnPTScD5MSHmSP2jFw/T+nl8ElaHg3bK343WDTsPlPQdInwnTk3jUbcoz+9QUeTUe+Az5b6/I+T1y7lqXIh8Lipx35Gdfkf/bf/tvTZFzaj1ZkYeHD03znFLkrVFvaMpvgvNdkUs5sTLzoL4hPltjoFQ5hiZvgywDOe/Pt731pq2Q9wUFz4lslCht5oqr4oE4gp04cTwbG4kXoWj7G0WOIkCRayuVcJjwpUTgkQ+2TTXgo4x1SImVtg6eIQcfe3ym2MkxpcDIuxQWcU2E9ECUixMYykTtnvwoHlH8jEv2WG5eRoDXHvnt0iONx7tjn439FD6kvMvdyGsMR1lip9z5TIsyQREz4EnhUl62ExPioj5s8hX8CIMchH/WH9MlPBMf1SNEPKSlNJlUkRbKGYUcJ0lxUgYPeYUjHuLEjR8TR34EiDpjRX7FFVfU24MQw8ZnBnou4oM8xNMkQP6pKXi+92sl3ywb66EV5F9kgiK7oGf38LzUnifvMV1/oSjf1JkAX36y55H3n2FFHv7aZziBJivy73znOxP8+tmsUeT33nvv2De+8Y3Kzp3b35GKPLdxlYo8F1Qv9S6FRD2rrmNHj3baAe7x2q+vyc0lJBxQevb557MXXnghe/PNt0N8WXbhRWvsIhPi4t36kbDC5gINqoboqQ3k5s4fMmUsxUzbIxxb4LoIBeKEMabyBzHYoyCUXxSN4sAPBYCJ24dj8Ibgk4+owOMzUhYa3BWO51QatRm7IcbV3NYkF8uuoVSL0dqfOATF3chLtJNPwLOSf58H/BRHrOeYJxQcynn/vgPGZxeE7W/qCmWNH6vgw0eOc54ohLEoDMRJuVvZD8SvIrCz1U1dopjjgbPmi1II58s2IkZM3skbcuSNVT8TBZ6F/JI/rhYmLhQ5r3CIH1nSAPhRP5ikQ7h25Z/n78tXEA/T+3t+Ci+b492ENM5GuGa+4O2dwLejdnYft/fPQyf+rfKt8hcfU5S68/gzqMj5/CxwWipyfjRl9vyM6QMPPMDnZ9nu3TsrW66/HkVuypsO8I5V5AWI1XX+Qh1NJB4DIe2BFTlu2oEGXykM2RlIj504Wf9RCGjv/n22Pc42KKumebUtcLZDSac/JGWDf1DWKHFkUMTExwAthUC6DO4Khz8mPPJQHY+f0eG2eGvtmNUhPACP59HgLpg99Ft+/hMgZ20/PK/akMoEiOfNin3WNrmbiqdyKkYjP3kgj3npCswjSAuFhgLmueVP2tQFK2r4ktFWN27JUzbwfBnBZ/JE3ahcSYu6kJKmfRAPYeAhKznVG3UGiJv0VRfY+ZYdO3lU3ZI/JhLKl+qPicXp0+OhHc218xikTxthB0bKXHWuPPjyJz54sgPfHjwkJ8iNmecnnuItkvOI+ak5avDhUrtQZG8F5Qt4O0jdAnEX+Qmd+hflOS1//ETeLbmUf4YVOStyTq3PDkXOhTBf+9rXuMWrUluRv2MUebuGlaJU5I3BDcgtYhzEhK9BkfYhHiY4dTreRsagzrvMx5543LZD2QLl17YuunCdrbAZaJEZ7O8z91AY6BWPOh5uUZoOeVD6DO61/mjQihxlgh+DO4pKykVhkcHf2rvbRicdeJjKC3JA6WPKbnlMFDE8IJn2aA6fgrIiT+QDReeJtE6PxkkVyo9VqxQifoRhEOM1CErT5EN5aKUbFXGcuPC8KEV41BEmxCobN/Kkg90r7PC/7kdeVa7kQQoeHib1g4LGHx52djMJT77wJy+EA0z8kMOfdEmTlTpx8RoHefLP7o12dHgGeITzIF7i8cjjyd2Kn+cnHnGCVAZ4XkPOjDp8XJg8k+DDe7tHEV/pyUzh+UVx5IG67BSKt+g5vH9qpxzEA3WZM6PI7UdTZqUiZ0W+Z8+uSu3zs3NWkbe7WazETCNf8YyHgYC2cjoodN6Z/+jHP7Wt0F/4hV/Irr766mz5svgOmz5COxsIsgweal9TR9zqJy4Gb8VJWtgtraAEsMtPfJML4eUHCNfU1kM7l5/Paz1MGAjGqjEuiHgVh5SJwuEHfBoTQYRrNlN54saNUqM8UXSQrhlFGbMDQn2gqNn9gKe8AsXDqhiiHFhhM4FCSeKWsqbPkxY8jQWExQ2Ud/mRN9lRyJpAEAcDJ5MK8oMMfOUf/1pU4ZmzsJrmR17iO3LSQ1mzwubmQJQz5YJbZy84uc4EET6X+FAel156qT0fYS+66CJ7JtLiWckDfuQPf/LDBAC7Jn6qCwG3KK/OPFTGwPvnyYIiviB/mcQP8uKOZqO+vYyQ8nz7AKl7qiiKtzmvEam9lUz6/J6PvRr0D2aeIjd+qG8mf3mK3PKou9oLFHkwudktQ5HrZrdPfvKTY3ffc+/Z/478wQcfHK3d7FZX5GqQpSIv0Rq1ek9QpMg/+MEPNilyTg3TzqTIJ7WrLsHWrI+DPOCOaUVlaO052BmUsQPc2MfHGoO55DGt7YfBAbvkRXUEJd43GHcYTD4Q4SEpRORJFxN/eCg2lN3xYydDJJX4LjooY0z8AGGIFwWNEiJ/8JAhDpQfikiX2ZAePCkrraiVpgg5SHLkFTnsAulCgDRImxU9AyL5I72YdjxIJruenXwSv9JHkaJUpazhkVcu0mF1Dx8e4Ygv+jV+UlV24qTcUNLIcdgSQslTTuSD3R/SAqza9dzKq/JHnOQFN8DPAzeEjNzeFFI38Lw8/yL4NFK73EKD12iPqQzI4+mZWiF97nZI48wLL3saJ+4invh5dnPXVuShldd5tJVpKHKSCH9MkQfqY0XOVcBS5NW77rpr7Kt3f21WvCMfrf2M6TtAkRcV0dnN1/kGLgahraSK/EMf+lCBIp/c+acC4mRglh0Qrwh4JUUekWcAR97aupOFF/MJL5rieYh3OigI4iBOvf9FSWAygKB0iAMFKEKpwIe4iQ45fW5HOOSJD5MVJWFIi7yTFitVlCMyobeagkMh+vfZKFHygQzhiEtxy40fEyGt5EmDPLDCliLXszGZYBIRw8TyUxhkvOJGMZMfCKBoWfWTH5UbsiJ+eREQH/D5JW7cKGniJazAyvzAgYOWH35ljjLU1wuAb83JA+VH2RAPhxMVT8x/o95xi8RTXKnZQJT1iDJF8vk8IU0HU+TR4MU6EC9FHs9DzzpVpPG3is/LpuFw5/l7fsozd6LIqeNoxnYDTUeRh/5l/KDIx/n87NFHHzdFPiu21rUi9+/IeWAe7FxR5GowYb5k5mSUivxMoqUiv+bKbPnSZaENRdmJ6pj9jvl0BxGh3hZC+rRTuWXHZLAHaue4aecoCyC5eCd7zKjkFG9kBjMM/hNBIdh35wODQVFwyvpYdvDggWDnBzXmBGV4Mtu1a2eg3UEpjgQleCI7cuRwWFEeD27ea8fohIGB+A28COWH8kExAfKCAoKHP/kh7+S3kfeGQvQ8iEkDq1kUIm7CosDjvfNHjA8PhU0dCrXiCXFxV3m8slYTB7bo16xZU1fcTDC0eo5h4uFE3FLIKZjYIac8SxY7ZQ+h7NOJBSD/g4PxVDwXBfGqATlO36PUOd2uLfnLLrvMyo4dDPJLeQC9owekKVO81ExRwA5oVkxCUTwC/mmanieIJ7aX9UjdMw3Fr7ITUne7/Hl+ysNM/SHqVVvrKHLc4nM/ACY03RU5/LHQ2aXIP/3pT4996ctfnRXvyFHkoeHv7guKvBIUeSyU8GCzXZGnDWTqilz+ReFLdIZYjmF9a23l9HB8p/ujn/ykrsi5+W3FsuWhDcX6o21FRY6WmNny1+Df6NBRSUhh07YBvLgya7gtLAq6pigAW94oB5QGxCd0IyN8A4/7ZOgG/aYMjx5lW5zDWgwyxMGtcJzKJk9sR5Mffr98fiC+iY8/zoGiIY/kBQWJHWLFrVU3fkB5BvB5PhQwylKrfPLIqho7fOLCxI2swqlsuB8eeSBli0LW+2mUtfzID3kkDkxW2UGk7o/CjWXaUMzaFVD54yekzwbh7+uNPKsc5I+pMDwXabNbwLMzSeLdOW0Qxd3Yco/vzoEOXfKM1KHPk9LwPCGfV7MEKGzEZFnQ8Fe7b7Q14NP2ZiNchHhi58mAvHDt0IlMHlQvgtw+vrz8iDw8L88UtXtHjn06irx22M221ms/mjJ7FHltRc6p9SZFTmfp7++z1TkKOhZIbHDxIR1KRV7ClXGRIq+/Iw+Dp7Wh0F5QbCjyiOmVf2yzsdPSNiDfVr2b/GFHcUFRvmKr0FNBMQMGey8TV6tjtt2MG6WIUkKB4D5+Kt4rThjiJz+YUlA69U28KDWUEgoGRYgcygRgh8gTSpl0pLykpHGTDulJSbPKhu8nG/IjPtJByRFGq2Xs5Ie8cSc5spQhsqys2QWQIteEQuEEhQklbHYIkBeAfPSPwJ9nEfCHR759eC8jKG38sAPsCoed8sHk1+Y4AAfh5nAcn+Bxpz7Px30E/K4+4cjfwoXxfbriUZlDQOkB5VFAJix86rIerAiB92sOr3gbfUj+mF42dQPxxE5l8uSF1M+jlV875JWDR14eMEUe4hFn6i+38YK+xdTWutlDnU1TkQcP+xnTIBJPrevXz3hH/pnPfGY8KPJZ8etno/fff3+2f/9eU+Rbtmy2Rk0jns2KPK+hdK/IU35R+BLNaFHPoQ3ErfWBwhV5qsgHQ0eL9Tm98h8fbShyKToUJwM/gzvKC8gPPh0bBTg6Ppbt27s/23uAnyyNp8Fp7yiXeBXt4eAOeQ5tjLySDkpNW9soTH7PmhUeCoK0tFJFWZMm6Sl/ar/qV8oPpoAM6TNJQCkDLmlhZSlFjWLGP0SfhSI3EDXRDA013pejrNleJg3yptPq5JEtcvJJWuSPdGP/b94Ch8czk0dk8aN8kTeqPZ+PAxN5ZFO794ewA7nFEx+Qf89Dhnhklz/2wDE3dUN+UeIvv/xyUOhv264JExdeB+hVwJo1q+rPhKn0lU+ey0P+giUZ4HlAinwymvl6Ry/EZ2iYAHvqlim2l/GyQp5fnhwo4neK5vLJT092b0KEld3Dy4F6XYXxBFOKXHy9I8c+HUUezLoi12G32udnZ1+R33PPPaMPP/hQtv/A3sqGDRv6WJHTYGm855Iixx2GkJorRVG+Un5RhyvRjBb13IEir2+th7U7W+rN78g7qQNkyIM3w99a+zx96nR2/OTxbPT0aFDQo9nxMGgfOnIoO3UiKMSRYTNHxkaC4h/PTp0+ZXKhoWfDo/HE9dhYVGIoPxQdeaM/oMQY5Af6A38oKPI580150/7HxuNnTPhLDiWieDDpN2ztMknADzfxoojZCYBICxmUNHnBLWWEHT7PifLBJA6U0KJFC7L+wXgxDjyUNQpaEw348PRMQHkjr4D48EMW6NlJHxnFLROeysaeL9hxC8gQJzwIt7dDADdxKA0I+LAQIC8+XwA7cREOO3nBj1/DIw7clCUTNsqYnRXeoe/ffzAM7LwuGQ+TnbnZxRdfGsojvuOnDkmHsILykI/J45FQpMj1KqeBRr9S2fhyAqkbeF40cEe+h3c35JtlQJ5cJ/CyeWWVxpWXDmaeHKQ4vSxQPwjDjpnBVeeZO9i1KjdFvu2t7Ad/9/0pKfLQHkyR8x35T3/66MRdd901fvc99559Rf7Vr3559I//6FvZrl07Kus3bezbuvWGmg8d3RpgpX8gFqIadXxIhzOkyPMah4e9yShxltCo+/gOuC8oSRT53uzH7rDbVVddYd8F04QqQYmjyJFV3aqdMSgzGUCpDQ3FH8Q4UdvOHhgYDMrvZPDjZzJPBJ+48mKQJuzIqZHs8LHDZo5Vx7ITR09kBw4fyMZHwsp87HQ2GiYY8AcqQXEwi58IHT60ccIyiKPwsGOiJLETPyvtqEj42UyUNVvvKKH4mRZ+PAumtt5xA9nJI6to3MQLj7A85/Hj8ec98WsMQJGQVZ68Qma1LYWN8uHAGHLY9RzEBamM5U6BrOBlUlPIi2Mq8HXvUeT2fG/XBABeSoAJFGVG+XLKfefOXUGh78kOH46X58yfHw/DUabcQqjJEm5M6pr6UV1wsBFEe7wGOE5OY3oqH+4HIG+qi+Bj/BT0G1+msqflnPK9GVf1Ma/iCQ1780TK21MU8UErP0FlIfgwabqUcR4k4808Xig+M/vDxMlkgkIgTqs7lnn9A3bOZefb27Pvfe972btuuZnXfUFpxzzmXAhjbClyttZDHdZ//QxF/slPfnJ2KPL7779/9OsPPZzt2bWr79qN11ZKRV5i6tBAKkU+ZivyZkV+VVDkbK2H5hLqMyryWLeEkTKM7riqRWEy0HL1Kx2RQZMtZgZj4meVykC5c+du81NcmHFCEFeavO9lsGWAxs72MoM0IJ0lSxbVV9OEg2cdmwwGEB8kO0AWOfLHdi3hsLP9zcqPgV9gNUBe+cys1rcsHvLD1jbJkBZ5IH9MHOAzmUApMwEC5Il0CIudfkm4iaAx4AN46q+C+i2m7K2QyqgcitAuzrTsQJEdpG7QSl7PLj6myglQV5o0kVfKh/MOnHLfvn1H9sorr2XDYfI3NGfALpNhgoQM5U5b4TUQ8SmsyptygaztJYrcaNJOYVH5N5dvnox4qQlUPw2/Rj68GUrG/uIWeaRukMcDRfx2UDgfPq99FfnDnxRH8MeOFErc7MHBOGJ1VBmsKfKdQZH/ta3IP/ihX+hEkSMQ1Lf9jCmn1vXrZ7Yi/+rdX5sFivyBfz/6wP1f49R6ZeMGU+T1dGaTIlfnaIVSkZ9tTE+R064YaG1lY+64Mmd8fvONbdlzL75gnxNJFqA0pXBZKWvFSvq0V+zaJkUmysXvnElHfAZhtlXhEY40yAuKV5MDtmZRxigC3PgpfcBzE0bKW/FrACId3ktDpIE/Slwr6tHR+BkUfK2oCY+bOLADPb/iBfDor1Jc+IsvWS8vf4+UR1gPH34qID4fp+x5PI88HkjDp/F4AtQb5Q7xrPDhUa98Injw4OFs37599i5dOyrUwQUXrLE64vlR6LQdKXBAPBSd0klN0sor7+BTMyPyZRrw/rJ7HgoLFCnwhmxzvib7N9COl+ffDml6qQny4lV5e3lvD9rXTKT6gqqK/nFBQNhUkd9yyy3ZL3zwA10r8to78onHHnsCRT47viO/7/6vj953373Z/gNBka+/tnLTLFPk6gydoFTkZxszp8ixo8Ch48dOZD/5yU+yZ1943g6e6aAWq2nfFhcvXmorWa2yaa/YMYkXRRgPhsVtTtJECTNgx8NtcftVihsTRa0VP6s3CD/ySJwoAuJF8So+JhScgF64kOtO2faHPxrytizknV8FW2J8Xhkghzyfq6E0BJ4LIk4pZ/U/gB9l7GVUFOIJhEOW5wH4C7Ijj4wPl8KHy0OrsIJkML09Rau4isJ5N3ZP4gHKinryfNy8R0WZ63Q7uz7I8hoFoMC5ApYdEuqeyRc8tRnsITaTFXwalG8zisuzXVnn1eFMK/JW7qIw7ZCGaxent6v8vJz3DwLmRipdkZs9KHJ2yXa8tWPKihx+7dQ6ipwLYUZnzYUwX7v3/mzf/j2zTpGrE3SKUpGfbUxPkUvZ8CtatLEwhhr/UBhcwww4271vrw2W119/vSlz5CGLK/zh8hJMEe01xhMPUEF0ZAZeFDFx42ZyoNPf+rQMP+RHR2OjCuKWHw6V6bQ3kwROPev6T+TnzOGnWBeHSQWXpfBb36zcWH3zHpWtWFbv7AqwSmAyQZmRX0umnvfGs0W3+oJMkNolK3nyA9I4AO4U3j8P7cK0Cy9IDrNd+JTXSj71k1t28k+ZyE35Ani0Oz5Xi2bcPkeZ83O8fIt+9OjJoMDjKXft8qxbd7Gt1JkEcGCKdqW4geLXDYZ55VcEyfowihfk+dOeQOrnZYCc8L3MZLmi8MVhUuT5+/B5JsizqzwBvDScVuT9mDVFrhW58fuG6ivyv/mb/9qtIscchy9Fznfkn/zkJ0dnxRWt933jq6MP3Ptwtm8XinxDZevWrfV0SkVeojvE+p+qIhfQP7Qxneo9fOhI9p/+03/Kdu7ZbQPnbbfdZiaDLuGGh+N33hxmYfXM9rcOlBEPAzMrKLZQ4UHkz/LotlAZnAF2Vl1MGlD4KGzcpIUMJCWJUo9+cfAnTsJoG1xy9B2/NQ7JDxAWf0z5Q4KUC/FjeojH7oDsyKdx4AfS8ILPDyiS8/Dxe3nPFzxP9nY8IU8OFNkBbhFA0VLGmsTRJlDCgLJBDL5W60zqWJXTlpjw8VqHMsZNnXOxDG2FsLxH5754n57MYDO7yr/Bz4fKMTXTcGn9dKrIyQ887+/dwPt5eH6RDGjHywub8lI/kXfLDqTIKWW/Imccoez91voUFTkrch124/fI7UdTun1HHmtphvHej9/2uy8/82Tl9NFj2YpVqyoXXLAOtpWMfTdLmUSz3hDjQ3rU3LUCmSooLmKy2EKjlb1TKnG2ofqPHWJsPG5Hc5CIw192GUwY8ObN41tk1RkdziymSFB4HAaLA1/c/j49fDp75ZVXsmMn4o1dKFKU9YED+005c+iNz4n27eO+7QP2nhNi8CV9vdtGaTPwkjfixc72KKv7Sy65JCjlBdmqVSuziy++KLv00kuCeXF20UXrauZFdnkIshxCQ27ZMg7LxdPiKHviGxgMijR0EybBA4N83jVoq294nHJmZQ6fvoIMK3j8ccfVO4MP5RfjGBxiUjBgYfr6w6oirPwwIetv1udC2DDoUF6Unw1agbCjtCDfd4sImZTXDkWyUwkvRZUX1svJLTPle7uAnfoBUtSUDwRoe6dPc81rXL3Jf8mSxaGel9cnb/D4PJFb45gY0MaYCNKO2BHiEaiHqFSjAod8XlKEqYP9DTVg7jTfrdDs31pWaIRplJUPK15qCrhFcqfICyPkhWvlLzPVP5iyAz4hxd0HP4hG/1gf0d5v48exoOu2bXszW7duXVhYXGkyMYIYH84Yb2M8q5l2s1vQ49lrr72W7dixs7pp06bqI48+9v+rCXSEnijy237xXb/76gsvVU4eO5WtWrHmrCpyxaoOXeJcQ6Ph00a6VeTUOysmtjgJz2dmDJ6nTp6yizz27OPb3wPWGV999dXs2WdfDB3q1eyNN7Zlb4dZ9r59e0Jau+0zLhQrg6viRPleeeWV2fr1683csGFDdvvtt2c333yz5YudgquvvsregfIDG2yX6zIXVuZayWm1TV9gUGeAx98G+YGoLOBJRnIQqzjkIOSQkVIhjvjM8bAddsJO7muh3AIPQk59EqAI5E77EGkqPwrfikCe6f1bwaef5gXkxZEnlwefh9Qu5NmJn3IAnqd0qRPs1InqANAOqR9N6Hh1wsqcCSTfovMJJMpcBx8bk6c4ISCeWC/Nz6d0NW72BUXj850iz8/z8uypKbSSBSkv9RPJnSKV90jD5ckW+eX51/myG19+mGrz/Tb5OnbkWPbmm29MSZHDR5Ez/uzcuWviuuuuqz7yyKNnX5H//J0//7svvPxG5fCxk9ma5Wsra1evpdFV1MjMHmb7NGwQC0QPJtTcXSryekOuYZrzgBJnHY2GTxvpVpHHU+r1dhfaR2wjrMiZAR8NK2uUOAoRuuiiC7Nrr70mu/zyy8zOKnrTpg3ZDTfcEPjX2o9j4HfFFVeEFffFtupeupTft+bQWTx9TDqYtG8UqxQ2bqgxKDcUsif1hximoXgx8SecCMBDVnI+Hh+fwni3TIBdqPu7FZ0PC3B7Xh6BlKcwaVgfX164Ip5H6i+SX6s0Urcn+XlT8HJexuyVeGCwMfBLJm6LU29MBNhloQ2tWbPWdmUAW/Da9UGOXSAupFmwYKGFj/GARpqA9s0xCdJkEgD0zH58hCe3hamRdyPj0UgzIg3jofSK/OVGzsebukHqL0g2JUF2b3pSuUDy92af+pvJKDxlF/sVEyVbkdcUOZOyq8LkPTydhUfYwpiVvyqDGD9FEOK3kmA8Coq8unHjxq5X5M21NENY0Lcky8a5nSo00hovQE9QosSsAase3o2jmDnwtmXLlrq5detW+y4Uc/PmzVnoYLb6hlDq0OrVq+2aUk62825bK+eohBtKG/JKPSUp39TdjmyQaUHtEAem5gHN21OSn48/lRG18mtHil/pdUKdplck1y69onDiC6m9FdH+qG/aD791HieKl5up0+ys1PUJW7w9br+t1FNFqJ0Z4J8FORQ6aeGPG76QKlgP/ETeLbvg7YJki0gocnu+t3cLPat/ZoDb84rkhCJ+h8gNPJ3n8uiJIl84uqAydCKsRkbCYFOd1sOXKDFDoKlPbu5sd6PEt269MSjtm01Zs8q+cN3a7KKLL7TtcxQ0W6R5SlTb7doOR1FjQoTh/TZXr0LY5ZadrXNR6oZII03T8+SeLjFI5dlbkeQw88j8OCCUQ7zuxbQVa46f/Ovx1MyUUn9vesqT9/zU37tTWc9rS1lYuQVSOMUhiod/4/Z8XJkPZGvXrrZdoHe/+9bs1ltvtckiq/O3394RVn2vZ3v27LJVYAwfdzX5eoFzIKwU+bKB1Tird7URnyeA8pBST+F58XR8HhUr25kkxeuRultBzyuk5dAKnchMA00P0c0z5aEnijybqFSrI6ERhQo/k1vb0y2MEucf4uDJ512LjKSwGfxYKaGoUdJaJWNKYUO0Od/u6PwaYJHFnpJkZG9FRTJCnt9UqJO8pJQ+S0qd+qX2bigN4+OTmdpTUlgfLuV5vtzieTPP3opoJ17Zqk5pW7Q7rnW97rrrsjvuuCO7+eatdjiSU9Kc73jyySftvSpu5JlQEpaT87RJ2imvldRG8VO+cNP2gfxFKU9I7Z2QkGf3cp7y0I5f5C/w7CpfkOfOM1P4cEUyAYUeBZC8PUSLeAvRE0VeHRrPsv6RrL8vnpzsJVT57SqyRIk8sN0I6YAYnYiBToNrfWWYrBZZLeNOV9AQ/qw0OTmsAboTKkKebCvyyPPPI8nK7IRAq+frxE+KLPUXZE/5AjyrpxrJ7fmel5LiKHL7cD6+PP98HnZPzbIoU0z7ImGAsogr9PFx2uVoUOZDYUW+Mrv00ouzK6+83HaLOBNCW2W7nS8q2HLfsYM73vnigkNyKOiYFvGjzEVxmIz5YvUut6dmXhxj20EymJGa348LXq4V2vn3ApSXTE95KOJ3C8Xjy2oqcfdEkbMSCU0zNJwao4EzXzslSrQAK3C/wsaulTTQ4I2y0aq8ruSdnzfpiDJbEcjjQ4q7XTztkBfGk9ANP+VNhdJ4/HMKsnu+7K2oU7mZqCOZnjzPy6ckGYDC1WSSdsRqnPfjtEnctD222Dl0+d73vje76aab7D0678xZnT/zzDN2yQyTUsISht+55zcF1C6VDuQVpZSIyPOEIr5HnnwovXoY8byZ2ot43p3C8/L8hSI/6kLwdsHX2UzDxVuPPOSz64R6osj7x+dmlfGF1Wx0Hq7IPItge3+qVOKdDT4d0SUeNshV449U0Lk0+KVgQNCgILvnqXPWOmghvFxKnSIvTJObi5VaEBNuUeo2cvHnkdApX37e7uHlPLXzE/L4nueplZ+nFJ7v5dpRVNwo1caEDwUN8aMqEOck2M3hJ2yHT5+0VXkQM+LdNO2UsCh1vth43/t+Jrv++hvsLAer86eeeip79NFHszffeMveo8e2Tbskbb5sYBWOcm1QVAMNavBIs7l9q417ezMUPj9st6RJh8yU3w4+TB6ogxTi5fn1CiEtYPaQ1/YPliDW1gyjGhpOpTKYVSsDwdGTJDpCX9fFUeJ8gwZSSIpb/UhuOpg6GZA7DsyNVRfhbDLQYpARH7NIxkNyReTh8whSdx6Ud0+eL+TxZZfbo4gPPD99BkHhJevtecjzbxcGSEZyqVtI3cDLef/U3o4AClorctqU3pFrh0ircgge9xHwtcQVV1xmW+4c2OSQHP52Y9zuHdmOHTvskByfrXHynXZJer7NFkH1gtGwt25/EWzDNrZivVyefSZoJpCWRauyaeXXBSySJP8h6kr9M+1u0BMtWxkIBVwZDTo8EO8KQ5YnUZCz7IZCkd3zstqFMQCFLKpMhEmCI++XkpCbfodU4p2C5gGmseXCXdijNrhptQN5+AGDTqyOnK4SPFI38DzF046UnyLKC9NEoSO0IlZ/IvF4xy/Se3/xJdOO6nHm5ckRCkp2PY9/NpWV4O1CHk/Az5OQuj18fSLj86UweeG9W/Jc4AI7ehFnJB8es79v0KgvLH7YCWEBVJ1ojg8QH8T9+nqnznfn11xzVfbud9+W3Xrru7ILL1wblPeR7MUXX84ef/zx7M0337S7F5R/7T7xjLj1vDG/8SCc3AA78gB57PF+f/hMPogLf8JFu36eNYI0iKeZ4MtP9sm8CD2/8ubt7cgj5bfzT6F8AG+fDpQW8U01zp4ocn6VqZqxJRQvI0iQX0IOviAZE0qU6CXSTlvUiQW1z1ZyeR1SHdVTO3QicyagfPi8d0JFkH9RGaZ8H1devIov9fPxFNmB3N70JF4efLqpCeSfRylSfjs5KK7U44qdy4m4TfDGG2/Ibrrpelu1c48779Afe+wx+510/RDL2Fj8XQGv4CHs8E+fHq0p7aj0MTUJUB7ExxRFYOaXYWrPozx/IXXPBDqNb6bT1UQ2xFsNZVtR+XeLnihyHa4gQ2TJv3OuE/xWFGRKlOg11DEx004qt+9YksuTnwqsj7SgPJlWaOc/Hfg8aPXmeZ7y/Nohrzx9WB9Hqzhb+YGp1JvC+LDYlVZemnLLT2WCKchPJBS5PQmqC8AnaFwHHK8HvtquDOV9Ovx4I+J2+0lVLpXhxjiUPO/RgRQ1cTMpUJw64Y4ZXEYUQx7JryHX3F86JU0OQOrXCr5cvL0V0jiL3EXmdEB5A/Kq9oHTmF2gJ4qcBySDYcY3/Sd1mImCK1HCQ50d09tlqnO1ohR5vBRFYQX558mlfnn+nSKNJ6V2yAsDpX6pW7yZBmOEyKPV2CG/1OwErZ4jLx7J+3LwcaT8IpKsTE8spHiPjvLmlkJuJuRbdFbnvC/nlPuzzz6bvfTSSzZOk0+FxY5ih1CmfrXt0wIKmxKQ6eF5Rf4i7xZSfp5bvE7h5X142b27F1D5ajJWG2+6TqxnitxX+FShghSVKNELqJ2qzXZCHp7n/YrkWvHz/EGeDCSkvNR/qpipfpfmD6T5a+XXDu3GiFbxyS818+D9iuTaxZPHhzdVUnh9qkY54ObTSgiFjhLnamF+ZhPlzrfonGrnUhlOunPPN6tzFAlxAJUnJtvwkFaQ00FePaU8n3YeCd6eIvXrRvZMIZR1qKqKbanXyje/0bRBTxR5mGXYL7rQsKaKs1WwJc4v0E6LTNmBt4PUHxTJF8m24xeRR55/N9QOnci0Ql56eXbvFvLsXtajiO/h40iR8lq5i/ww80h+HqnMVEmK28fJKg8w/p4+fcrc3FDIrXCcbo8n3NfaTYbc8c6Jdi6VYdudS2b4oRaUCuHZYicNFDzpEJdWkUVjtPiS8bIygecLqawn8WS2o1QudXtenpmHTmRagEYwKaDiou6AXnV0g54ocjKiGVwBWpbCFAupRImukba1orbn+RowO0Eq1ypsnmweFEcetfOfacpLr4gHUnuen+f7k/D+1HzHJ+jbpJH6pW6PdrJQbWvUb5PW5WT35CG3N/PkgPeTf2qyykMRDw5yup1tc1bTE0F5Lwqr82uyO+54T3b55Zdmy5YtyU6dOmH3uD/33DPZq6++nB04sC+M3yO2aice4uR5AH3BUx4vT+F7/6mS4hFSf1Erv5Q85PZ+7czpgDggypcJExTKrfLHf/zHB2siHaEnilwzuVDxtKiOnnYmCqVEialAncm3Qc/zfJDHmy40+Ap+UBblIfVrJ98tfHx5cRbxUn6enODlvZz40yGhyA5aufP8Uv+UpMS9Ioc8JCe7/FNTkIxIoB0Sj1bNjL369hzAQwZlLIWMX218tl9c41f8brzxRtt652IZDsFxIO7555+vr9C1SlTamMq/+oL6hSfBu1P/dm6PVCa1C3m8qcCn0SWaK7AA1Fsoy2pt0hOsdYXeUXihJ4qcCmY1nj48mRSB1B+356X+JUrMNNQe1fY80bnSNgvk1kDmkcp6FPEFhRUpfu8WiVcE8j9T8OXRDdI8yp6Xd5/fPH/B+8mexxO8f8qX6Ullq3JOobIQFE6Qv8jH5eUE8VuRwntisEcZS4FL1gO+8iB58eQPb82aNXbKnS13FDvKHHBT3K5d3OG+t+liGYWnPfg2QTp6buDTl119CncqD7w9hWQ9CT4u0vB+efCyIvE85YG0RNMF6QLKA+Am3rvuuitWQofoiSKvzSjqmRNqBdPx089EQZUo0Qp5Hda70w4OUnkPLwfahcuT9SR+EbwcSN0zMego7FTjKArXLl/y95TC84vsHp4ne1p+guxpGE+C7J4HUhlRHry/p9RPbpmQFGOeu5UfK3i18aVLl9rqnPvcN2zYkF188cWmwPmFtaefftouluFAHLIiP8YrHqD4JScFBQEvCyQnyC5+6pfyU7MVOpERfBpCHm8KoCCsMIiL8qiVUSXUSSykLtATRR4Q8la17QLQF565Trgdr/B2tppciRK9Bh3Jk3hAHQyCJzOPPPJ4wMvLvxVPKLJ7FPEFP5B2ijx5z1OcncabyvnwKeVB/FSulV3wdqHTsswLmyIvTYDbUx6vUwKpkpY7zywiLbZ4ThF8Trmj0PkW/dJLL83e8547gnLfkC1atCQ7evR49vrrb2YvvPBStn37zqDUT5IbI+5X5x537nPHPTo6np06dZrs1vsPIF+klfYjwbu96cnD87yZkvgeRe6UD+CJhDy5buHrC4Ry4WIYs3eDnuhKPTCVhVIuwPRLoUSJaUJttYg88vzbkeDtHnn8NJzc3j4dMGho4OgWCjfV8O3g89ZpGkVhiuLJk0kBXyTkyaYyQh5fvOmQBn1vx/R2z2tHbK3zTh0FTjjehaNI+GSNi2T42VQulrnyyivtkzVuhduzZ4+dcme1zjt07nbnUJwOONNGiXPhwoWWRtpu5fb8PDuUKvyUUnnxUuTJFrllyp6HVn7dwtWXRTqrFDkgc3lIC2EmC6VEiamANsigIcLt26XcRXKe73kixeGRuoGX7YQ8GBCgdsgL2ykUzpvt4vN+reRAO/8idJo+SN2+zDopv6lA8aZ1JLfnpzzG0SJenl8eIVdEkpFSZ7ud1To8FDs/0HLNNddk73rXu7Kbb77Zttx5X/7008/aljsH406ePGnh+aEX4kThaxueeIDvHx5yY06FFFZmHsnPI/XPQ55/K/luUSsTCigUU6ynUPaNBtIheqLI9dkZmaohPHt+YZYoMRtAuywir5w1GEHMnL07Tz7l5cl3Qt3I56GdfxHywrSKQ/KeBNlTf8+XmfoJrWTy7HIDbwdeViiSAakfgNcpXwoNeLsH/Fbkla/M1M/zPS+PkPFQviH8+E10rdZR1KtWrco2bdpkCv2GG663b9G5+pVb4rhchotlOOWOPJMCrdBxY6odp2l56sRPSP1FKcQrksnjAfINeaTuLkACuYH9uDCV+Hu6tV6ixLkGtV1Rqqwh+N5MeZ7fjlJ5H08qMx1KUcQvQp68eJ7y4P28TMr3JJ7MPD7wfnkkyJ5ntiLB24sgmW5k20GKpIjyFHMzH3sxDQ6yCueTNT4ZZhVOqlWzo8CliFmls9pmu5xT7dzhzil33qOvWLHC0rSfT921y4gT79py11Yx8UDKI21bUHlIJiXv5+0pCXl87w9SN/DyrUD+ZwIqC+D7erfoiSKvbctYbtwv8TVhKpktUaKXUCfyJGUqEs/L5IUVWoVrRZIF3uyWPIr4rdBtHN4/lZM9j5/6eX8Pz0/DNNmrYWjjp0ATP28Cz8sj+Ql5/kB2zwOpXDfwysIP+EDuPPIKPaVU4ZM3TVbha2sdv/HxsTCWN+TUlnHzDh2FrtX5TTfdZLfFsRrnMBx3ub/++uvZyAg/Z0qOo6rhUJxQVC4NPmaU97JFdqEVL/XDnSefB5VZF2grHNIGFm+tbiqY3aInihygzEMDsUxWw8xvjN+oDY9FnY7VGgONogj6lbQSJXoNOo4GKCC72qe14YTwSynPH7uHlwHIaCBVOC8j8vF1QwrXLt4ikhzw4SDvn8q3Ih+XUDRAToozDCIQP4cN2W921367u4lC1E3hHIEinpD6CeTTU55MHtL4FL4I8vNysssteL6INs0YLFOU+kNsmctP8eEvPsocGhggDH7IoHyqYdU+GBR/f7Z48cLs6quvzG677Zbsxhs3Z0uXLs4OHTqUvfjCy9nzz72YbXvz7ezEiVOhIOhrHOgifDw1T/tn0qDfOIfi75qrXMlXJP0SG360DWDlmo0bTVTH6nao7l+LS88oqDyE1O3h4xFwU1aYCke+4HWASijfin8OUJR+K/REkVMx6QMXoCOhEiV6Cdoq1Kki8qTwMlNqxRfUccVPZT2RR5/P1A2dKbQa8Dxa5Ut8b3oSz6PIHU3ypHx1lj9hKgNot8hLA15R2uJ7M49QHK1MEW5RntvLeXueG2LrHYXPJ2tcJsMpdwg7n7BR1hx641KZ3bv2xlPuh+PFMkwS0BWY2gUgPnhcrwsPhOZdU/aRaO/KB/Hn12dUjh7FstPDdOJUWJXtVNGzFXmJEucC1LlTSpVjJ+TjE7x/HklGJqS0paQ9eZk88uGhmUQnA43SVPpFeeh24KrHVQkDdCDFm5rBVqPOkOZD9k7y10izgTRMXjzendpTKuJ7ZQqJl+cHxZV1XKF7Xp7bm14mdYtHmmp/bM3z2RoXynDKnV9a44dZ+GTtueefy55/4dns7e3b7NQ7SplJABgbQ0lPWHzEUcn67eS7fx7sAmXvy3+yu/PdkqkgL96ppsVzBeLhGg/YJXqiyGuVW8tbHb0p0RIlZgDq9CLxvHL05HkKk9pT/5S8f2oWUTt/kY+7E5oqkj5uyItf1Art/HsJ/xx5z5QH5EQeeeFTObk7JR/GK1IvI7/UnvKgVCG346eEHIQi1hY8fKWBMp43b0629oLV2ZYbNmfv/5k7shtv3GIrd7bc+U103RZ3+PBhC8fhOuJRO+jvHwht2KxNeRc6bS95bU/u1K+dG6T+U0C9ISThpxQZ6JUit58xLVFitoN2qs6qTuXdRZQqSbmLlGfq701tF4onSvMieB75933N+0FpnCkJqbsIaXqC5+X5gyK+0M6/O/AsjfeWQHbMTu2eWiH1LwrXSTx5YVO+SMjzg7xy9ZTH8yTFnOf2dtoMJsrcf3+u9jR37lC2cuXy7JJLLsouvfTi7MIL19qvrbH1fejQATvdzuUyO3futG3348dPZKOjnJSPz0QceW04+AZ/t7WeHG70JKQ87wfyZIVUFrTz7xRKSxTQupHkoGdb6y5THl1nsESJM4GkI5nZSglKBkrlitypmdrzyCPPvxPKS2O6YJCFUognf0+tIP8iOR+Htwt57jz51C4U2T0U1pNH6hZSWbnzSP4y88gjz78dSQm3I5SyKM8fQoETJ22KCSkm8nyqxm+gYwfI8Q36li1bsve+9712n/tFF11kCvyVV17JXnjhBfs9dLbTkSVu3pczOYBwg7QPCdi9WxA/z8+jnT/oJh4nm98oJiOIx7A8W7foiSJ3D9H6qUuUOMtQW6XzeHJtuG56eL/pUKs4fD7yKC/sdDETcaSKw1MKz/dmSkLdXpmwA1EeRfJy59lTnpD6p1SE6fj5uL1bvE6ArFe0cnt+KpNSkeJOlbrcKFq2xVHemPihhFHK/f1ss8fv1PlmnW/X58yJ79G5Le5973tftnkzp9yX2ur8qaeeyR599PHszTffyoaHR8Lq/HSIa6Tp2YTctlr7gkEr9F6hVT/psg+FxwoPFi3GYEL07W9/+6g5OkTPFDmoZayrpypR4kyD9uop5XmkPNnz+CnPw/upAwMfLo888vxSGeDjB2l6MwXiLSLB27tBUTxF8RXJg6IwIPUrkoUv6gZ58ikvL96idCSbhkn5rUiKWZTHE9/7YQe0IU06ASvqqNjnmJIH+CEvxc+NcChz3ePOSXfcvFvnlDuXynD1K/e58206F8v4OHz6Hq3acys/j07legAeyD5HYxLUDXqiyH0FY8ek4AXs8itR4myCNgjReTBZSWDHBLRT3CLc4jFzlozneTnxReKl4by/9/NUxIda+aVp+/Q80v7Yaf9UGXoSZPd8798e1Evj+UBTnGFV3tcfxxSl4e2iunyNkEnHJO+XJ+t5QpG/ZNrxFC4vDvE8Pw2fR0B1LTeQ28cnu0+rmfBDebICjyQ3t79BrLRFuBvyUeEODIZV+ZzgP9TYqldYv+V+xx132OUyK1eujN+gv/hiWJ0/agfiuMtdoG/Sz4g7lEZwjxvxztxv9esZgXd7XgrxMPNIfh70I/IivuxKpx2Q01gCKJ/Pfvazi2vOjtCzFblVYCjUDjC5NEuUOEOgrUJSbO3cnpfy5ZfyICl4b8ouKopTft5eRP6ZUsoLm8bvzelQq3x4kpw3UxTxPbxMJ/IeGnA7HXgBsqIidBJfXr5b5T+NMy8feTyQugE8xmofBrfnyZ6aRX5N9jDJkvKWn0g8TORZjXM7HJ+s3XrrrdnWrVtt5c6pdk64P/HEE9nbb79dX53zgy60VcKxrQ9YyYqPwkdOBE99DpB2NyCP00BaqRaZ6pq8EL/KrVv0RJEDCowCLVFiNsN3cnX0VMF68rJ5pLCpOV0qikf598/RjVu8PCLNVLZbIp48vi/7TlCtsmJhABY1YHHUvi8XKV4Nvn4QVrpQ0eCcx28nm5rTgfLv4ePvlLy8t4tSBSJK3V7pyszjeT+IxZy3e4KHvJdZtGiBnXBfv/6abMOGa7Nrr702W7NmjeWHd+go8h07dmT79++3LXculkFhQ9gptjlz5gbFPi/EGy+ZUZ6wA1//04XizIPzKxRSHpD1+esWPVHkqhQKMMH0S65EiRkGHccrMLlT5enlsKfh8kjxF1FemDx/2b1fp9QqXBo3pih1F5Hi8lTE9+UhpO6ZRqvBNoWX1eBaxEv5Moso9fdub2/FS8kjz78TYpyGZPe8dqRxPs9sZfekk+mkS7sBvGPnIhm23G+//fbstttus5vi+ETt8cfj6vzVV1+tK3JAHEwKaEssIlmd+3blnwt00+YIK2D37mnAPtMORGQV8qM+1S16osg5oDA8PFydSoZKlDgbUCfypu9Yni/5duTj8W4fZx7l+Xleq7DtqCjvefxO00EupTw5kYd3t5JL4QfSvEHVTrSzOneQHGanJOT5pYSCyLMX8fJkZpqK8oS9KH35eSriQyjjPNOoMtBM4tfIv1PnZDsm96zjx3Y52+b84hqfqrHVzin3rVuvtx9s4VAc79Cfeuqp7I033rAteBQ7Spz2w2QAU21SE3M9Sysg0y0UppuwklV7D+7uEw7oiSInU8yMqASHKWWwRIlegn5DexV5JdStQhLP2zWIiPwqX3bJe3tKII+vMIoztbeiojg9Ka52lBfWUysUybQL58c87J4E2VP/M0FeYUEpL0+2ldvzU5JcEeWFEaX+nYbzlKfMRamMJ62gIewoX1bWXp5+Ql44FHfdddfZN+j8fCrvz/Hn51L5Bp2T7tg5GMd7dFbqxEG8yAHfXokzhZ5b9h7DEtDzA/KpvHaDnihyVY62PEqUmO1IFZLsqVlEQspP483jtYpbkFuyiqMTSsOlceW5U7/pEvEVxTk1sNqOqys/+IKUl+enAVPumaI0Tu9O05S7nYzsrUjhiihP1rtTsxV5Be2Vs+elMrJ72Vb+rNJDq7c64ydTFyxYYDIodexsuf/iL/5i9u53v9u23PfvP5g99thT2Q9+8N+y5557ITt69LgtJFHq6CGlgznToMxS5PHyoPbv5TsN69ETRc6NPsyqaphqTy1R4oygSbHYT2A6dwFNCpeQ/NshDTcV8krSK8sixenJ58Hbu6FOw+XJeeTxugEDYNEgKL92JFkh9W9HUwnTitrF55Vfnn9R+JSv8D4+H2fqFi/1kz3PnUfUt3ZvUbSqf+z+vTmEnRU7ip0wgG/PuVDm7//9nwlK/V32q2tHjhzKnnnmmezv/u7vsr1799mhOK59jfmJh96Ut06ArKF+wYwPp/Zae41T/NvbtUia4do7/nxDPqUO0BNFTiWo8EuUOLuIK7dJqIZ+E4h+Q1+CaK/M3sdGQ9sdD25H+p3rPJ4n3ShVd9dQqKScfGoaJWEYVBRXEanveXdqzhT5eEUeGjTrg2GCvHDNPIYoBnyeO5J4nQxfTb9N7U+15/Ag3q3Xv01PSH6e8uQg+fvnAqlb8OXUDXnk+fv86Bl57jT/qb3unyhexnatbOVu5ed5eW5toyu/3h+3/05d79MDu85fsGB+tm7dhdmGDeuzjRs3ZJdffmm2YsXyUM7j9R9neeutt4NC358dOHAwrNCHQ3jS5gdZqJ/wvLXfOMdUHkifuiItCFjdhb6Jn/ytTEOJhqDB3qjbRjttDdIDahc1dy3FztE+pSlAD+rQeMISJWYR6EANyuN1RoK3g1b+ebINs9GXcTf7NfOEPHcn5GWnCh82tXvqFlMNJ2gs0oA5HXQSBzJFlPqnbvE8Uv9OSZA99Z8O+fi8vRWpDmRP3alfK5Kihdj9xWQyySn3rVtvzD74wQ9mt912qyn448dPZk8++XT2ve99Lyj1V7MTJ/hRlvH6p9F+4kA7YyKvw3Ja9QOlRx41wcZtYHI0jTaqZwfEw7N0i54ocs3QlbkSJWYrfBulzXZLgrfnoci/mB87s9JJKfUTitztKJVN3Z5fBO9fJNtpXK2QF9bH6/01SObRVJAXT0qdykEp8mS6IaHIDUkhyeyWpNQ8pf7e7fnyk90rZdnzeKm/iENtxMd2O8TW++LFi7PLLrvMDsVxWxyn3dmC59vzRx/9afajH/237LXXXjOljuLmpDtEPISHsMfv0httCh4w/RaUeVi7h4YXVCg0ddhnZx6zRpGHArBPz/TgAZNbbIkSswi+w6buVtQKrv0Xwsvk2X0asuelnfLyZIrgZWUvCpvyi+RAnh/PJUrdeVSEVnn0aCWXl147KoL3S+2dUjt0IpcXn+zez1Mrv6mSlG+n5BW23J4ne8rj4JtWzqTLYTgUMEr94osvDkr8Brv2ddOmTXaxDP579+61z9W4AhblzmdsUp5S7MiRBsBPJLRqe/LLkZlUeUn7xL+idLtBTxS5MkbBligxm6E2qg41VVIcHSPM4m1GX4Pygen7TR5fdrmnA5/3NP95vBSt8uDzKRJSdxF8+nnxtEPeM0wlHsGH9eGLysnLpeFkCt5PKOIJqZ9HKpeSUOTuhlA+RXxR6s4jr6ihojDIQShx2TkwpxU17951WG7p0sXZli2bsw9/+IPZL/zCL9hqHQX+yCNPZN/97nezJ598Mrj3hTqcsPiIn3Dervr19SzFXlT3nYC4ffzYSbNb9ESRU6hkqAtMvSRKlJgm6ER55GfiojwZb4rSeOX2SN0gj9dlX5oEhS+KJy9NIQ3j3UV+mKkfED/PrwiSTcPkuT2lKCrXbilFkX8qm+efR6mfUORuR0IeL4WXmQpJyRYReiHPTAl+SkV8Vs8oXC6PIQ/UM3x42AnH6px36ciwKr/pppuyn/u5n8t+/uf/nrmPHTtmF8t8//vfz5577jm70IyVufo88RInpi+ntE216kdFIH8hLlAPj71b9FKRh3x1/2AlSpxJ0EYhddrUPV1SfHVyp9E7IeWxHej86QAgdzfxeBTFl6bl3SnfQ8/UbT4EpePT8m4P75eS/KeCoriK+DopLuIkeOpuOiVeOzleP0GexJtHUoCiPD/P89Sp/0wRusGbRTzvB2nljemJW98w1aZYhaOwtRqH5M92OfL8dCrfoW/cuDFbv/7abPXqVea3Z88e+6U1fj6Vy2VYtfMdOv2YtIHS4YR7+OtoZjDV/tETRU7hAQogB1PrxSVK9ADqOFCeAm7nFs+7O6U0/TxeJ1B/EzSAzSSK4vP8PHvRc3T7fIrPp+EhGS8LUr5IyPPz1A6pzFTCzzRJCeb5efLI8y8ir2hnghRnXtxS5LKnPPVH3Ky84elWN1bhKHGAYpebU+lsw/PNORfKcModuvzyy7OdO3eGlfmPbHXOt+jxlHs8xQ5kqizqqLav6xqaBNUPXF/Av+PIhJ4o8tphgSqFGtB1pkqUOJPwnUkDgyjl58mJl8vXCjyQfR9ek1O6HjYw1FZpna7I6GMpz6PID3utf9YhmTTOvDTyyMdRBC/fKl78RK382vn7NAUvW0RCnp+nIsjf5wVKeZIrolTWu8UrIvxRXFJ6kFeCmF62U/LyCl9EPlxKPh+eUrkiQhYFrctkAKbuaGeVHbIQZMkLdRLt+k31SH322dq6devsUNwnPvGJ7Gd/9n12lzsrdE64/+AHf2s/o8qWO12Wb85RnUHFhQnDhOWBtPr7BmwCQb8eHORym3HLU9rPPRgngJ6JMpsKeqLIhfAAxU9QosQsgJooZreUF048wduFItmZgh9I5fbw/n4ASUmyHqm7HXx8CuvtwPunfkBuz/dyqbxH6tdK1sPH3wqS65TSslb5F1ErWe/XCfkwsvv4ikhh0rApL49S/1ayIq/MZU/NlLy/t6PQNZlJibxwMA5/Tr9fcskldksc79A55c6pd35BDYX++uuv20l3/YQqW+6EZ9KAQkchE6e+a/er+FZQ+QRZ+wxtquNBTxQ5BaMCLlFitkMdyK+mIc9LZfLkRd7PQ3HkQu9NA1rKzTDUTyENshpcIKGduwheLs8ud4p2/kVI5X083i91F8GHnSnyZd5r8ukV2VFAsqeU+94+h+epfyCsehNK/drJ5tlFA4N9dUr5qUy9X2mn6/9u773DLTvKM99a++Tuljqo1QqtiHIkGjD2EEwOsgRK4HmewfbMdRp77oxtPHP/mOeOZzxgmzH3PrZRRhKWzR2DLUtgg4QkgwGh0MoRAQLlzjmcfM79flX7Pfs71WvtvU93H3VLvd7u71TVV1+FVatWvatq1Vrbjskfrz4MAwGzNA938eMsb3nLW8MFF1wQzj///HDSSSfFZ+bf+tZ3wze+8Y1w7733RjLnJkCb4siLJX1Wo9EB8gO0dYYZRUkc6NwxM8wL08YOYBW0wejlGY1q1NgL0E1ZGpOIhHO/D3crImWJymsnHgrn+rmC61Hi4fV5HMj1VXbdwB+DjrXquNrFlaGsXmX1nGv9ZT9f0gkinLK0iuskc7HtVtrl2U15+c3DntaRfCRlYYhZy++4mp1LDxkDyJfrmz6Hnk1xyOGHHxF/C/3iiy8OH/zge+MsfePGjeHuu+8O//iP/xieeOKJ+POpAwPpJkB1IB9m8xxXO+R9HPtOacowb1NmDWQ1ahzo4GKir4qsvagf59KtnReVgzsj+uZ3sx5yJQp718PbejsfBmU64PV53L5AnrcPS3z7lMm+QNUAKX2V7CuU5Y10i6p0ub5MIJdudJ2krDzyKctLyPVeSCfkeh/2+iqpipdexM7MXNcbcSypQ9zEQ/aamWPLdc0X4U477bT4dTh2up9xxhnhmGOOs47cCM8/92J44vEfxO+5P//883FGTj9W2fgFyqqC6+MY8cMpKTQHzBuRU3ETKrbvR4caNfYhuJC4eMoIeS5EnYsno06S2wte10m8vUce9pC9bLx/X8DnpbznIkrn3W6QD5xzSTsXNMe5jlKFMlsvVSizrZJO9p3iEdnIzf1l4lEWj4j0qvRl8WVxuQ6BnPN0foaOQL7o9aycfsLsHB2/d46etNiyxP6BD3wofOITn4gfluF5Okvujz7yeLj//vvD8Mi4MXEicNKTZq6gfMabuWJeiNw3bI0aBzq4eES+OWkT5+PzOO+WxfELS0la+j0V1VV+4ON9XFlY8HES6XPkOm/fLbq1V97ePtf5uLnC5yV5OeFJZU9kXyPP24erhDHdhwWvk+S27UR8USWQssTr8jiJbCBiiFt2+GO4h0pPzRC67PEzBvDLaWvWrImfcV21alX41re+FW655ZZw8803h5tuuil897vfDU899VQYHh42Ah+ObXDKySfGV9rIh2fvelbO8ZUgKsviKuzbYl6Ydn9dKDVq7Cl8n+1GlEZuWVwnnRdB/jzO+0EeD+TP9UKVPkc+kJSl6yYfQF5zHZiq7FVmt2XvDfak3mVQPj4vr+skHlX6vYXPM8/b63O/wjl8fFHwYyOcL76Qln54RC4QgVbJ7Lw6E34upIGYR222zE7znTuG45fcNm/aGtat3RCee+65+AEYlscfe+yx+JrZgw8+GGfYDz30cHjy8SfCg/c/FB544IHw6KOPmc0j4cknnwxr1r5kBzoVjjjy8HD88cfGj8yw033ZYUvjcVEuNwW43UB9mjrbDUd3iRzmnKAbXHfddcNXX311WLt2dePss84qXve6c/kQfIPKpvf4euxUpo/S98Yv5MQDz+qie4z6OfvBjXT++X1f+svw6ER8HeTuu++Nr4R88IMfDCeffHJYtmyJ9SHrR9bHeH/TTGcN+EpPv2JmvGXz1rgD9cU1q+OSGstkbG6hGyLYpDv72QOI4nNJeacLWHZlOoWrpCze6zw4Ph8vzLJlxy6Os/O2wOvy+DJbjzwMvM6fg062ZVB8bkcY6ZR/jm5sQLd2+fi0ezqNYy3Ippsy/PHtCSatH/tycr/6ufy+TxFumJ+wdKqP1wm+rqm/p2sRO10LXIdTUxOmS2VCspQPcJnJouvv57WuSUvQiDNodoOTv3aKIzzf9hvKiPf1F9iMtmnTZst7zMrotTQj4YUXXoyvkvFuONc/G9j4MRWgeqEfG5sIhywYisvsvGrG83PeO+fTrrxrji2CfqmNQdiRTvlMNa+/hlUtemb6S2wP0zXi91Ympqanb7311ulVq+5nY93UZZdfORjNusTsI95HuP7664evueaawoi8OPOMM2oir7EXSOd/voj8pbVr4gACkTMw6MIkbRrg0gVJWkTxnSS3VRh4fS7t4hUHdGwKC7kdr9xE1+nL0ni9jy+z9cjDwOvyepbZ56gqA5f88rD8Hgp7+zL4PIRO9rPRGp/K02kca6Fd/vsaxg9NX0JettoHUTv4vj4FmRqIk8geURzgekEA19jExJiRcE8kXRF2by+zVJ4Dp8dNkF6yxU+ZieDRQ9J8SAkiRwfJ4zLTZXa9fv36mCf5b926NYZZ6saGPEm/ZcvW+HU29Kq76kM4XePJHjLmJ1AJUz5EDT9RPmViS7v0D/SFhQsWhcGh9PycfLDXh2gIk19ciehJ57+CyM0uTMVjsBP1zW9+MxL5RRddNHX5FVftfyK/9tprI5GvW7emOOvMM2sir7EXeHmI/Oyzz94vRJ6HpZM9LpBebhm8zYy/DZHLBe30HnMNC3PRd6ObazlCp3ihmzqAOFi3hcaxFrqtQ8L8jn95Xej3um5SH0xEl0M2XEsiOHSeIJHJyfRhFOKVHzNy2oV8lfeU3S/QV1kCh4CxTbPzqfi8GqCDwAHl8i43m9UQZt3Y4SdPyoSw+YlSSBaCVR2JZ2YP8TK7BoTZoX7YYYfFMOS9fPny0NtckQPKl3PCceCSJ3UBlAMIq5xpSw+al6H93Z3IyQMiv+222yKRX3jhhVNXXHn1/ifyq666avi6664r1q9fWxN5jb3Ey0PkPN/KiZwLM+Zpf0iLKF6S8kyDDPB6b5eLbOXm6SVeX+Z6KI380XVEXhYPqvRgLuEqP8jDQrs0Qpl+LrZCu7gcsu2UZr6JvFP+vo/vKdK4nHZ0A09EzJzxqxx06tsKY48oD/VZdD2N9PlSpcf1tpA11x/5EMfMmuXu+DzbZtIvvbR65tUuiJkNaDzjTjcJaZaPC/GyrM2smrzIG3JesmRJJOdly5ZF4uYaR5e+yNZ6Dc3XCT3h/v6+ePZax57aBBAfj8/KV7yO2z9OMF/UVRG5jUuRyMcnpzyRTxuRpxfcu0T3PWoOuPLKK4e/+MUvFhs2rCvOOP10ETmfoDO3JvIac8HLT+TYkRY9/VU63HZ+BHh9VVjSKZzryvxCqU3FM3KFQR6XI9e1C3fyex1tXKYvs5FO59TbgE7hMnSyKYvfXbdn41M39Xs5QD3UxvRR/Fwfamc+dDI50dJh4/ty2fnweezYsTPOsCFh0kGSkDXPpCFkAGHjJw3PwrHHD5mPj4xGkkZUPsvf7GcB0hFmKZyZt56nk2bRIQvju+H4yROXMPXl5oBrXGRMfLrmxT3puFhBIB5/ktbNjY5bLoDbQKPoDVNNfqsicmIs7bSI/L77HmBpffqyy6/c/0R+9dVXD19//fVxRl4TeY29w8tD5H5pHTts0uwiXbzocNv5EeD11KHKJvd7HWmAt5GbiyC/j+M6K9N7XZmbI9dXhavyKdNrIPS6PB0o04FubavSA+J8PwHevl3ahLmPT8qzc97zD/UzoPMhHdcMJI4O4ToBkDIkCOFCjLiRdG12rTxwuYaef/6lSKya/eJnCZyl8PTcejLmJVIlHS7XIvXoa/TEGbSWxiFrPqHKbBtbrlFm15CzbNSuxNuAkFyD1+PXcVJP4OutNOnHT1p5JKQNhAi2ylfpdfMcfyQpvucGXUfH/qq/zLQxm90ikfOM/P77HwyXXHLJ9F9+/vL9T+TsWtdmN7e0XhN5jT1AOv/zReRVu9ZJy4BCnqRDFIekvFKcdMDbeJ3sFM7jc523F3I7iVCqt0FF/rL4KrcMZXHd5lOWFnSbTq7OaZWdR5kOVOlzdGPnl759fxPa1Qu3LM1c0KmO9HtQVQ8INvXz5MfleuAagZh7e9JHTdDLBtLetm1bnElD4i+88EJ8hYtZNf02Xl/NZ9bj461vMwCOFxuWwXk+zbUKUbML/KijjgpDQ+m3xCFsyJqrjDRKl26uW9ccdcRedcMOPxDJ4pKG4wSkAeSFfR4PlAc3LS3szkW+PC29Kxzr3T2RByPyKWbkEPnnL7ti/xM5u9ZtVl4TeY19gJePyBlcdCGSNl3YaQBBFIcoDLzeh1N5s+MlVXokjxO8zpcv+HjFlT0jn4mrcD260XXKx4e7iavS+fMJvB3Iw6BMJ7SLA92VOTs+t1cfQO/Typ/bzxXtj6G1uYvZYbypC9anmTE2w+wK58dFJoxwd+zcFoZ3jYax8ZGwY/uuSMwsg0PWzJ6ZNWvpWzNyriUIVGTN8Uood/HiJebvjTNmbpTTrDmYO2gz6fSeNc+iBweHbBa+INYX4Vrs67cbDKtf2v0+YNdjYeXzIyUTds1yg0F5/HQoS+nwCm3BMXNDos12iWcAfsojTBmKQ4dA2ui4MSCtnt/Hc2T5N6nKwDGncUab3hJfpRuHVFwqo9NmN2KoQ/P1s6l7772P18+mL7/iqv1P5F/4wheGr732Woi8YUQeHJHbQdqh10Reo2vML5G/sPqlOLice+65uz0jx415NnW47UQoi6uS3D4P5zqguqieilO8DxdxsNk9XnkoLHg/4GfUc+Q2wOdVlV+VHyicuzmq9KAsbq72Hileg3PqNwiDO2EGfY1T/jwonGzTjLDVn8psUn4QCUJ/RAdpQlSyByrHA1t01Efx5EuYXeDEm9ryZkf4mJHwsMXx6KjHCHrE/BNGWhNh40Z+nnPYyizia1vr168LIzb7pk4ibl+ejgmSZnaNiw5hNs31dOQRR0ViZBMa8eh7++x42Q1vTZfINF2faTd7K3/tbifeDsdseLeb17u4aeD86PfAaT82qY3P6Ht6NEtPdVS91Db4uYHn2LQCoXMhG0A9sRkf52YlveM+Ye643VDIZfkeuwG7MeE4Fy5kw12T4Fuvn4HdiNyOe4bIm8/Ip9nsdkA8I2ez21/91V8VGzeub5x26qk1kdfYC6Tz/3ISORczNtgzqKHDj5sLKHPzeKWvCnu/3Fwvv9LigjK7GemCyIGPE+Lg15xRAB+XI0/vbav8oCyukw7kYY+yuCr7dvkktB5NaHAnLB2E4fVAfYd+xGzRt3Vs02a/lA6iwI89ccoPvwhJ51ppgS8PIQwpgTiLttn16tVrZspnSZxrhw+h8M41S+MsgTPrVhnKi3K4LpYuPjSSLzNklrt5JYulcHQAkua6YbYtQgTkRTjd7FjYiK1hNzX+OLhOgY4DHX4kkXUrr2SfSFnAj2CnclLaZJvs03vdOj5fFunQ0e6kTzcVLRvqTBVoJ15jY1WCVYotW9Kueux5rEBetAc3M2faxPW000+N+aCfmE7ntt2MnHg9IxeRHxC71tnsdt1111lnWdtz5hln1EReYy+Qzv98ETlL62Uzcl3kEDmu9AC/RJBfrtIA2ZZJHt8p7EX1Ab5uchGuNB+W39cPeL+HiLzKljYuiyvLryqPdun9MQre3qNM38m2Kr6FRJDqS9QHPwJRMVMDkAFxIgTSiMjwV5WjvHGVt/oe6UeG+RpZyhs9BA2JQCos/ULCkDHPrEkLsfoNZcFmpNSR/EmvD6PQ59HJjUvZlpYymTnjZ6a7IM4uW69zEUca8uAGhI1mzELRkT+CPcCfbk5YKUjk7EEe6ZhbJIygFwhjA5Q/8dLjRwcoCwHKY3o6zbAR6ostx4FL+7DSgB+ypi1pH9oPHUS+bdsOI/Fdsc25KSMPRKsM2MqeGfvP/uzPhp/7uZ+LNlaz0OA30Q1Wi1idFp+pX6el9bGJyfiMfNWq+6fZtX5AEDmb3a666qpizZqXGueec05N5DX2AvuPyNMAmgYBdLjqpvJrUJEeKNyN5PZ52JeLKF76vHzvInYku8XnIn0ZymbkVbZe38kmj8/13s1tQTe6Mhvg9Z3ySX0pEQZ6+gSDNP0DcqM/EZ9sE8ELygdbBIhssIPkcQlDBpAKYWwhFsijv28wlgdpx1m2EQ1xuOj5KAqzRWxVDrbkx/L5goHBGB4cZFmb1YNgBMQMe7HVO1ifP8Rm2IfaTHuF1ZeZ5ZD5lxlR8SnUsTiLVr46fgSgo746fh/GlqVxdAoL+FvhVtug0/GThnKoe4qDkGlf0lIGG9W4AUhL77jj46N23DznZvd8yp+ld982tBugHLUj54GZNjc/2KrMvt7+mH50dDzqKI86cSPACgRCmPPCOXj22Z+Gt73tbXFMIn++ADc+lfJqR+QcN5vdbrvttilm5Pz2+ecvu2JOP53Wat19CLdrvewZeYODr4m8RndI5//lJvLUV2fPyCVAfuy8Hig8V1FauYjKluvj8rDg4yFyr/P+XOddwT8j93Hd+D3mkjZ3gfeDuYaFuadrjT/EISIexjG8nBt0ECvxmrFCphAxOsLYqL/gQiDMcLHjIyjMECEMZoZ8BIV+vn07M8IdkWggepG/6kKYfsu71ZQLcFkCj7J0WXwWvWzpYWGxETabtnhGDUmNQ9RGkJNGuAP9g3EGOWGzd8hbm7tSOak8QccBaAPqgE59VHFqF/YJ6LpDFAcI61gU1vGRN8+YY7tChQ2rIdzd3Kw3PjGa2tf07AXYum1z3KQ3NW03EGZHvfh+Ot9Vh7DJk/fXufmhDPIfHh63G7J0HMTrozGQNOfmsCWHxfZEWKFgFk5bY8OsnPPF+eFxxZ133hl/t/z9H3hfPA7STNo/wNK65b8bkTfHpemJqWlm5CytT1166aXhL/7ysgOHyNetW9Ool9Zr7B3S+X85iJyLl26IXeqrnYlcyP17IkoLUl1beakOXpeL4HWeyL3rj0nwfkFEnqcHZTpQlg9olwfAXxUn5Lq5hnMQ386G00B/iaRigFSYiSMQBcvWIgHsdN6Y7bHczW5wbElHmFkfAz/kjQ5iIR32hEkPYUM8+AdsRk08eUAsEInqAvhiGTriqAPEgktfZrl8aIAlb5bAWRLnGTbHnGa0zFyZeY+M7LL82WDHMXCtpKVwiIt6kp/6C9eFjlPHSjsA6ogNxyGipGzsyA876UGeTwLlcN2ma3DUjoe2YTPe2Bgz353RJbxz5w4ri3MwFm94tm3banEcP/mkemiTHvVK9UkfhYGIqS+za8gbHfVIjxTSrnXGBVY0iMdW50EkThi7LVs3h2efeS78y3e+HX7mZ34mfOADH5hpq2lj8Nh+XRL5qlX3T11yySUHxoycb61/4QtfKHv9zCpdSuR2jHlVdHJ14DUOTqTzP19EzgdhciLn4tSAE/O0P7mAPCzketxUdnleXnKbdM2kwa4sPhdBYYi8Kk66PM6jishzu7mEy/xVbo5cX2XfbXqhSs9pg4AYuHGZGcsWYoYAIQyEfoUNxCPCZiYJIBR0fvkWW/QQsUBflAtJFzY+QjZsMGOGDTnTF9S3+TiK7xtAfW3KpqVsdkzXQ6/1Z2zo/xAtfYtn54lseR0sLYUzO4UE07FAYhwX5SHyUwakhg1QHWQDVCfpkXRNpdfIOHbS0Xa0CTcv05Tfa3WcNBI3At45kjaYYT86OhyfWet1s127dlhb80yb1+I4JuqSbgTYJMhxUEeua9pTx0M7QsaEiRNRUy/qJ1A3CJgVDIA9OtmrHdj89tOfPmsz8u9GIn/ve98b+ws3QY2+tPnQjrrZHsbYEekclRE5S+uXXX7l/ifyK664In6idePG9fmX3azSNZHXmAteHiJ/7WtfO0Pk/iKNedqf5E99FFf+lGfSeXgb+TuJbIHPF1H5Eh/ndcDr/Ga33CVP30aK88ifkef55Mj1Plzmz3VV9kKuU7hKP4OK96hzN48nH0gXMoV4Vq9eHQkG/0svvRTfw2ZZHIGIICSWyCFzERrAT14QCKSMC2kcffTR8Vvg5I/gZ3bNeRHpQSA9jIdGTA3rxxPWv3uNgHuYYbMUbkRDeNyImM1t2GHPUnm6fljStsNpEhzXR7oe0PEcmi+08aW09FoXBOiq3qw7+0WSPYTPdUR+vN6lXy0jH/IlfXqGnfoWrvwc04QRN48PuKlhKZ8bHr6hzk76SH5WkJasN25JG9C4JpUWIqWNaBcIE9Ce7KrXigXxixcfEuuuaweXfAT8xHP961qQrdrfam/NyTGlcyFXNqxacL6feeaZcNddd8Wl9Xe9611xLKGPFL3pJqCKyFN790xz43LLbZHIp5sfhDkwiPyGG26Y9YlWq2yRGjUROXeKNBpisGPMLkQuJMM0F1WNgxjp/M83kb/xjW+Ms51pmxL4i1UCdJF7XZk7W9ey93rvr8o3xtlAEt2mjeLysETw4TwOSJfapAppVsaA7fOQ34e9q3YnzIBOewO1q8IqG/tkm8LEK4xLvM8TAdJx/hjgEQZ20qWxhvdzU5pkSjkM2MwqqQ/lFXFJlveneZ+a96p5n5r3qLWsDEkx+4asKQNA2JA1Azbl0E4M3LiQCX2JD54wUVm4aMEMcSPUkTrjxw5CQYcrv9oCxJkmSyM2PWwYJdhZieHJ6YkYturF8RK9DxMvAk4/GzphZUJ8HH8iXFyFRdDYky6eF6sjx0R72dgdXdqJduQ99CnjJWb+/f0DRr7sluc5f9poR5tBcrQZZEx7cRPEuUGXHi+k76ur7WhvtRNtwCyctkJoG1yRNfXDBqHNckGPHd0Fv/qOpEwHfNjbyI/r/XFPw7PPhu9+97vhzW9+c3jPe94zUz87HcnOvDEfEXmT32jvoqcRidxm5OGe++KM/MAg8quvvnqXzcgb/Iwpv0f+2teeUxN5jT3E/BL56nVr4+AAkbOJpR2R45KHD3u/XPkBA550s/UtHVKWL0FqXBZfbt/KH+TxgtenNqlCIkOdA+Dzon1FmF4vEE4zwETEhP05KStb+ciWc0EZQPaEiSfM4I+LyBaShRhovWlrfwZ1iARiUZ6QB3bYM/PTc2uWcSFszagpmv5BOSIiymb2zKwPgsYv4mC2yIwbwT/Qlz6YghCvdtBxEEavY9ZxpbKtcJbHm3qQu2pPwvgR0ilNnKA3+zNQG4k0gcpXWqC8RsbSIwCADQRM2+ISD2hXZtCaRXv/2rXrY560LedAeaHDhjaiTiJftSWCnuf6tL/CssGvOlIvHYN3Ea5nwj7OS64Ds8J284Lb07yO8/yRfUHkk3ZDYzPywK715rfW01JDl0g138f4whe+sOu6665ruGfkdry6S45EbgPuJMvtsSEMdoyzq1ITeY0EDSzp4pkPImcwedOb3tQVkVfp5K9yJT7s/dQt1yEs6/kZcS65vUce7+F1eZyH2hBX16vsNYgiqW1nA723UV7KR35AnLeVjvPF+QCcN9kozKAOSWDDIA85Q8S4kAbv50IYLN3yPXBIB0JhpsgADElAztioXsz8IGg9P2W5m2+B0z+Ip1yI2S/lUi/IjTjCqQ/FSlq9Ulj198fsj1VhBFvyo37eBj0CZOv9yofyOA5mvOh93QT8HDdQ2aShfrQdaV5as3am3oRpM64/BKImjiVyzoHKwRawEZA2VF04P7QXbeuPCz/tjI101CH5U50VxiWMP2+HZD87zCpCy5/yKBPi8rSIiNxSzqqD99OnqoicbGM+yjsjcm40TT9D5Pff/+D0xSytHyhEfu211zbWrHmpOOfss2sir7EXmH8iZ3DhAuTLTCwT0j8BfbLZP9NFmImHwmWuRMh1uJTjwxKecSs+j0OkU7yQx3sXeL/QTbz0ckUAPgy8TgOvoDC2IgnAMUhHPLN5/NiPjY6Hbdu3xk9isvmIgW94ZFdYs3pt3DVM/JSd921bt4et27aE0ZG0K7x3IP2sJeRN3iILyoJAtHkMIhHBUB6kwzfA8Q8O9YeFCw6JrtUqjI4Nx9/ZXrhoKIZ7eu1YzWXfDy6/k6FwmEzH4o81bw+gNlDdAGRKGuDt8StMOt9uCoOUtnUjBIhnRs2NDiROu0DI3NhotYF06Fid2DWSlsJ9OaSjTUX2SGqvRM60MTdY2HMOcdHjYoeoTuhE8tiQPyJ7+x9dgB4Qxk+98Ldsd/dbquhKD+SXPo/zYsNGdNvNyHMif/e73x2PKeWXyk9+y9MROXlzfqYhcusn37z9tnDfqvge+fRll11x4BA5M/KzzzprFpH39DQigddEXqM7zD+RM7t6y1veEpdDcyKX5GHpNOgI8uc6Sadwruu1Kvs4BMRrqOnHbV5HEV5P+80OJ3i/sLtdypPn3Og4VonK92nKwmof+QXOAQIgBvkhGc30IjFYHSCbzXa+thphjxhBc34xZ/fyViPu9MlMdi6n3csMnukmIG2Msk4RiQLShqypCzdvzKjZGc6g65fJfb3Jg/x4xkxb6hkzz5CZafOxEOLjgGz1Sm0G8aW0tJM/V4JI2pM6YfwS8mCzIRvqfNsBwqoj9Sct5Ko8IGXaUcMncQhtDYnzmAA/NiJt4lUf2hwbNmspTxEuNupvtJdm1NITbhFz63gA8bq+AO2geInaDOEVOdw83sPH7S7l8XmeXoDirfrRFZEjxCmeY4HIn3vmmfC9732vI5HbWW6eyHQMtI9lZm08PX0rS+tG5B+76MLpKy+/6sBeWvdErk5jMGd2VWoir5GQzr+IeD6InAGcTytC5CytY6dBUgLKwipDOpD7JUKu8+Fc52fkPq4sLHi92k86gN+HgU/TimMgLSdt6WhL6aQH6BEGdFzaievdXfMR7AKHMCASBkTOLcvgkUTI38rfsGFTXNIF5MPgD1mwbMtyN2EAmXAOWQaHpNlNvdT6BXrsRSDUh7zRUV/VFeg4WkhL45SrdLgTNgsFGrA9sMEeUXtA/GlQpw6J6OmniehaNwKyQ89xTcdwqtPseiWoHD0uoN0QHi/wjvpmazsImvZFr+PApT04DuqIn3MFMYuUsVlwSPqGushax0vdYv3MBp3ahXTeJv1KWQK2iPyA8rw+P06aTzr1udwm1/kwGxp9OJc8TwRIb6chumVELhvNyCFyXj9jaV1t0InIJ62AeB6MyW+77bZw76r7pz/2sY9NX3XF1fufyG02vtOIvIeldU/knCyW1mMjhKlE6OkgzZldlZrIayTML5GvWb8uEgJEzuwsvnvrLjzfLxX28Tlye73ClKfJdV68zobxWXHtRJA/17Wz8a63065z2hK9rlkNvgz+8isdMz1m1swKIRhIGGEmqKVc4kmDDWRCGlyE8gBlrTj8iJkZup5Zo8cPaVM+YeIpXxvLRNJ9/b0zz7HJWxAJAewQ0uvYyC/VI5ETfvTYAewom3oLOn4gP2lSfoT4Q3rq2iJ2ETr69NrWZJzp00ZjtIfFUHeIGNKAlGk36oSfOMgaVwSrGTi723VM1J12AdgAzajVXgB7jhk3vVqW8kDUVghh8pFLfZQutV06fp9WfonqofjchrAgneDtclE+VoPd4rzk5eX55pvdENVTadsRubFeyseA2+Qz63jpuDyRs2sdIudb6wfEjBwiN4lE7pfWU2eqibzGXKABIV1A+5rI125YH0mBbyR7IvcDEPBumV7YLdyYnQ9QGNEA63XeJidyxSmN6pmOLcHbCZoJcvyaAYpIPLHM1lvI8oUQICyVRfsRRiBmwgzIxONC2AxumgEyO0RELhAUdqozAxkg7DeRAZH1gqGF8Qc8hgYXhMGhgejys5HM2CFrnpkbXYZeltTt/BOOz9KtHBExwgBLOf5YBPzoiVfbpVny7HaGMJVXGbAFakNgKe3PdHxvmk+j4lLP4V0j8ecwVX8+mUr89m07wradO8KukfSFN/KkPdlYBnnrBoIbJM7B2BjHmX6NjHppBr1gMH3BjDaAtFl9UntwPPgVTxmqO0jhdPxqA7WRhLrJVu2mvqDZdg50Pk/5gfyIjlt65d9OZCvxm93KJM8zT99p1zr+fUXkt956K0TO75FPHRBEfv311++6+uqry56RG3mnihdxsE3L7AY7xtlVqYm8RsK+IXIunNTHdidyBrd3vOMdzV3JaSBq9stZF6F3Af487MuM8bx3Ir+zl8sFTxql49qI14fFU0+Sa5DFZaCmfsQxWCud8lOY+mNvZtEeghPhQSAQho1NkWAgELvQZsIQDq7agBkxBAJhpDyn4jesWRbnoygAQuGDHpC0gN3EJEvTjfh8GmFwh6RXrFgRjjzyyHj8OhYInHOgNgEcF9XwNxr+hiT1Cyw5r+k9aN6PTuH0mCTGmktY55bjwI/gV3vLlvIJ63hTPZIeIgeqJy46nQNIFh1p+WIX6dMX4MbCli3bbODfYm05asS8PaxZs85ucjaYn7ZNX1TjmT9fMIs//pGyjOWQP/lC0LQj+bNBk5skXvNaunTxzKrFiSeemOwb6Vk1ojYF1IkwdSUvZvjkxzGiax13SoOtROFuQH6C2keu4PVVonjy82G5XryN1XSWLrfJw0C66G8uzVc9I0e4sXrhuefiZrduidyYMOoaRbITka+69/7Az5heddU15XeJFdDR7lNcd911u6655pqayGvsA6Tzv6+InHwYoLbagOpn5J7IiaePAtKob+ZuFYjXoBh3Ljfh00sYQBlIIWgAsQDSInalzAyqxJEm6k3HYIGOOKDZGIBYUPc0WjuCNYtjoCcdMwlmz6THhawh5LgkayANg5SEPOO128wLO0+ElMNNEUSt5dpFh6TNZfhVD+yxg9jR6bhoB+w8Elm3ziN2Hr5O2OHKz3GxVI0NOuw8OAbKw1ZlYEf7AtLP5GdtyQ0QzMonRLkR4gaIXfTMoNktrxsids1v2pja0ozjTJqbIMqjLjpnCHEqx9ePetEe3MnRRoR1c0BYx4zLTRU3VNhoteO4446L9n096QaJOJ1/QJkAW+xIp2NFRxkg3Ryla0lt5P2doLYE5C14P1DZXgDp5c/j2+klVtvoKh9JVdjnF/1tiBwBe0PkfIufc0jPueOOO8L99z0Yifzzn798/xO5kXjc7MaX3fggjBE5hM0HYcqIPNZBByvURF4jIZ3/+SLydRs3RCJ/5zvfGYmczTEa3Dz8xej7qvf7Ac7bUW9EOl8vDcgAPX50Qp/5pUfIh0GZY2DwZSkaKA+IggFb5DBiMz9+TxkdYY5NS9zoIG9sIRQ2RzEoEQYM4szG+TUsygW4IhTy41vfuJAOjyZ455obBeoIodOmqr9AWG1CfXJgK2GWSj1UJw/fLghhAT9J+LEQjlW2Klv+ZJfyll5tSN0gcI6XmfKOHXz4JPUtXL71zUybT5My0+YrZDzbZkZNm8fHDnbY3Kwh5E1e5IvQhtzMqL1UD8LoObc9felb64janDoD1Z8bBja6AQidX/fikUQ85zaOHnvssTEvyuScUAfVh/TkyzFz/GoPdLhcSyAvU/52IH/Ew4fL4nKhTlVxXg90/mbHJ5s8riqc0rT0nZbWwd4Q+cyMfGIy2IycXz8Lzd8j3/9EfuWVV8Yvu23YsK4m8hp7iXT+54PIv/71r4f1mzbGQZPvI7NMSXdkwNOFCPyFmLvYUi/6tHQSlU+80gDFA9JhR53QMRPSbIi80/G0dgYzOOPHhnjiVD55QLzavcwyepqtrYmDPfHE0X4M5JqlKT15MlNuPUediDNqlsEhaciEOPya1ctFVHfypCzy98cNCFMe8RLKkk42CVqFoB1pQwZFyKzlsqs+kU0rnnS45JleR0tjDvmLsAiTN37fhtSdgZl2jO+mxzqmRwfspmcZmxso4rXxjGMmX8pR3SFOSJPXx/DTx+hf3DSqX9CWtB/pKV/txvnV+R7hnXWrF0I6L2o7pcMPkXN+ScuN2aYNm+P33JUnfurD+Ve9BdLQJsoLV9cfULnye1fQ8QtzCeOXKEy7eL0X2cgtl1ZcWV7t8kdyIkdIIwF7Q+SWc8yH98hvuyUROV92+/PLDoAZOZ9o5T1yZuRnn3VWw4icytZEXmMPkM7/viZyPSOHyBlgIXJmMSJy+iiQC0jvL0pAGbE/WzgNfOVxgHiOQYO0dNigx151Jj7aGFFBItSJdAza2kyGENbSLTYIRMNAjR9b8iR/8sMVsTCQqzwIhdlzi8QTybKxDD0krrpCRiJsoLqTv44Xob78RKbCKgt7oHZWPPkrH1zC2Ka6Q2SQDG2WnoVD3MyICXNeCePybJl40k1aPr296caINqKtIC/8tJ9+m1plomdgpt1UP+pBe9Ku+Dl2jg17PUbATxvSTgAdaWWDXjryAiJybBAgf1lbyEb5+njA8XKDoXpy4wGZUz59iONmXwL14Njo95SPXsfJOSUfwkDlyF/mloF6eeRhUGWDK6Euuc5LVVxLn9zUh1rx7cKttOZ3RC4bXAnYAyI3pM0zrPTQnywi3PbNb07fe899cUb+F1deuf+JvPmMvFiz5qWe5pfdOOiayGvsAeaXyDds3hQJnI848CxRRK6LVK6/GHO/Bj3SAcKko3x0XNQIttKLGNCz9AuBaIDHBlvsdmxN3/7GVsTLoAwBQUToIB3SE0dahMGaQZpjPeTQRWHRwkPiZraB/sFw+IrlYemSZTHMM3SWztkFjl2fEeMkRGntxOY40pMvrj9ulcPALyKDEATCwExm0kmnMJAOF70vA1ix0U9ZQPYAPeVTrupJmLagTYHdB8VzIIKOKxUWps30NTPSkgdpCeOSt84jQjsjHKuEc8dPYuLHHmKOs3Crh69vOhT+4GflgX7C6gvnntl0CtP3ODz9KIknU+qsfBHqrP5G2fhxAemwpd/o987ZmMjxU0fisFm5cmV0iefGDj/tRv7Y0Cb+OMrcdlB9PMp0AnGKl1/lK+xFerm5JH2KIx8f1yksscsgxlnsjA0ubSWbvSFyxiPymhyfjD9jev89cdd6+POrr2rNILpAKmEfw2bju/g98nXr1jTOOvPMekZeYy+wb4hc6XEZ9PSMHCJnqZjfEOb5Lt2ReGxTupSHLlp/UQLiuWixZ0AEuogJk1wXPcAeouDiR7BhsGVJlIEXIpmwARTihnzWr1k7k560xJHnwoXpNS3ADBtC4Xk1AzKzP1wEsuZQ+JlK2pIZAM+dFWZpmpls+pRmaifNaFWuSITjUh0AYeqvGwz8Pg1Iy967AxvfJoC0QPnTpvE9dquj2hadTwcxI8xEaXL1KEcAAG0mSURBVE/akMcJ+KkDv25He+MnD1zqTVmEaTv86CBkwtzYabbKL3zRnvg5zrzOOn7qnOqbbm7kJ54NjzbqRZevtPFJVz7ROTE5Fnp77CaoqeebA7hT/GqZ2auOQO0r4Fcby466qQ0JU6ceqxt2ELl+JpT+xo0M/R5iBzw+4SYEW45nJj0dqAnqoOMG+NUeVegQPQPlgzvbX06wrfjZ/lxntYyu+o2kU1iiGbnFzpxTL8TtDZHbVRZDk2MT4fbbb59++MFHWFoPn/38X3ZN5M/89ZfWpBL2MZq/R26zhnU1kdfYS2ggs/7R0wijI3tC5GmGwYXniZxn5Ju2bokD2vvf//5I5AzcGpQ9GFDSoMDF2wo3Ggy4DNh8w3rYyJdlbUh4JJIxxMLgySdE2RxF3gySxDGYUg7xELhIBkIB2C0cHIrvT/cb8fLe9MIFNmu2mTK7pln2ZohhFzUzap5nM6OmarjEcxjko+tL7UCYuoiEKVtxngxAvF6tvPg6lLUfeWqpO56X5g0Bbn6DwNK3T8e50NK4D6fPwLJSwaMCPheanjlD4rQTqw8QNu2ktsMPuOGBPKk/x0R74o/Ea+eTfCBoLSNzXJAWApGlfpFIivZHr1k2wxNEjp42Ulsiai9AnWgnysQOxDwhcbMlPWHqiR1CPXFVNoKt0sb2t3FQOsLeRmHy8OePfAHHvMvqRZ1oL9qJNFw/rOig5waItNwEctyARynEkdfUROtGjPy9m0P1mo3dbcvtEoiTpHDr+HGpkw939rfCOlfKw+t9vPdXLa3T5vK3I3L6NHbJn9wmmg1jeZpv2tr5n2//5+kHV90XPvKhD4f3/sJ7p8//1X/T9fL6rJz3FS6//PLhL33pS2HNmpcaZ55xRiRyO/AGnYhBj4O3LqKGiS2WHWRN5AcJmIi0R4vI6S8Q+Zp1RuR3zSbywzIit24WB5wiEkR6LsnFh+BnWZXXPdau3xAHsfPOOy/OcIlnsE9lpsE0EQM3oCzL81vUOyLh6NksYS5IvSfM7mV2NccZouXPQMk3woeH06tGusjRc0wQzCFGwiIVAJGgP2z5Mpsh8oya3cZ80Qw/5JvqQ7kkIdx6Nsz1xCwtHQdEBIEIKhdQH8rimBEN4Bw7bTEel33T5jE9gyZfwnrvOQ1WidjjwMTIxBVueWtXLkvI/E41lztLyfz+Nzc83ACle/nC2oivvjHD5qcw069oUQfaVO+xcy4gTY7HtyX1xk/dOV5IifrxPH/RooXNNxIS4THWQHLY5ONODuog8cjDoEyn/MvigPS520K6YQDeleTIdZQfz4O1C37aj0cz9E3akPfYaVu1I6s4zM6xpR3VH+jbykM3I+nYUj2IAyoLYKd82yHls7sLuFEm7OO8UDauysTvXeoJfLzskz/pWuHZ8fAPbo/1Y+mRnp7U19Bxk/nCc/kHYVJ5+sQu4JcMBW7RcGOctVmPKe74xq3h4Xvum/7ohz4Sfv7Nb56+4Pf+z86N10Qr532Ia665Zvj6668PL730QuPcc85pvPa159CgNZHX2A1zJfIRLa13SeTjRjT9/WlDEelxReR8EnHz1m1x4CIfiJyBCxsAsb3wwktxcKJ/4pLuxRdfjHVgloMNs27NdjTIAch7xWFphzekwSDJ7H+5kfPChTyTTES4aNGCmaVc6sj7yrz2xK06x4KevKkXpIuNCEl189cPfmwR4qmP6sXAij6WY3HeHld6jivqjWQ9QUPYnBOScuPADUaLuNNMW2HynJygrJ4486OdIGFm1poVEqYcjgcb2pe2tKRxrEgz+/QeOuQroS0hac0e9Xya+kuoD8+b8XPsOk6A34fLoDjc3K4sXbu8PKryyl3qZ39jOI9Tfyg7hjysPkI7EAeZc37Bxo2bw9NPPx2X27dv32l9rT9+q17tzU0uhE4fIK3KJK90g5vGcfV59UuF1ce6QTre2W4+I/ci5DrvVgl1Tv5E8rvrm+01f0Rucc1Zud3M2lUZifxRI/JLzrsgvO+d75x+57/71f1L5Ndee+3wF77wBbtYVzfyXesZkdsxpqPTwQo1kR8cmG8in2qmS3kQl8iPWQnPyLfYRUj8mWee2Rzs0yc4mbFwgUKAhEmDMHghpGGw0+AGkTDwiVQgGfr0QG+aKaJHGBRZ8maTmb6wNrSgtdsZpOpCYmlGQz6qg2Y4flYtEMaW+gD8EC96jkPxSkt+ypswx09adITBhNnws5zMrHl2m/ZlpWe5LBtv3LA56kdHxsPOXdvDzh3DYXhkZxgZTu+pb9+elm5pM1zKhLy1LM7xqG3xx/axGxfdsNCm1Iu207FTP+wgbvTYKQ35yIbyBgbSDm2EY9NxYYdOhKM2KwNxeXyZfbc6UJZfue1sIgcKS+fjBOk4Xs4v4dS/Wzd/xHEzyoycFSZurLjZ4rwhtDFETrvTvpwL0pEPq0KcQ+LIGz2A2IHy57WqbqD07VyJwgJ+ndc8HrdMsE/u7HAez6Ns3D0mcuVvp8Osk84cu6oikavtiLvj67eEB++5Z/pfX3RJ+Mw1X0gds0uknPcxmp9oLdavX9vTfI+cg7Yxdnq3Z+SANE1nBjWRHxyYbyLv6U3vSuNPSBcfM5B/+qd/ikQOaTNTZmBPS7+JsEV+gAFLZEL/ZVBDGOAgbWb1uAA7/OxKtswsT8omH/xpSRpXS/MUgZuWxtPgK4KhLqo7eoQwojD1BhyX4vATx7NmDeC4EzaoYw/pAaUnnjhIlvSyhcgZsFkaZ3bLwDwxwc0NZbKDflsM79zJc2yWbHcYOexs2k/OakO55A8JswJCe4pYuAFioxltJ4IgrONRmwjkRxzplTd1Btiip44AO7nkBXCTzWzIFmBDWKK03kbwOvnL7ITu7FP5greTCN4v6BiJU90VBnLZywCJs+lSX/jj3LFShMsKyFFHHTXTX4bYn2H56TypD6VwujEDzQXXrqD6AflznRehnY765vHSpT7TulZkMyu+SeR2RcawZC5EblefjUutY7FL3WDt2CRynsNbTuGWr38jPHTPqulfuvSS8GdXXHNgEPlVV13FJ1ob/vUzq3RN5DVmYb6JPBhhMsh4EiAMkX/7298OTzz1g0hUy5Yun7GhHAYuiOZII2hIjzDLuFq+pb9izyCHXwRPmYQR/P39zCLTUnRaniSOwRMS4hpg4GMQTAQPqF+y45hbMx7KZYBEfBnxOA2EgQ8jGlS5wYDoCONP5bTqy5I3S9voAaS+1YiZXeDr12+Mz/iZufGtcL4Nzo0HS9+6MeG4eIyxYAGyKB477casjhsebo5oJ8hBZK3VDbWpoDoxXlBfX08gndoclzxUd+y8P08nnWwE4sqAvixOecnfzq1Ce7vZ51jQcQh5fCustK02IEx6wKybPkF/pC8rTp99ffbZZ+M5ZwbOO+jYcz1w48o55dqhL6Uy0qqK8uB8JH1nqG6gnV+isFyvB15XJupv9j8Lz473M3J0km6JnGsi5ml8FvMz2KUdAZHHcaAZvuWWW8L996wKv/Txj0//+ecPgNfPLrvssl033HADX3Zj13pN5DUqMd9EbvPWOKh44kIYvEi/dUfa9LNwwSFxEMIWOwapSDg26wb0WfIQcQD6rPJNg2Gykw31YJMQdl4EbAhTJi55AfLieFM+rXhvS1tQrvweCpM/fgYaSJowz58haPJhJQI9gFCxQ4gjHTvGR23mzWBNWdQPPWVqJQIwuCNqH9pRdgsXpp3h+CmDeNIST32wFQjLld9C8S/pPQgj1AshP0RtgqitcMlPeoBOx+nRKjf5sZ9dnxbKdED2VfEC8cpf4RxS5XGEJR67h9Oxo9axe9DX0OuGUeePvsHralwbzM61D4RzyM2sSJ1zzqoJaVJerXrp2miHvE5VYe9W6RQGPuzjJeqf8JEP5/HzQeTALmvGPou0iUbzcQQ/mnL/fQ+ETxiR/8WfX77/ifxzn/vcrr/7u7/TJ1p5Rs5rZpzcmshrzMJ8E7l1uJmBXoM8Azjf4IbQGvGjHIlsm300Cj9mAIzOokt87Leun+Jn8EIPSKc8QNJbeuvDljrqlL9smMnK39IxmDQ/KmPJVX/02OiGg+ebAB1kCylrYEZINzY5EWfZes2IARpb8sOeMHoGbNKSF8IgzIDNjBvihYyZiVE2egZvVihISxghjnJFksQxW5efMmkTHaeeaVOu4skDlzBiRxfDAFvVT8dIPVVv4MvBHuRpEMKKB0ov10Ppc5TpgOyr4oHiVBdQbl8ejz+3L0+f7NR2LaR+TPnq1/QBrgnAJkaAjn7CNccqFqRFe0PipOHxEpvj6COUgV79M523VhuXgTy865HHtXMlgg/7eAl1S+7scO7fZ0TerMcMjN+mLThd9ExD5GYVN9/yidaLP37p9OV/ftmBQ+T8Hjm71iHy5oVVE3mNWXg5iJyBh7SAvgeR8QEU4m2OPhOngT3OJCbS4Ne8HmcGQbn0V9JpwMIlDj+u/K36axAlnr6fSA/iSQQ4+11gEH9ru0lU2CKUg8uAy8CKy40Ifj7JqRk1+TAIr163Ns6kAMSJjjZgT4DyJMxAzBI4H5ahPthqpqX6pdUFViYYY1iK5YaARwrkQ/15JYy24RhIw7v1IzODPscB8FM/XMDxyk/dkYRkg63aD1vE2+F6PWkQ2lNxyifdHLTyUVj5A+8HvnyPXOfrqrpVQWlJA5Rud7SIXJBtuf3semnz2e62qS9x7ukTxHPOQbpeZv80K30Me56fP/PMM3G2Tr+ib0Dk3MjRV+k/PE4hLW2rx0VVIH+V4SGdj/O2Zfo8zutzUZ+w/86/O6HDP/i12Y32Qj9XIgfGdtGNaPJbaPRMsw9l2uLiz5jyoymXXjJ95V9esf+J/PLLL9/1pS99qbF69YtF8xk5jM2JjbvW48AwPWmq2FixDjpYQKfSUkRN5K9uzDeRo0wDU+p3DC4IxAMgcvU9BiIGK8Qu2ZiO65G0gHTEEZZEW0uPC9BRLoJ/wgZSXBDrwwXcnKHLjsGBTWQMCBCf6qGvlTF4EsZWr3CRJzck6Blk0ytbKS/qAzEzoAKVLz1L4hq0ZU/bEIceP0I9cK3Sljf15xghlpabNjNBEi297JMbPRHyq72B9wvYSWJ8F2OAL8cjfjEtg2zzND4sv+rn05TZCd5O8Lrcnvy9Li9PyMPA6+TPXeUvEVp20ZmFVhw3JK060f+5JlgJYpWH/krfpP/RJ1m1gcjpNwg3i9z0aQVI+dCnVB/6n4f02KrfCuiUh1wgvRfyACo3F+k1I/c67/dELh11hshlx3X6/LPPzHwQ5n3ve5/FN8cEOzzsgF1p0Y1/bRzg6Gx0mCaP8Yn4idZw7/02I7/k49OXXXYAzMh5/YxfP3vxxecDv0f++te/1uoaB7g4I+dEQuTo7GDtOFPjCZwEu+dJ/prIX9V4uZbW1b+4uMgHIsff23w9SbMSgNvXm342cnw0/foUaYDPh3SxDNOlPFuDpuxGxtKHVtCRDx9A4UMoo6NpVzwDHkuXDIoMCOlnMtPNAOS8bt2a6KqODKLEk46wJ12ImJkRZIwLYafPzrYGKMX5wZRj8ccgcK0SJ2Dr3Rzt4nOdLycHtjP2c7z+83Igcl+W4nPXo0wH0Pu43E7h3AX4c3sPxZXV1aMqD6/PbQhLBPkzU6eXm+qTp4W8IegXXngh3mzy6hp9Re/108/Spsa0x0SvrnEtqH8TlutF8H7g48tcL0Kul6ivi8j9NeLD+5LIo32zGZmoxlvgKfNZHtzI33LbN21G/lC46JJLwucvv2z2XUwHtI54H+L666/nPfJI5Oeec06ckXPwdtLiMcUGaRK5KcDMwQJObk3kBwfmf0aeZr70L1wuLvoiYQYVvlwWw9wvm44ysNGA02tCOpF2uoiTLTqWjRnQADqfP0S7bsPGGI8tOnYAr127On5RiwGQcthMlEg8vbIlUB6v+UDQCAMks2x2DDNIkh+zHj2XJAziAGLAnq+ocRyA/OIxmS2gLE/oAJf0uOQX87RrUPFCu7D30665raD6esi2Kk2Odnaz6mFl+XC7ctrpukmH6+PbpREUpzYps22XXqhKJxHkV1/hTAHpveuFG2D6t+J0rbDLnR3uXJvDw6PWJ/vikjv9jZk6j220CkS/BByrrgsvQOU1u+6M3tvkOh8Hcn0u1M0c58/j9p7IlYZxDpfxDDLHh8u41hN6pyHy2267Ldy76sFw4SUXh7+48vL9T+TMyK+55hp+xjRoaZ2DtxMTj4U/EDmDiB2sBVPjCfEE1kR+UGC+iZyexAXlyReQF37KZ2Bh5sYsgz5JmMEp9dNEaNiTH3lhxyyamTJxzEYIo4eMKYu8+Z77tp27Zp5jk7eIk3AsvzmQMktm1iKbNLNOm4YYCFU+esIaTLGF5InHNtbZJF5DptOMI7ZFUwhjq0FUuhwxLrRuLMpAWo88PPMssEvslr4DvH23aWVXZV+mL0uT2+U2ZbZ5GrV/jm513YB06mdA+czWp/Pv4wDx+CV25US9QB+iD9KfuTFFePzDzSnXEPH0T1aGuOHk2tKrh/RPQBv4dlBfJOyfsctO/tz1IqiMvCzCyZ90rfDs+H1P5MCTuTFd0ZienAhpad2I/KMXXRg+f/WVc7pwWke8D2Gz8Tgj37x5Yzj9tNP4RGucfRvi0joHBJGnGUNsKBDTCvVmt4MD803kzMgZUNLFB8GmwQs/fW7cBhqRIhckd8b0S/zMpEkLSIMfombQgpxF0Axc2OMnDYMU9gxm2v0L0EPCGsjSQNUTyZnvqROHngFPy9/Uka+TqXxmNaSjHs1rKtaXAVM60mATj9+ga4uwv87IU/YgtwfYdAOl9VB5ZXGgLK7Ktgqd7Mvi26XpZJ/Hl4Wla5cuR1k+ZejWTjCOiDbxS3zONupMWue31Qdkl/yzzz9Rvk+oD6JSv4HM+YwxG+LSNZXInH5KH+c5uvo36dUHyZcydW0CNoslN/GG/FWulzLd7pJsVIfcv7dETrqUj7Ud5yLWykC+FuiZiqt+kciZkd997wPhY0bkl111ABA531qHyJmRv+61r22cc85Zs4gcN0y1vjhlAtDPQJvdbN7Q1NR4NWK+iZwfTYEA6UukJ5+otzBuwwYTCJm+mJa40+9VMwgRpizieYbNAIVfA46EfJlNMzhBwvrgCXG85iby1mwaF0D6pOWiZ1ADmuFQH76YBpI/PWcnDhvCInDiiaNeSqs65teVIL3aBmDv05BH87qdBWy6hbeVv6pOc8m3DGXpq/LstqxOeebxCucuyG0BbYE+jyuzBd3YeZ0nckHxuJzjhFQPEO2bfgvNCuPIT93pP/SR9NZCa4UJG/xcR/yEKtcR33KnOx1zzDFRmKVzDdCP1WcR8lW/890PvfpOOzfVpxWW5OFURurvSpP794bIp21S0Fukn76d5DyYO9VQe1u+9rcwAmdGPmXnByLnGfkFRuRXXHHF7hdeG6Sj28e44YYbRq699trimWd+MkPkHDyDTF8fP8Zr4+1kmj00TxxIiZuoifzgwMsxIydtyiMNQPRFCBmi/tHTP4kbdohjqZyLUvFpmTw9z6NsBhyRdeyb1nexhZw1m0bPrBkhjZbLsSOOC5x8lD5dA+n5O2ERM3oNksmmNVsR8LfyaBG38sHfiJdbAvGIR7Sx9IB0oBWmPfHNzsMjD+fIZ3Q5KB9U59Mqe65IeZbnq/I61T9Hbl8VxvVxuZ3A8ee2oMy+G50P4+c7+bg6tzzqkM0svSHpZ9eH0yOC1rnCTzxhfdJYfUZ660UxHatUXGdcW+x0R3TzyHXEc3SuEW2GA+Sl/JrOTFwqs+XP3TLxcfKTfwpXEzku/IN/T4m8z/5hB5FP2SQWIk9jnrUZTWz01ksbThbTEPk99z8UZ+RXXj43Ip+Tcbew2cc0uxf5fu/qNWviRgjec9WMhhPJEicnGviO0wIdrP0gUKNGJ2jQ4IJrDT5sOhuNs4VHH3003HfffeGJJ56YeQ+bQQcw0Bx++GFhxYrl8TvTJ5xwXDj11FPDWWedYXJWOPPM08M555wTzj337PijK6ecclK8qTj++GOj/ZFHrogEz7PudBOr5f3JeJPAAJi+W56W70Xg8VqwmUBff4u0NYjoOsElj3QtpRsBD/LS5iKgNkiDUBLqlIN8qJekHXxdqkSo0gOFy+L2BjrXufi4uSJPp7B0ZXHen4sgf+565GmAdNL7ePxzaVOfNgdxvv+oP+IClUFf9P2RG1+W0k844YR4bXBdcF1B8LyBwU00/ADZww3iBPJV3qpXWf2q6uz1+LvNoyx+z2HXst0JIxHN5XQIHKEkyuMX0oAIfk+wL2s9C5/73OdGP//5zxfPP/9sccghhxSnnnZyHPSOPPLIoreXBwjp4OgUdgKL5TajAmwa4nkKdzMMJPHzdTa94q6FzqHBRR1Kg6DaKsf0vB1hjW7QecbdCel87+mMPHWL1HdIr6V1fr6UXz976qmnYj963eteFz+AMjg4kF6hGejPLmoGAy48BrBWmJ/otJJiWK7ic31y7W+sY/KXQeXSp/G3u9suG3iUd2y59CirK7Srk4e3q/JTL6TbPHMoXX5d58dbVYbsyuK8bi71y23LyiYsXbu8c5t2aap0SE6k3ha/6igRFPY3a4r3drwumSO3K0vnoTpQFn5uQCFvbpz5uAxxjPnsbOfTr1yHrFoB0misJy1h7D3REyZOOh82J/oRIL9Eefiw/AD+iPna9RvdEmGC+vyzz8YZ+Zvf/Obw3ve+N94kU1fi/XP+Flmnctnshn58cirOyPmy20UXXxwuu+wAmJGD3/3d3x341Kc+FX7tN349nPu618YT953vfCf88z//c3j44UfCpk2b48nhgJk5MAviDg0dJ2Jyatwa0U5if/q+MzpAPGHu3LiDq1GjM1qDVQ5mzPw4Ckt8CK9z8TybWQP9Un3Ubj6bfU8XdLrYW0vHGsQ0aKYBZ3c3SbR04Vwf3TSW7AYNNEgZqvQeebkqU6jS5/B16abcbtFtXt3Wz8OHFd9JymxznQ97f5mkAb48bi4iyO/1Ph7kcYivh/ypf8/255Lbe7dKiOdaYpYOaTNL/9mf/dlw+umnx5tnCJGb8yeffDI8//zzMcz51SxfNwJch7jEkZ84QTodHzoPdGWQviy+XZxHVfyUcZifzDRsHNCMPC6ttzBj1b6kcswbkYPf+I3f6P/LP/9830c+8pHw2nNfHxYMLQpr16wvmAUhP/3pM3F3I2B3L0vxDJ6cDLvnimFOHidxormE6E8mJ1Fg0Ksa+GrUyKELXs+9eT+bwQS/BgqgQcILcRIQ++seSo4ym8mmcMswFwHKw8PnXSUe7eI8fLuobfYGPo+9zTNPr/DeikdZfDvx/cm7Xrx9Lp3ikW7zkU2Zn2sgvw7KrotOQhqAnxtoyHzlypXh6KOPjjfR+rQrb4Gw6sajLyZ3PAZD7/ue6kccM3xxg2yI91AYNxfphVzXzgZ4/1xRVd+5Yl6JXPi9//T7vTfeeFPvAw881Pu2t70tbN601Wbn3ws33nhjeOSRR+PP5XEyAM/OeX5C1ThIDhDCZoakTUI6eE5kjRrdwF8o6j+4XspuGoXcVvZleo+yeC9lNmW6PRVfRw9v00mqsKdxcwHnbW8GuTztXPOTrdLtSxHkz+PnIj6995cJ42YnPX5JmU4iQs9dL0pLHH6uLfoHYcZ2SPzss8+Oy9Lnnntu3M3Op18fe+wH4fvf/3744Q9/GGfnOi7SI4D08AKCX+XpWsaPAPk7iWxz14t0Hnl4T7Cn183LzoRf/OINjU9/+tPh137t18LrX/9Gm5GvDt/61rfDP33jlnDvffeHTRs32wmxmXkfGyLS5y0RvsBlp3+msThR6HNMWzRSo0Y30IXPBaSLiLDvZ90Qtkc7u05h4HXsEbHS91iA6uGlSp+LtxPyuCrIrp3sKfw5EqQr0+8NytL7srzkce1QlsZDOi/qr+0EG4nXeZtudcpH4m2ky8mbsISwt4VspffpsCGOjXFsHH3Tm94U3vCGc2OYR6is4D7yyCPhueeem9mMSv+BA3TTjQDyIm/yw7+vRHnn4b1FnseeXBf7ZUr7yU/+SuP/+X//vHHBBRfEZ5J80m/t2vXhRz/6UTxhT//4J3EjxMT4ZBgaTK/1iLhx88asUaMK3fYT2ciei8kT+L6Cr4vK6haqh+rUrbRL0wnepipNu3x0jFVShar4XK9wLh7dHGcVqo65Cio7r0MVfJ29iNzk94SX+3ObKvHk6l35c7tcr7gqt0zymTKiOHQAF8GO5XU2vB177LHxXXOW3nnkxdjPm0+8kw434OdVNp0b8hV8e6jMuYryKdMLeRiU6eaAPU68X9emf+c//MfGJz7+r8MnPvGJ8Na3vjV+f/prX/9GuPHmr4bvfv+usH7TxriLnd+G7mn0xR+yYDsyM3Ok3Y7oemZeoxvkZE1YOlB2Ac8FVRe717crQ/p2Np2g40P8sQHvr0InG9WtrI55XC5lKNO3sweK8y6S151wN8csyN6L17eD6uAlRx6fE5DC7cQTpwiyLM7r8jhIVOL1+0JyMlc9aD/i8AP6ppbM2avCEvuZZ54dfuZn3mIz9DcbwR8dNm3aEh577IkozzzD7Jzn5/RpbhD4sAyPX/m+QvotdUHtmYvicvg4H69wmW5PkKcj3KlflWG/Ejn4j7/7nxp//CefLa7/4g0FL9Ijr33ta+NGh1tu+Wa4/fY7wsMPPxy/Zx1PsvugAZ2kRo29hb8Q1bcYXBh8CLcTn7YdZOdtq9LlNlV27VCWhvoKVf4qdGMDVN99We9O+Sg+d3N0ewydsDf5ULe5iMivLIzfS5V+rpITsRfFe7edQM7Uyd8geL/i2eQMeROnm0380rMx7owzzojP0Vl6Z7Mcz9Hhhh/84Adx0zTvokPelKv80+ui5X1KUhYuQ7s4j27tqrAn/Wu/E7nHhR+7OFx04SXhQx/8SDhs2eFx0xsfDHjiiSftDuzx+HyEHY27do6EKTjdpuT8AD4//QjJq+NokwN+dIIaGD2go9R4dYOLQgLoA/5CUz/Rczbs8LOUh/A9g/jNAyfx/e6mlOm8CHk9ypDXrRuU5deunDyu2zKrbLi+8jjliVjsbuLbp7dhA64NthJvE9u2iZiXlaXyvAg6trLjQ5Te51GWZzfIy/HweXUS5aGwr2Miot3rrTjEx0nnJbeXMPYh2igmkb5lS9okvHLpw1U6CXH9/cySqTcTL26OqRP9JqXr66OsFC8bdAg21glMVxhxD4WjjjoinHzya+KHl4455uiwbNkSu0bHwsaN68Pzzz8bXnrpBeOHDWHbti1hZGRXvJ45fss5Cl9jQ9K3H2hv6kgbivCTEMaury99nVFCXrnQRpxD4oH8crFph/z8W7h9ggocUER+/kcvKH75V3+l+N3f/73i4osvDpde8onw8z//9vgshHfQ//Zvvxy+97074y53BluEpXfAz0My8HIHRwPSwPjRaYAG6sSAVxdq1KBv5EKfQariu5W9RVmeXmQjeH8ZOg0sVeiU71zg6zCXfLHdl/XoFhpky6RdfYjDpgp5XrIt8++peALCn4u3lU3uShg7fRjxpJ/fBFTFyY/kNw/ejxBPOYD25O0lvg7H7va3v/3t8ZOozNb5TsmDDz4a7rnnnpld7qQFyo/ZOmO+JnpAN/A6fkA56Ijz8DbA+/cUlOUF6HjnggOKyD1+71O/X/zJZ/+0uOCjHw0//6/eEQn9rLPOCRs2bAp33XV33Ol+H7vct2wNvf0DUSZs3E2/bsWnOaeM5Idjo3AScTk5cZbVbLB9cSJqvDpAnxB5l4m/2PJwLnNBWXov3aLMvpv0Slcl84V8UPTllZWreG+3N9dvntaHVTeEccOH5yp5fl7axXUr1G8+RYSqMdSHkU51kJ33+3CZ6wUdhIwLIFfOPzq+z86GOL7K+I53vCO86U2vi8/VeSzLDve77747PP3003EVV2l0o0DegHwRjkPQMalMkMf78N5A+extvz5giVy44IKPFeeff35cdj/vvPPirkZm32yM0y53XJ6XjI9PWIu0nsfwbCVvFAZhyBxgV6MGF1AZYe+JKL9uZX9AA1HVgFEWX2XbCXk+ZShrB6/z7eVFcXuKvF6qa1l9fZwXTzpl4m0Fr9tb6QRs8rr4+rUTxtCqMP48HqnKX7ZKVyZ5GoRrEjBWs8IKGVMGekidMDNyfgOBL8SdeOKJkcyJg9B5ds4jWT1DJx35Aq3WSoDqj/tyQGVl5c258AOeyMGll36i+D9+/deKT/3BfykuufjjkdTf+IafibPzO+74Vrj55q+Fe++9L564scmJYJPyMDI8OnORa/mEzsKJVwfRyatx8MITQ1mf8PFzEaEsrhuZQfMZfCfxz531fDm6c0DJgDJLJ39u0w3apSvTl+ny9sGdS11Uh27ED7CdpCxv6Xw++PNwboMo7b6WvHyvK5M8vsxekyYJ4W7Ez47b6XlWznN1npcj+Pl9fn4TAcGvZ+pHHLHCZuVvDO95z7vDm9/8M+HYY4+Jr6rxw0jMzh977LEY5mtx4gPfn9QmgHhN+OYTKhuo7D3BK4LIPT71n/8gLrnf8Dd/Xbz/fR8M533k/LibkRN02213hFtvvTWeOO6+7NTbyWp9q12DtDqhb8QaBy/UN3Al0kuI9zYKe/H2eyIeZfFlIuThbqHByw8iuS6PB2W6blCVzus75dsuXvmUiUdZfC4aJ5CqePlz5Hbe1oe9Po+bb/F1KBOIrl3Y66ukWzsvELj8zMIVJg/VXeCZOfH0fZ6BE8ePrjAz52tx73nPe+LzdN5FZ68VK7jsdP/pT38af+mQGweE/AHXsZ6Nk6/gr689vdbKoHFD8Mc2F7ziiNzjui9eX/Add3a5s7zCF4A2buTTfk+EJ59M33NnSYU7MDoB0F2WOkWNGoCLyZPyXMWnz/3txKNMB+i5VcKvveVh6eaKfJD0Yflz2VNU5aGwj5eIELwut83DVdKtncosk07xSFleZboq8bZlUpbGS1kaRHG5fS4iVBGpD0s3V8nz8n4JJBoJOkzG31TnJ30HBvvC4FB/6B/ojX7c4ZGddiKnwsJFQ2HRIQtC0ZgOE5NjYWjBQHx+Dokjp512WvxxJDZH84trPI6FzPGzUQ7u4HoVaBvqkV+TVf49BeXkKNN1wp5c7wcUfuXf/mrxn/+v/xKfo7PTnQ/L8MraLbd9M/zTLbeG+x98MKxZtyHwm6+NPu6w0kycxtoXJ6LGKx/0Ay8iYS9lcQp7N/d3K2Xodmm8Kj3oNg8/eOBXuMzvdfsCPn/vApXFYC9/Lh552KMsXa7rJCKjXHIikr4sDy8+j27sc8nT51KWxkuZjU8rP+KPSyLCzUUz3bI4L+RZpkdIr18hxE95HoSZaZMHs2jqSzrVkzT86uCKFSvi7nZ+8vgXfuEX4q+usQGOx7F33nlneOKJJ+KX4oDK4RpOv/mR4K+xdtfsXEFZ1FvY07xb2/Je4bjt9jv+8K677v7DP/zv/+O/sent6JXH2Ek+JDz/wovhmWefCWvWrg07duy0E9Vvd3ODYcxses0/PsEdX2/82WaWZug4uPxkujWrndBJ6xhxrhMbWJ39YAFfz5veC9l7qFOndp+Y5G2EnXaz9mLc4HjKKafEz/wuGBq0eKyAzUh3K1vnLZ3H4ZHR8OMf/9j6xI548fJKCwNGyqEIk3YhYz/tSBnIVR/Iwx5RR7SJld7MebZM8yx7JpxslAbEOjSD7cQMdwurTvxtEC75hzFxSWxwdnaEWyH+pbwkKR5/9b927eORxxOeqb9zO4kGRkm36bzkeVTpvOSQnnQSb18mZem8v0xkP1fpJm1u48tFIEwf722q9D7eu2X+JPhbEt/xbjBeG1mbWIslv3sXvBWXiJLxm7ri8lyd77evWHGEzdCXRD2kzivNuCMjY3YzwA3EYLTn+u+JeehYUx0QujbhiYmJsGXrlvDjp58Oxxy3Mpxy6inBbvXt0mrt4eC6SkjXA/WWyzXCeMNPuK5evSacddZZYdWq+/6wadAVXvEz8hznnXdefAf9oosuCh/60EfCoUsWG2lPxm/08rras88/F3YOD4fh4ZG45J4G7/SsQq4GH93ZoZNerk5QjVc2OJcSnWd/vjuJ4P1zgfpRWZ5zQZ62U3hfoNv89uZaUdqqPPI66DglpJMAH56LCGVxiAhI0o1NblcWl+uqxOfTTbpu7LqNTyQ5eyXCi/TeRm4+C9eM2vt9mtyfC3FeBPyM9Tw/5zvu+rU1vuXOjJ1jYZ8V76DzSPbZZ5+NS+5jY+n7JAgTPD0/B36MEPhIGXrgy6+C+ii2uMCX0S1edUQOIPNf/uVfLj71qU8VH//4x8OFF14Y3vqWt4Ud23eFhx9KOxhXrVoVXnzxpUjm/JoO753T/iyncCIm+DlVuwGgc6QTxWsL5M7JS+8y+hNY45ULzqPI24vedvCi8+79iPLJRfD+KlSlayc5cn2nsAYPuXNBN2mqbNDPRdql8SiL31eiwRZ3X0pORkiZXTvplD6Pl3RjI+nGZq6Sl+/L8P4qkvdkXyaQNy7gmtUSPLvdDzlkUXz//MMf/nB0+bEWvgz30EMP2KTv3vjpV7iBy6W/nx3ygzGfRLQs3Q/EOgJm5pRD2JN5t1Af49qsibwEf/D7/7n4s89+Lm6Ke9e73hXvxPj860svrYkn6sc/fjp+NIAdjYAv5KXnMumkEdZJ0YkCNHqNVwe4eHSRe0EnkY0PeynTeVE5nfQ+3A3ytEKuKwsLZX25Xf/WoOMhXbcilMWVCdddlV6i69NLbp+XmYfL0ni9z9tLuzgv1NFLHufD3Ui7NFXl5HHexvtzyfXtbCWK93ZlOiRvQ+K95Lp2JK486Oc+X/wAv9LznP24446LP53KM/Q3vOENkQPYa3X77bfHr4o+/vjjMx+WIY/8WuL6t540k3+3kH0+rtx0002zL+gOeNUTuXDxxZcWH/vYRXai3hPJfNGiRdZwIWzfvjM89dQPww+N0PlK3JbNW+Mv6kw2f1GHxuXXdGiqeK7MTeH0DWDc9lLjQIa/kHICz8lcooutSid/t+Lhw2Xxc8Vc8uhmEMptCEsn/74WDcAajKukLJ3g9Z3Ckjz/MvG2c03rReTjSahbKUuzt/l0m94fs5dO8RLKkZQRMzvWJT29lq8Ld9Ij7GLH7e1rxF3uCDvgmalD1naFRFm4cEE44YTj4/vnP//zPxfOOefssHLl0XH/DD/Y9eSTT8Zld35ue8eOXfFTryy381sfiQ/SGIIAO7IonUAbAF2nhHH9RrtucNAQObjwwguL3/qt3yr+63/9v+NzdHa4L168OLz44ur4uhqvJLCD8SULM4gPDS6wRk0zdDqZThINTXyNVwc4n7oIEU/oudtJ8ry8DredCLkuD3v4QXEukH2eviqf3GZvxBPB3gh5tasP8LZIu7B3c7+XPG23Eompg458Z0isGd9OlK7KXyWqv9xu0uTSrh3axXmRXW6fhyX5cXu9j5cwdkPG+MmPa4hrUdczOsb2wcHB6AJeU+P5+Uc/+tHwzne+M87WmY1///vfj98puffee+Mud74cqnfXSUv5HmXXaw5s/HHiR6jbXFB+1R5k+JVf/jfTPAuhIR966KH4TjofFJiamghHrjg8/soOcdyB0TFofE5ger1BJ6uq4V/Z90rtfvP95YFunlJnHxmdsLviteHuu+6Nuzx5peTkk08Oh9k5sv4f36FmDwMvGnBudHaUnvPBRcLqyze+8Y24CZLzyCoNFybAbnI6fcpRZ08XWDtJ+ZfbSp+jU7zyFHKbsjQ58vx9GvySMuS23s2R6wnng1lukx9fFfK8CJflD3wZxOdl+nCZv1O80CnssTe28w3Ky8tUu3r93tSrKn+h7DwCZtQeVXZVegBp6xi59ulzELvS4BKHK9sYb4Pftm3b44dj1q3bEDfDIbzpwoyez4Uz9jB+8Itr3/3ud+OM/v3vf3/MN5bZrD/z8wTxhPp9IvDxyanwzW9+M9x//4PhYx/7WPjQh8+Le72aRh3R3VX0KseHPviR6fPPP3+aj+8zmHOyOXkspbB7kaUVTh7LKZwcP2DXeOWDC5hz3q1gn4vy6SRlqNKDPK6dbRna9dG59F/Z+jT4veS6PCwdyMNV8GnLhGsxlzwut/fhXO/d3Davjw/n6XLxdu3CuX4uUpbW5+mlLN7ryuJ8ONcp7VxFM2dmtIjCkjL7XCd9O/G2qjPQLBw95OyFJXt2uUPWrN4ifEVUH5bhgzL6Shx7rJjcKS9JJ+h6xtXYwo3BXEgczMn4YMCfffZ/TT3//PN86ae48R/+Lixfvsxm5yfEZxZ8lJ/Zusg+noSiNROnc6DHpYMwg+8t0snUiVInUkfSiTxQ8WqfkfP+KBcOX37iDjvZWiq9iM573tk500VKmEECeBsvlltpvCC/d9vFA9kgvv/kNnJl43UShcvg9bltWVrvr0KVfVXaudoDH8exl9l20smfux7oytJ4oPPnKEe7wb4q73b5dQOfvl35oKr9PIiXKG+5eb293tsDr5MeMmUcBYqTHbNnoGPweeP3420OXb9c+3pTSYTvUUymDXOsxFIeP9iFLZvfbrnllvj7HmBycjymfcc73x7e9773xRuBWL/mY/LWwsLsGTnjEvVgRs7GuvvueyB+2Ozzl13RvtEzzMn4YMO/+7e/MjU8vNO4YSo8+OBD4aijjjRSf42dsCJuluP9Q04enY2TwQmm00WddQpOJEsq6ki4dAp1Mty84xxoeLUTOZ/wzYmceBG5Xe7R5dx5IS+5VfFJH53d4hHphW70QGGvE3I7QX7v5joPr8v97eLaQfGd0rTTdWtfhk5py8rI01SFc73g9fRH4HVV6YRO8XuLvc2fcU7jmUd+jBKFvevHQ0HXF59o1XK3T4eIyKkDYeWBfya9y5swUF2VB6TLGMDjVX6jA2JHeDV51/ZdYdvW7THMiiw/jc0Yzwyc1Vr8fFysv68Rjjr6yPhm1Bvf+MaYL2VONxm8isi1UQ4iv+2222oinw/ceOONk5s3bbC7rrXxF9aKYrpYseLIYvXqF+OXwFiK5wRD7OoM6jx0pEjm461fYVNHwlVHyy+AAw0HA5GzegKRc3MG4jlxRM55ykXnDwE+brZUxymdkMeB3M7b5HGgnb/MPrVJCz4O5HmUuSBPJ/hnnFX2edp24U627VCWtiq/qnz31r4b+DSegMqgOI0xYE/KrEKnvOg/niiRWX1qenb/AvG6bIq/jqTzZcovG+DTc+1SvsZR8kMgUn3ARYQvPYTNuA1Ih39yajwSN49UlZYNbts2b4v6seZMXJvbGNtVLuM+K7Urjzk6Lr0feeSKaMcGugmbBIIqIsclv7GJyUjkPCPnY2aXXX7lnE7inIwPZnzuzz47yZI7J/f2228v+FH7E044Lnak448/HikgdDoFJ1edbOHQwEwYAXLpWPIfqDgYiJyLUkSu82TmET1Fa6DJhfxwQR4nsZJn/LJvxc0eqOS20wH8Pi9Bfq8DspN4pDZJ8HG5ncK5K+RhQUTu46v8oBu7PI1QpRfK4qXrlH+u65TOX+PAX+dl+XcL0pblJV2ed6eyfF5l6JQf1xI6Lx5sGBNyG8qesBmtZtQAV32beEgVv8ZQbInHRbRvSQJ0TLjMmpUHLjNp3g9nSZwfSoGk489fj4/EfPmSG59mxb9z50Q48vClcVl9cGAoLFy4MP7WOcL4T57YLVm6OH4mGn9fX3reD5FD8Dr8dkQOtLQuIq9n5POMv/vyVyb/6etfiycfUl+9enVx4onHh6OPPjrGc0L51R1O6vj4mE3iW3eD6rB0KHU2db4DFQfLjPzUU0+dIXLi8xk5aXF1vhROeSbkdsm2ReRIno/gbRSWW6Yvyye3yeOUxsPXH5SlBbleLu1VlQbMdUZelVeVHpTpclTl5zGXMqpsFe50fVfpgY9TPqAqjbcB3q5TOXnaKnTKR/EiXOl6e/pjWOXk+YiYSQf5Aa5H7Bgn+aY5hAjIAzvId/v27TGeTWfMolkS56aAdLjEs0EZW8Iqn4kWOsAqKr9vTjyvIfNojTyZSfORGDA00BfDLIGTNzaME6of+RLGhufkHA/58sYTdZ1q7pGqInLeQwdaWheR/+XnL69u8BLMybhGwv/3N1+afO6558ITTz4Wf/u8udxSDNhJ55d1IHJO6IIFQ+FQO8mcVE54c9AsOMF0BMLqYAcqXu1EzmY3zhVEzh03IB4i5xzx62E6VzGcSfOcVuqt5Fk6+YFc4HW5TVU413dyvQiteu6exiOPk0sbt03niBxU2eZ6H9+NvwplNlXppO8mjQ9X5QeI89f4XNIBpW1nC3K7bvLeU/j0+BWO11uzP9CvkMmJ2fVSvISxE+JGjz9eewYR7s6du2I8ZCtChrwhbmwhcSZU/IASxIotwAaBYLGjLtwQEA/Rtgg5RL82MZM/YYicdD02AJCW8QMwVmCD4FfYZmwxHjD+yKboTa8o50Su/HSD4De78Unxy6+4Khl0iTkZ19gdf/KZP5685davx48F8KtrZ555RsFH+Xt7G3Fz3OlGENypAQ2a6pCE7SQe0OfgYJqRdyJynb+ob0rzHM7SS5f0sweulr4Fr8ttfNjrZpeRkNvIzf25rp3r0S4OlKbZSyL3dlX+MpTFd9J1m387O4Xpe1WQTbsycuwr27nkAzrZi8gAtoQB11Ak0CJ9KEXXjvTYyp70PLdm2ZuZNMKKJx9d2WLX6djYRAwTTxrGT4Qlbwif6xZS5jomb/LktTGEXzqDzEXOg4P9MQ/sBOz7+tLNBEK+6Fh6t2E8gvqnuqaZOFB5pOHwCDPWE89NQ8zDOAFwGaR2UrlpEkd+8ZimpsMdd9wRZ+QQ+RVXXj2nEzW3s1qjFF/96lcnn3rqyfhDLPw0Jp3OTmZx2umnhONsdj5od4B0It4/pFNBNJxsTuBsxJMclfzhtBfTdsItAKHgvtw4GIicC45n5AwI6eKyVI7INRDFcFMArvQKe12Slh6RnUcel0uV3ou3kR+kY05QvBdB/tz1KLNJg1NCWRpez/T63Mbn1c4FVf4ylMW30+WuwPHluk5hD98+oKqcdphrGm9fVX63mLFn0xqv2pobb86a4Z5GX5iaNrKycPxUqhE3G8dGhsciEUK0YGJi0mbYLIOz5L09xjEG6nfACUPmXJv0WcIQel/fYPoIl6Xv6e8Lhy1ZGhpGupNjNpMf6A9D/QNhcOFgOHThoRZvNxE2s7X5cFgwMGj6BXGWzTFAspArs/H486R2CJOTE6brt7qNx3ZiHMBW5AyYkQO1JeOI7CbsZgI/YMwBEDlxlMWxMyMHhRG10DonicyxnzTVt771rfDAAw9FIq+fke9H3Py1r07eettt8SMBfERmwk7k0sWHhvGxseKUU04KJ510Ujz5LLkvX7bMOu5Ou+OzTmEXBnrGXDoxHanPOtv45JRFmdL8PfZv0k46cRFGNNjuvityNtyKzyxYf2yL/U/gwt4SuXli+rQCwsVTRuR+Rh4vrp5EdEbh0ZWQh/zAx0m8Da8uEpYuh9flaaXzIp2386J4ge9Mgzy+k1/wcZ1QZkM9BR/fKd+y+NyWcGtQLI+PxFOmd2gX5vUn0CmNgN7XKb/8yvKhjUijmZ7IQde62lB9WPaMGaRXnuiUX9TJ3ipBXorDj1AOaSAdNo0BlY0dhAgxjxvh8etfZMnPP4+PQ84si/NK1pjF9RnxjhpxjRrpDpp/2Aia3/Y2cp5ZGp+yGfWmsGnTFiPybXEZnfqzRJ5mr+m4KJ96kgYCX3LI0ug/ZNGCsNTGzMU2Ieo3PUdM2y5ZvDj02yy7v7efS9sO1LTchJvD1xkt01ntSN7ceExZUzPu8gx/YnJspu3URoDzofZSnNrOA73OndpVbRrb0/og+QOOBWDPzQ1txHFu27YjfvqVj5Cdd9559dL6gYLPfPZ/Td52y63hzu99J57cU046ObzmpBMK7ghXrFged7oP2J3lxMSYnfSeMBGfs6cLjwuEzgF6rHem5Ze4KYReFjvFhPXE2MF6mxde6ie7oSby2YMgVzvt1m5pPV7UFUReJkB+ypgdl8pthVuQLpbX9HsBu+eX0uV6ieIFBiuv95LrFPao0gtleq8r81fF5yAuj6+yL9NHHTfC8mfoSuc++ATK0oAqfdnl521FCuhyAfQNbOK17vQAv8jY+yEJ3B7rI4wLqd+nsmSHiw3CmEQa6Zp7fiyFjTW4lp40zDBZ3ubZM7NnZszMqEmDy7Nq0qJnIgNJxSlIszxAWQsXDsVd31x3/HQoK5WLFi2McSyBs/EMf6wrdWi2EcvfPT0sgdMe1L11PBwj9WA/ksAYx+zdtzHw7SCyRRSn9gMcD3HUVXH4SU9a1VNpuDkBafObtWnz+CF2wjx+1WydNiIN7cTvfbDfCt0ll1wSrrzqmlTZLjEn4xpzw5f/91cmfvyTp8MjjzzEr+cU69atiSf9lFNPKviWu/WM+CrD8sOXNZ+hpE7CHSN2dE4uBJaV6ESxsxqX4+deGZsq7CmBCwcLkbPZTUTOczbZkiyeg2Z6/Don8kt8POJtLLcs3IIPy1+WfztJxzS7fESIy6C4TV1uk6eXP0dVXDtbwYer/B7tbDqFQTf5AsKc67nkAeZq75Hb0f6xvxmIwx+v72a9RABAZANZEJ+nFfBL4kqepRdZKW/8pIdQyI8d3sThh5CZKbPZDCLHHj06iBw/eWopnBtgwhASIF+RMjN5/BwH1xmzT0iOMNdGyy4RInEIN1BslOu3NOSd2oNjpb9CxNwc7H6Tih11wk89RpqTIvyAOLWn7IlTu+BXHvhZkZAfF2LX8dB25CViB9zE0JaAduIZPxvyALa0YTqeIrYl0Ct0cMGZZ54Zrr3ui911Joc5J6ixZ/iD//DbEw8++GBY0ySORXZXWkxNN04zAjnh2GNCf+zYU2FoYNCI3E70uN112qxwyjrNlPVBOhInm6X02LF6+mJnorMYdjuPNZEnQrZLs5k+XaQMBLRfOyKPMFPau7Byo+tE5wJI5/2KT9LSI0Lu9/Gz07eXdEyz80CEbmfk8nvXoyrOh9vFCVX5eMwlz7J8us27DHNJ2ylchrnmQV8F6Mv6Hde/iKQ5FkQ7CGd412jcn0Pf52eZR8dGTGdka4PD1KTNBEeHQ19vf9g1vDNs3LApjI2PhtERmyluXB+/Zkb8uJGObiAgaoT8KJNyuGbY/xOfYzevMZ5L8xouxFQUjUj0nqybhxDB8aGLY5qlRSA6nrNTrj5xjY1AOUDpCOMnLX7pCOvRY1yZsZsD3mvncQm3OArzbJ+bBiZQPPPnmkEf01ubsgJBXbjBoF0hXvQidbULwBaChuS50dm1C9kVj4l6kY40Q0Np9Y98iWNV4pxzzglve9vbwsWXfHx2J+gCc05QY+9w/R/9t4mv3nxzeOrRx+3kj4UzTzyhOGLpYWHRwFBxxGHLwlErjrDrzIjcbhonFgyGzYcOmDsUT3486eqo1gl95xZMM1vZXFqc7vJMHzgELsw/kdOuu39r3fKyDHMiJw/5Qcoz2QIfn6SZT1ME+X2c1ymfPJyLL9/LjM7NyEvjm37g9YB2yHXeHlTpQSddWTzI9XsT9sfgIV2neI9OurL4qqV9hdUvcemXgP5IPGFcwsRDAkDEDQEoH1ylgUCYBUIq7KIi/82bt4af/vTpsHHjZrNhBs6HUNaaDb/6yOyRZ7vkwax9wgj6ULseFoZGX09YvCS9nqXNupTDJEKErT6o+lBfhHpOjrV2cMtGx8m1jQ1hhHwU5nhJB1mSPfmqjRSPkCaFW31ZcbE97EJO6bgOsGclAjvyo0zqyrXFDQTtSz7kkvLitTatVlAWbcryNwJhUz9cZtrEUybHiJ/ztXDhIfF1ZG52aK/XvOY1cdbNIwXC49Y+H7vowlTYXmCvM6gxN9x3/Rcmnnj88fD8T54JG9euC5vWrQ1jI6M2A58ojj3y6HD0UUcaidvMvH+gGDxyRdhy2CFhzGbvMxe35UEnmbS7RzqMLhAhO6HWW9NFZv28KxxsRM4zcgYMfdlNA8ZciRzkNiANGq04wYfzPHHRIRqQvI3El5PHSZ9vdpO+kwtiOxh8nI8HZemEKlvQLp1HuzyEbmw82sV3yqssrXSlccz8Mng7/Ejsq1l7E6avRkK0ax0S0WwQPwTD9Q+RMOsjHTNDnlezxAv6e1jpa8R44tSvAGnp85AzZUAsTBgAz7CHhgbCsM3iFywcjHbMrElDHQDhuAxu0HF4UP9edrE3yZt40lMWy+LEM3Pl+iM+kbablZto+Rzx7aPw+HhadldcK//U7rzWJXuBfLnZoT1oS256aC90xJEHenSI6kkdOWbaBjvSY0uYmxy9i06b4KfN+ODLEUccEcvl+D524cW7d5J9gHnJtEZnPP03fz3Oq2o/evrHxdoN68Mzzz0bL84pYyw6Ij9mf+RJJ4atfb1hcNlhxZB1IDoUnYnOUxhT4RcSxbfARCySshE5XJS0u+PAI+4c80vkWlrnl+3KZuQ2rERd9Ft6DQpeFF8uMTr6BR+veilvwric41Tf3fPO6wHKdKCMyBXv/cD7c7SzLUuX66rsdYxVSM9FZ6OsPGH3uFYbepTlUapzRNwuTe7myPUKQxh61goY7CFd9LQN/UHEoy+VQSD4GS9Y0mbWyIyQtOQlwiaOGTlESXmQEO9WA/q8ZtmQD2H6P4ItQrkNm6VzivBz3ZCv6gqB6fku6QF1kB16+rHSEpYeHYJfRM4xy4Y4jp09QejUDkB5kIYlcOVH2bqe2BFOW5AnfQA98Qh1pu1oU8DsmjB5kKduWLhBIm/aBz3HuHLlyvgVT3TYkB86ZtoXXnRJ+cl/GbDfCn614Sd/9dc76F42sw6ju4Yb4/xYio2iAwsX8f5jcfIn/3W6da3ADX/0h2M3ffXmcO+qB4oxG7tOPvm44mgj83HrLMefdFKx8thjY4dPHTMUjd60cUWoInIRmcOsc36wE/nq1as7EjmuFw0kQDrvny0xKvoFH696Kax4dF7vpUrvRfnkS+u5n7wE6cqQp8+R66rCud6XD3bP2/Xx3eJmoyxeMzMPb1eexsVnM+rcXuHcLUNZWkgXImbmB8HwDQq+Dw6JAMiCOC3xiuDRkx4yVn/AZRbIR1BY8mZmyDNyiIaezDPvhQsWhd6+nvgjIH39vfFZ+cBgf5iwmS2k3WszePboYI9L+zPuiOSYsYsUKZM4/IDyfX+mrqTBLyHsxy0gHekQ5U39xyYTuftHFLppSMvlSUfbMbPmRmd4OPlpQ8YK8qPtaEfaW+XjclzkBznTlpTJUjhh4tmUjH5Pnlu/nDigK3ew4Z/+/iujT/34R8X9998ffvDUU+wetZF+quBu75RTTokX6dDCBfGumg5PJ5yYGIuvtNHp6NCTdiNhF1NBh4wXWHNpV8CGiw2b2KFhvAMaLw+Rn3322XGGAeIsgjwYLG2soM0koF1YQlm4lOv1gvxyZe/9cnO/DwOF5Z/lGpF7nRegdB7UWfBpBe8XvF1ZPFCct1H7CN4P1K+ReD6b9tQbIR6diI1rQvGxfxvyY1RYxylXepUZCcMIROSpPH15CNcZYfTY4Ic0IBPygETYCU4YW/ITsQB0EBEkg58yVB6zamZ/zB4hTfoo5TAWpC+VDUY7HXPaSDUU01EPiJxPR7PEG68LI2ozszJoa46bcqgF4wkzWvIhjuNpzYCB2ok21rFSLqDOanuOmXiOBZd6o+e4CRNPGHuEeOqndiYeP8e8y9oEG6tRLId2W7duXZxB9/cPRuJWOxJHPXg3nLYmL27OKZN2YfWBZW7GT8rAlvbjeTU/SY0f/Xnn/+LsTvgKwCuuwgcLfvN3/sPog/evCpvWryl67OpavHhJcfgRh4eVRx8TDl+xPHZ+JJH4RBwEzF/09aSLgIs4XgAZkQO7iEC6uNKuzgO4H8w/kdOO7BjNiRx7G6qiLqWNbRddwvKrLb1f8ZQrHSLI7+O8KH2nsPIgLP8stwORy62Cj6/ygzy/buOpN20kqL0EzgXwNoJscdUe0ilf6YB0IkrOO+A68XkAbGJ6m5ErD8gWPelIA1kA/NSTa1DPWbV0q5miZtSyEWHrJhxAIpCwiJgwZA1pUz6kpJt4ln+1DA50XIC6YAOmjZzJBxCvY5FfYVB2/OgULyg9LsejsUhjDscGKBdhiVt5EU+bTE5yM0TZaVUCHWWTD7a037Yd6Zvq5MGhibSxnRhPS/Eqn7bATx4Qdm9vf7yejznm6Fgv2pFZ9r//nd9uda5XEV6VB/Vqwp/+yWdGb7vlG+HOO+8KY5PjjdNPPyOce+7Z8WdTubtkUBgY4DODaQmK9y7tQirYMBcvyubSqmBD1sxFRbwu/ibS1W9Qqv3fQeaXyNesWRMHgnPPPTcOjiAOSE0in8uM3PvVvpQrHSLI7+O8KL2IeCbcQZSn3G787eDjq/wgz6/MNk8j0EYCNl5EGApzbnABcRr4vRCfzrXl3XyGKiEeKAyxyC+92lphiAMCgVREOJAGs+ynn356hogga0ibekFm5M2MGL/Ihj7GzA9ChnB4RUt1hsCxgbgheHSkxc/1DaGRD8QI8GODAN9WuIS5frTPQG0C8CPUUelAKx3HbrNymwhAmr4MudRNM39BZZM39ZMdNtjiT5vxmD1P2vW3Nj5OoC2VjjGNZXFufLjuLVPTp01z5MO4d8QRR8X24MNa7Cfid8Ah6/PPPy9V9CDDQXnQrzTcfNONoz/4wQ/CQw/FD8swWBTWaYvjjjuGZaGCZzoMAqOjfOQ/XaBcu/FCnZ6wa8td7M0z3rpYS7tA89KPHWQ/95H5J3IGyte97nVxkKU9UrvNnpH7NgQ+XOYv08kvSF8mlB39TSLPRfF5PgrL7cbfDnl8VTofzv1zsZXrReAcypVfxK5wOsfJBj2f4hTRiAggGPyQL2QBRMQQCkRCH4np6SvNZXHSIEDlQqrYq06QFSSNS10OsT6Fnj7GDFHp8EPaXLeUgUBMmomrbEA+EDkucdRB9hBj3hdAqk9atubrkVw/EDpZsoIHSfuldeJZWieeMMQZy7UwefGaFllP2gTBNCbpE628toWeT7cy/qDH3bSJ5/6sWHDTww5xPuE6FuvLjQ8ux4CfNuB1N35oih9IoV6HH35EXPJevGRZLJ+bHs20uU75+tsFF7zylsDnC3VDvIJw8803j37zm98Mjz/+KGRWcEHT2Y89bmWxYnncqAHBx0GDHxXgWwpcxICJCRemBrV0oafBziMNhzPIYmfwMvabNJjNJ5EzeL7+9a+PAyvAzhM5bZS3U66TX3of7/0g13sBlDuj20dEDhT28Tk66fL4srhO9t3YCSxt+2NVn43nxgQi0MwU0L8hPfTYkgN+RCTM+Ye4EUiaMMu2+CFzbMmPvCAr7QgXORPHrJn+otkyZAQ5Q+LMslWno45Im9GUzt8MQMSxjzaFeIl0mtUissGlTPIkDw+lQwD2iewh5vS+OERJGEInDIFC7IR5hs6SN691xTaMRE3bQrKQNc/42WXPLnL81I1XtfjZUF7VKqK7dev2aDdm+YxPjMaVEdpKNymqu55RH3nk0RbPjcmkteOgzbRPDL/5m79Z3ilq7Ia6oV6h+J+f+fTIrbd+I9x15/cLBpFjbVZ++umnFqeddlrBIDM+MlqwOzUNFnYHb2eaC6h5EcXzrovdI9e4DtKur8xjP5p/Iqf93vCGN8SlOYBd2YzcQ21JvvILCkuXh0FZnNdRdtRVELnE2wt5nCB9rhO8X+hkm6dpF/Zpcn0u0kMA8Ty6do76po7+nWadrd+r1jI4hLl69ZrYX1jOhZh49srrRsyiaTORJCAv+gLkggvxHHHEiminZ9LEaUYIcZMWoqQOgLrhV/2shHhDgF7l6BgIY6NwGbDhOKibQH3QkYayyUN6lQtSvum5NXUinjaiPgg3Mhwj8Hlgw9I2X3vrGxyKOtpUPyVK29KO1E2vb1IPoGOn/XgmfWiznVgCZ0PpUUelJXHq9ou/eEH5QdeYM+qGfAXjr/76hmHI7KGHHmg8/aMfx8GJXwPiGdKRR64ojjvuWEYCu3AaBT8eYBdkPN9caM3Bw3gvXcA5gQslHaSbPrMP+9X8Ejl5MdC88Y1vjEROu8TBzGYZuBB5s61iPh7oXFs2tQnSeRHk9/rcT9kx3PyC30y4GV8lQllYrtenNmnBxwll+YA8LyHXyc7r1e8glHiemgK8PZ/M9J+5BJAGS90sizOL5hi0uQxgSxzpOdeajYvMKAei4XzjVxxhyFrL24lwEjlB4IRJjx8CJC0u9eE4ctKN58z6IvXAlvh4TGYLCCMCNhKBvHSjoJsV8sUF1EX25A2UZwob6dusmTTkk547p2OGkCFm9Gpb0mpTGe02PDYehhYsisvihGm31C7p8QC7vXk9i5sb4rQjnPryChwgfOmll87uFDX2KerGfRXgf3/5b4fvuvN7PEMv1qxeHT8ow0XEjs0jDl9uF9hAsWARP//XayOKDWR8a9guRC7u5kXP07LSvtCmg3Tbd/ayj80vkfMqCwPSm970pjjLol0QPtfIgJsGQ8u36XqgI98yG/xe78OgLN77ZySbkcuGY/FhHw/KwnK9PrVJgteDdmH5O6Whv1GGr6+IBBdCwg+ZIIQ9ufHsVbNA7CEISIXZIbNsbfwiHqKB2CgLW84r8YccsigsWnSIEUqPEe9AWLp0SVi+nC9vsbmRc8hrSBA7JD5odWCWG0K/2ZNX+o1pI2qzJl8dz7TVmz5CGdSL4+MTyvxCl46jxw654PcRmrfKagNWyMiLcHSb70Tjj+DXvUhr8eTPq1Z8m4KlbJagaSLt+tazbS2VswTO0jfg/fDxKbu5KHrDzpGdYdvmbRa2drbraN3GdWGM3w0fHwnp55JD/KTqrtFdob+nPyy09uCRONdFPBY7Vt5JZ2yhbXmEwHvWl1yy/z6EUiNhr07AM1/460U21DWsUzasQ1nvLnpP+JVPrGtG19gP+MxnPjN80003hccee4wLvHHiCceFc889J7DbvaenUTBQDQz0F8xeuDAh9TRYpQ005p3pExZfMCAQD7BhYImDmA04hLGJkc0PNuwGm1FmmGOfS+n3lMiFqWb6KiJ/y1veEmcT7KTVYIsrUbgd8nSAKijs4+VSJx8nJL15rP1kI306jnQ+IBCOh3jOJ3GERRJkgh87XOmb5y7OlqRD8BNHPjHOJmr4IVnAbBUbiEo2yk9lExbhQpz0NdJRHmSLn/Qsy5IvOs7pCy+8MEPY5IENP+9IPvgpi/6APWUxg9bjEMiaZ61siNLyN3ELzE8abe7i2TCuwrme/pH6nLkQoHVXKypMNXiTwWbcdsVQP0tlFnacdkwce/pxkT5rb7uW6OKFHf/IaOi3G7GBPuu342OBjziRdsyOpcd0LG0T5rj4yVFYM+ZtebBplZuCgp/ttLbg4yfmWHtxg8B556dH2RjGsjefGGWmPRW2bdseVq9+ydoxfXaUzWObNm8OW43A7VDDYP+Q1XUsTE1YOVaHIw4/Mhx9zFFRP2wEfuiixeHkU08Kp51yejhq5dGxbhdcUC+BH+ioT9CrFJ/+9Kd3PvLII8WPfviDYvPmjQV30TynYimMO+nBwYFGc1mw6Ouf/TlQ7uxtcIp9QwSa/BYwEMZOA7jBGCDZ7Ibdidyji/43/0TOoP/Wt751hsixwzK2RUyd/AJ+5Z3r5eZ6dv1ajcxPzi2XbHjiod2/Zh1dhflFJrU3ZeKHEBGAO4u4DfITRy05R/hx0UOygPMPQfobAeWrPCFyBvPUdilv0hAmPSSNqzxZ8tYrWKOjY9GfNj6lX4sijEtdIBrK1cYzdDo+oONYtGiBkT+fxEzLuQsXLohERrstWLAwnjPqoGVxVjH6egfC4JDVK+62TudDovYE1FNuPN5mmQnWLg3prT7GhJHwjcaZjXOd6DVP8mQuw02HaUKfzaAh54LZ8sRYGLVjpo0avX1hwsqC1HWssT2MoGM+Vmq8udk1HEbGrE2sXGy4wUHIn/pwM8OKBMfLOdBjBfS0NTcx/MIW/Z6l7/i82nSkJQ/aET03P7QbZZPuwgv3/gc8arz8qE/aqxhf/epXd37rn28PDz74YPH888/HAXnFiuXxS3F8xrG/v6+wGUx8Tm4Xsc1H4vO9uDSPrjnwxz7SdJqDWhrsGIhsAPR9aG/6U0Xa+SVylmghcn4+kNlcTuTMigS1gUeuIywdbmwrlseZw5nLDU+Zy+8el+kZxJWnyIb65eXEOsfjs6TNOnsbSIT0soUsFMf59gQuEM9mM14dIk/lAelCGGnG3T8TJk7PV4nDz6wbP+VhB+GQL2WqPoBZNDdSEIx01BOyOeywZUZK6NP3vfk1Lp6dj0+MRpd+Sxq1FQTLeY5tkppipk1wvV8gHfYqm7iJnokw3LMrTPXYsU8MhMao9Z24km+2RsR9fb1xls5xMIvmto9lbubk0xTMPotpfoc7Lbvz6dD4TrbNskeGm69hNZfAY/tbGtpn6/YtM5vJmCnvMj99nvYDiiMN7UG9aU/5Iff46tbixfGGghv43/7tV+eHUGok1Cf3IMHn/uyzO7/85S+Hhx9+2MaUaT7yX5x11lnxd7iHhuIu3UjoNrg0+C1gBgYNtqa3NDZHtEECQPDYMjghDgrsbb9y6eefyJmRQOSsWmhpPVqaPbMnHWN2rBFVuqgvEvEq7G0VpgzpvY1cpZedtweEJYKOGxe9Bn2FPalLgHSc95if3UysXbsuPqPmnJMOoqHN+CIebmzL5mtbyqd5AxgJXBugcMmTWaFIRjcP3AygRygb0gcQpd1ghoFBI0Ie4Fp7kkbHAtQ+Ca2bEECcWUd/y2Y2sOEYPAgjY0bkIwuNcI29i0kjW2uP/mIg5smv4vGgu48bitGxYHRtmdlNoBF7X7/NznuaP+AxxU2xUfvEtLXXRru5GbGboxDWrFln7bYlrF+3MRR2UwB2jewMW7ZtDdt2bgsTRvC9PXZuJqwPNc/LscceO7Prmxk2v9jHTTnEfaB/C7zG/KI++QcRbvz7r+zgF9f4sMzjjz9ebNq0ga8iNRhUuWs/6qgjmRlFwrZBqGBA7e2Lz89jP2EwsTj8kfS7QItd9hhpxj+fRA6B/NzP/dxuRI47ZeQhEpAL8JO/1wm5fXoW2yJMoHCZjnomf1p+ZVaseMVRtsr3OtwZIjaoDdBBihw7RMusDqLFHhJmmRaSVjr87HAe2TkcbVUOs0jNDH3Z5M8NEWQP0dKnIGh+eEMETbkQOmHsqBv1gYiYkWMjHSCf1HasDnEcab8A+WAne9WZxxCAcMwnPt/HJrUfOonClEF+KlOI5fQXYWdjNAz3jYepwbEw3T8RJouJMD02GQbG+sLgxGCY2mh1GZkygu8Lu7bvCpu2bgo7Rq3NhtN3v0fH+JnM5J8Y45GC3SQYqbNaQRssP2xFjKMOlLl46ZL41gkfQuHaO2xx+hAKbcnKEbNucMHHPtrqODUOetSd4SDEV2/+h+133nlnuPvuu1n6tHF4urBZUgGZQ2ZsHBoaWmB9Y9pmFz2RtBlsEAZtG/zMsVTNAdHQqR8Rn9t02ffSAMuiAAPdfBA5pPOv/tW/KiXyuETa9Hu3Crvb7T7zBVVh6oiksBGZzf6oL8fi4+QCyAhw4wUhIJA0pCvyxh4dYYRn1cQjPHtl1o2fckgPWWPfa3UgPWUgxENAkDHETb58t4BZd/ryVlqmJ9wff6wj1ZM8AGH5lR86XARbHU/ajc1nWFuvdhGHjeyVBuREnt5BT3nlIN67pEEog3ZEb5PpsKsYD1umdoTtjS1hrHc0TPSNxb41ND0QFhULwvbnt4ad63aEyR3TYdO6zWH7Nr7y1gi7hkfjrnNugiBg+hjHQxvzewj0NQibNqNcnqcvXHBI/Nzob/7732p1jBo1ukDdYQ5y/M8/+u/b7rjjjrBq1ar4a2hG5sU555wVTjrplGLhwvjZ16J/IA7ODQY5wGDK4IO9ufQh14/iIO3CabZkyPtal32vlMiLfUXkfByEQfbtb39787vXiXhF5MzIAX4Rhlzg/YLXUQelld673k/9EPyki2lZxrWw2jwSjNVfOqWFfJhBM9ODPLQ5imfUhIlj5g1Bkw/25APIh5kyonLwQ0BHGdngh7QhZ0gbG+qBHTcFhBFmjao3ZE9/wdXXBbEB6keaUQPq4o8LPXkTJg/iSEeZCH5sdAwJrXMlTBqRs3EQSO9d76c82oln/HHVoWFl9k2E59Y8F15YuzrsnBoJxSGW1yJrv8auMDE9GsZ3Doe1z+wIYYNlsiWExYOHhNcce2pYtHCpyaGxb5562slh5cqjQtFj52liOFxy0cWtCtaosQ9Qd6ga4Ya/un7rU089VbDsrm+5s7udjXHHHntMOHQx7+Euoq/YeFfEzXA2mBYMfAyqTTT7UhxMXb9KH6FxKOtzZbom0uBcsbReOCKPY/KeEDkE9Y53vCNuANxts5v9A/glHu74Z1BmEwmZ2b3N1njWqzCzRlzCbGzHZfMWy8KQFTNnlQH5iqA1eyYelzCEzTkhDBFB6iJPyJB6QcqQMTaIlrWZYUvPTBx7wnwrnBkx7canPBcsWGT1oW4sS3Oc3HhAqBx3WgLH7evjBzLSD4xIyJu2j+1rwvF5cgbEI0ojola+vOLFZjbU1Ify6SP0D+I9SD/J82krQysUEsLoIW1c2pbHCYRpN9Db3xuGR7ZaHpNGwv2hf+FA6FuyMCw6clFYevySsPioRWGqZyzs2LYzLO1bGhZMHxKOWLgyHLf8NWGgWBh+6YJ6+bvGy4O6o9WYwY033rjl9ttvD48++mixYcM6CKexzEjOiNJm5wvjcqARQZy52wytMOIoeI7XROxLNlhHl0FUg7X51c/icjwiXStqBpmiLZH7GXnMKidySxO/SQ+RE47v+hrWrt8QOFaeDUNY5AOhkwfHx6/IYQ+Rl5EMBIkev8gGKA5AqnFXdSyXzYN8B5xvWPNTl3xxL4V37eJ5NV8HgyyZyTIz3Bn1O41YBAiGjWXaFU7++AXKpk7caDE7xj3UjgmdyJqlXM6lZsPY6Rksx6G648eGV6c4B3rfmvNA+4rA0RNPuzLzpilEsGoX6qV24lxQH4Qwgh/IHmCX+k5aVu/rteNhid0InefuDcq18kdHrH7m8uGTMbtx0LI4sNaIH0PZviN96Q2ipg0hcvLk+HikgJ/2JJ5n0NzckM9ia6+BhrXlQG9YfvjhYenyw0L/YH9YvGJpOO7kE8KvXPiru3XeGjX2B+qOWKMUf/Inn9n8ta99zQjz+wVfhjv66JXFueeeU5x++ukFy6w2WIqUi57emYE66sxPv4oEKmJw8H1u5i6gBE27roncyrVEsV4tIkdAYQMyA3ba/DRdrFm3PvADNCw3Q2Tkg2upol2PZRZJx25UlA+HxfEghImHDBLhpA1fuBAsLu8yUzzxgPozU2ZGDbGgf+aZZ2a+XAZ5AGzQxdmi6SyrmLcID6Lh5gPy5eZDAlmj51EBNtSxx2bWgPqQXnUkjuPEZZYOqLcnVW7SegtuxlrL8MQrPUKYOHQqA3As6NOXyNJNAqKVAcpSHj5v31845xA3NqmrpBsGvmzGDH379q1xJzgrBmwoe/HFF2e+9hbztE6w0W58aFt0lJ3yCvG1NnaB6xxyk8NXy3iTA/1HP1q/T13jlYO6s9aoxFe+8rcbn3v22eLee+8OP/7xT4xcNhVGGI0TTjiB58nFCSccD3k0msuUBYMwg39zcKZvqX+J4KMftzmgKj6N/qWIgzz8HAf6OWx2i2UyoEdysBlcItj0zJkZ+a233hoJk8cI73vf+3in3spIhBS/rAVBN0mbfHA92aAjjLCsDfGioz0gFJa9+SIXrxwx26N8BL9mjvgBZSLyQy4Q1LIl6bOxkDRERNkQI0SNn7IhIWbZ+EkHMeNSF8Tn3Wz3aCs9fupFHHmiS/70CplupmRPnPKmHMK6WSG94sjXWjD09/F50fQJVuVPvIgVHS5toXZSGZs3p2+qjwwbOU9PhPExZt4jNhMfD6Njw9HlUUWMN3uOXY8FIOtly9NqA2UA2o1HKLzGxfmmHMrjOOof8ajxSkXdcWt0xFe+/L83fPe7340fluFLaL3Gciyt8w6rDZY2Q48/6WjjdoNX1gp9jcyRAqQa+5qFQRxAEfxNiMyzPjnr9bNiDkQe8zek1+kse0iJGTn1WrdhYyRydq3ze+7vfve748APkZNuamKiYGbMe+QiKz1fhbRUf5ZqIQpuCFj2BpRDvnwuE3IZGRlrEmIi0Ga9oh/SYYUDMqZe5I0Oklm6dHFYtKBFTCz7Uhe1KwREHgI60otERebofZsD4hHiJdigkx1L5+QHoaeVDJa7Sd9aaucToAMDLKuTR7pRwmXmzPvREC/15IaGRwdsPONb5nz1bWyMb4czI+bTraN287PB2pNX4Djl6SZiw4ZNYczOOfUjH84JftqcdqG+tAt+ViWOOmplvOmJG/WMrP/979Q7wGu8+lF38hpzwmc+/Ufrb7rppuKHP/xhYQN2fG3t7LPPLs444wwjpEU2UBcNI5AGg62RXtzxDowYYl+DLHCaZGHB3bogCinNTbPBJpH7GXnRJPKiA5HHMnlGzk0GBEM+EPktt9wSCZhXfti1zkc2yAOy3mGzaWbYE/Eb1/E3rQs2xnEjQxpm4JAKhA2xQjKAvNGThj0FEAyzQJa7mQlC2JAQdtjwcRQIFwEiVOm4BYnHY2UgxAvMcMnLpwGaHasM0GzvGZGOND5P0io9mDZSJR825XGDxmY8bc6Lr3tNN8LQgoFI2Owo4At1bNrr7emPRAxRr12/LsbzKWBmztt3bA0bN2wOq9e8GNMPj+wMW7dsDzt2bot22hSo44KQeVWL2fby5SvC6aefHlgVUrued9556i8HJG744Q3TE8PjIUwUYbBnKHzidfXHW2rsW9QdqsaccfNNN6557LHHivvuu6944YUXbOY6zLJ6JPUTTji+sEE3/ka6DcI2JMfnx/Sz2NeMPGb6HGoX9svr0pk7Q+RV75FXEbluFmJ6ltYTMcQl1oKldZ6R6/UzVheY9bIRDQLfvjX95jKf06SekCYED2FzrCJViJAZIKSCy3FTT5EM9nyhjG+C6xvhdjRWL6uE1Xfx4iXm5xg5ZGatlAehMgMdD0M224VYqUOzvWZIHX+zPtEvAqZOhNMKRGsFgPSEATqEY8AlD8Bxgpl0NhMnHfVjpsxmPOrLzHnHju3m55k+3/3eFNuOTXvEc5zc8PBBFFzy4qaGOtJOCDc8CGUxm+ZGijbj5oQwjzw4PnScG+zOP7/eCV6jRo76oqixx/jHr9380j/+4z8WTz75ZPHcc88UCxYsKFauXFmw3M4z9CVLFjMjh4AjCRvY8R5ZQbpIFgnqi4k1EszdjcgbbZbWi3xGLmGzWyqrEQme18++853vFHq3GrKCNNgpjmsMl8is4MdBWr9FDUGzFM5yLuTHbHHhwoUFxARRoYd0yI+fk4zf454ycrPD5qaGmSa3N+xmZ5Mgz3iZwTKT1Wtp6fdVrGyzt/nvzMyU8kXWhL0eP/Xm2FRX3QCoDTykIx5oZs4zalzieCTAigQwlUl67Yvd6du3sydgq7VBnxH1JiNyPtHKc26++jZlRLws3ghts5uihQvTF98AbUObQdK0GXVkGZxVkV//9V/Xea9Ro8YcUF84NfYJPvunf/zSzTf/Q7j//gch38Zpp51hM+XXhLPOOrNhhIcYzU4VvB8NYRFGTyhmMBtONxXvAOLSupHdyNhYYUTOB2G0tB5OMSJfFoncYLNBI/KCH7GIxEkO5hRWVCKvlPXwrpFw1733hJeef6HYumN7MTE6Fnr6+2wGnGaDfBwGl8ny4mVL46wQ4gaQHwLhQYCAOHRWRpytI8xMY5lpVcLbzAiEK3hiBpAcq8zo0RFXRuRyExnzjH7ELFo71LkVYhc+LjnbPVHczIdLWPHDdkOz1W5sdhqZj+zaFTZs2hx/RpQyIWV2f+PqhkHlMouHjE866aR4I8PjA74DzvEuMBJHj+7888+vx5saNeYB9YVVY5/hS1/66xd+8IMfhkceeajx3HP8tvTmxnKbmS9fvoxXehrLlx/G76E32NxkxBRfTzMiiLDZaZytQw6J8OJSsfXPBtHMaC0Jz5/H4nPq73//7vD0j39afPjDHw6nnvyago1h2IUivX6GLfkZ/VnN0iwcoMfPJrXtO3eETRs22qxzkp+RtNuL6fj5TJspxvfm+wcHzD7NVhHqJVAWeUFiIkxPzs1wwZNj/IoH3sUW0BYcOzqVx1I+8boBgECxY3bLTQ1l48fFBuH3qrk/4mdTWVpnx/yIEXSvxU1a/qOW50479q1btoRdRti0zhYj6CnLl1oNW9wYy+tWD+z4AAyrENQDlw2BPOtnNq1j4vk1z/qZbbMsXv8UZo0aLy/qC67GPsdXvvKV57/97W8X/DjLxg3rIBgj8WXFMcccw+trLMHHXe9DQ4ORzA3sdI/P2fFDWOaNM9vJybQhzrg2Lsezu3n9+vXFPfesCj/9ybPFB9///mAzfxG5MabItDnDnY67sxvoCIsYuUnQM+SYzASYXfRgz1x1upiK2WIHyAMRIFLplI/KQhp9M58tjfkIKf/07rbyR0To1BFg12yjROBmA3GzKQzgJw92hZNOpA5Y5l6zdv2ssniUwGtxypM0PFrwNysQMqTNjQSbyniUgI7Ne+zw/+QnP1mPGzVqHECoL8ga84rPfPqPnr3lllt67rzzzkjMfFDmrLPOaJx44omR1CcnJ3i+zKtekaj5kZbmM+s4Q08825M+ZWqENzw8witwich/+tPi/e9/f9rslt63FpFH3mVmzmIygSYhxv5OGFt0EFlMxh+DdObG1QFWBppRM3a4AjaQIunQ+zjAmgBL+4qPOjsuwtSDNsFPHhAtLnpImzhE9ZcLGW/ZsjXa8o4131Nn0x7pscHdunV7fJd90u45KJd6Qs645M0zaV5xw8/S9znnnBNn1sy0D/Rd4DVq1JiN+oKtMe+46R/+/qdsiGOn++OPP96AiFieXbnyqMbRRx/dOPbYY+iHkFthxMLsvNHb01+MT8QdzcZDcZbb6Gn0GcmPxV3rd911D8/I9a31oknkNm2PBB5vCng9jgk2ZEj+kBhChhAiIiIVucY8EuFiFl1uCMhHNwZGxQpbOWwsw4zZNL8+lmby3HyQfqI5eRchAwiYOOroyRdSZkZNHZk1x+X/7dvjTDnupDeJeZotu8NJx00PaVjS5vk0IP2iRelzrCuOOCoSOOWzyYxd9QDS1iy8Ju4aNV7ZqC/gGi8bvnbzV3986623Nh56+IFiy5Yt/Jpa3N2elsaXFosWLYpiVNzo6eltTNs0fIId38aa00ZOkLsRWMHS+l133RWefvrpxoc+9KFI5MsWL4nknWbkrWfkTXIGVCH9MT9kZ2JmiVw9SEPdsMGPMI8XQeNC3JQzPs4za0iaz4aOW9Y9Ro6QevrhEj4ow/PqZn2iDsGPDlJv6uMOepazWfLn4zIQNrbYQeqEWeKGlCmX44DAeT7NkjdEjg3xfG6Un6W99OO/VF/jNWq8ylFf5DX2Cz79P//Hj77xjW807r333kbzK1yNM888PX7L3ciqYYQUl+J7+yH0yWJyYsJoujcS3rp164u77767MCIvjMgLloYPW7KUj4bF/mz2TOMhYMg9EnGTlGO4GRd1RpqQvanSsjnxoGkfiZs40xMNYj6pnJn3ryPpA2a4YOfOnQW7vOME3QBBs9TNEjizbX2mlWVxpW1ubou/LkferFrwbjVkvWzZ8nDaaaeYnBF3gAPsfrF+r7pGjYMe9SBQY7/hxr/7+6cg43vuvav4wQ9+UNiss2HkVRx77LHxXfRjj13JHnQj9MJYtMc4rlEYAfL6Wbj37nt5Rt74wAc+EGfkS5YsjkwLAUaCtXQQZNHTF78yZ0JfnxHZQdzNeKoUZ/XoRNjx7qBJ/JohG+GyUS5u1NuyZUsBAaMH5EOYZXDImnexeVxAetmwJ4Bn04DlbzaRaak7fZo1fQOcVQo2mlEu3ys/7/xfrK/XGjVq7IZ6YKix3/H3X/m7J+66+86eu+66q1i9enVcIl6yZEnjNa85oVh62NL462tDQ/GjKz2Q6Jo1a4pV96wqnnnmmYIfO2GzW5PI2Z0eCVxEzqZ3K8KiZs224y52A8v7keSxlbCsDnkik5PxvTcj1viBF7vZGAk7dmyLBD0+PlrwLfDh4Z1G6ny5jOfthRH7rmjPs2kImw1kzNy5SWA2zbNqyJp8WU34tV//zbTNvEaNGjX2ADWR1zig8Kd/+qeP33jjjWyK6+ELYieceFyDj8rwfW0jRiPYyWLjxo3Fv/zLv0D6jXe/6xcg8mLx4sWQr83eG/HjM5A1M+km4kwbPYCoiSMMke/YsaPBMjjp2XDGM3hm2ps3b7GUPXGXOLvA9QycL5zFyXoxbSS9oDjmmKPjN8CpL/qjjjoinH32uYW+B37ppZem9fYaNWrUmAfURF7jgMPf/M3fPPzoo482fvSjpxovrX6hsWnTxgaEuHLlysYRRxyJSYNfYjMiL4zI46tsLMlDzBZnM+JhCFmz86K/v7/Yvn1HWLduLe+hF2yi4zU2vhVu5nYDMG5+ZtUT3CgYIY8XQ0MLeDZdNHr6rOyh+KU3vZ7FrJ2ZNp9m5TUuXJbLuTlAPvrRj/JB9Ro1atR4WVATeY0DFv/wD3//wC23fr146qmnetesWWOT6kbj0EOWxB3uzz77bOP5558P73rXu/iRlsbiQw9lhsysvLF9+3aInL7dGBmDuKeLrVu2Fzt3bS/4hvnI6K4wvGuUzeTFxPhUsXDRkF0IPQW/4rVgaFHR29coFh+6lPfc45fNeN/9pJNOanzyk59cmGpWo0aNGgcOaiKv8YrAH//xpx+4+eabG6tWrYpL50bOkdjZ7c6GsL7e3gbPz4eHh43ItxY7dw7H5fW+/v74PJxl80ON7M0+/rgLJH388ccX5557bnwF7tJLP3F4s6gaNWrUeEWhJvIarxgYkd/12GOPNR5++OGeu+/+Pu+TN5gpswmuYTNqltGHhoYah684rFi2dDmvtTX6BwfijL3fCN3AJjP0xQUXXLCymW2NGjVqvKJRE3mNVyR+67d+4/s/+tGPGq95zWsavb29NkfvxY2vrxm5F5d+4uPnNE1r1KhRo0aNGjVq1KhRo0aNGjVq1KhRo0aNGjVq1KhRo0aNGjVq1KhRo0aNGjVq1KhRo0aNGjVq1KhRo8bBh6997Wt/1vTWqFGjRo0aNWrUqFGjRo0aNWrUqFGjxsuCEP5/ILCvj5vR20IAAAAASUVORK5CYII=;strokeWidth=2;fontSize=16;fontStyle=1" parent="1" vertex="1">
          <mxGeometry x="200" y="260" width="498" height="345" as="geometry" />
        </mxCell>
        <mxCell id="u7fwsHMoTbSUg-10r8cJ-2" value="" style="endArrow=classic;startArrow=classic;html=1;rounded=0;strokeWidth=2;fontSize=16;fontStyle=1" parent="1" edge="1">
          <mxGeometry width="50" height="50" relative="1" as="geometry">
            <mxPoint x="710" y="460" as="sourcePoint" />
            <mxPoint x="710" y="370" as="targetPoint" />
          </mxGeometry>
        </mxCell>
        <mxCell id="u7fwsHMoTbSUg-10r8cJ-3" value="30 mm" style="text;html=1;strokeColor=none;fillColor=none;align=center;verticalAlign=middle;whiteSpace=wrap;rounded=0;strokeWidth=2;fontSize=16;fontStyle=1" parent="1" vertex="1">
          <mxGeometry x="730" y="400" width="60" height="30" as="geometry" />
        </mxCell>
        <mxCell id="u7fwsHMoTbSUg-10r8cJ-4" value="" style="endArrow=classic;startArrow=classic;html=1;rounded=0;strokeWidth=2;fontSize=16;fontStyle=1" parent="1" edge="1">
          <mxGeometry width="50" height="50" relative="1" as="geometry">
            <mxPoint x="710" y="550" as="sourcePoint" />
            <mxPoint x="710" y="470" as="targetPoint" />
          </mxGeometry>
        </mxCell>
        <mxCell id="u7fwsHMoTbSUg-10r8cJ-5" value="20 mm" style="text;html=1;strokeColor=none;fillColor=none;align=center;verticalAlign=middle;whiteSpace=wrap;rounded=0;strokeWidth=2;fontSize=16;fontStyle=1" parent="1" vertex="1">
          <mxGeometry x="730" y="500" width="60" height="30" as="geometry" />
        </mxCell>
        <mxCell id="u7fwsHMoTbSUg-10r8cJ-6" value="Manifold (Board 1)" style="text;html=1;strokeColor=none;fillColor=none;align=center;verticalAlign=middle;whiteSpace=wrap;rounded=0;strokeWidth=2;fontSize=16;fontStyle=1;fontColor=#003366;" parent="1" vertex="1">
          <mxGeometry x="510" y="290" width="110" height="30" as="geometry" />
        </mxCell>
        <mxCell id="u7fwsHMoTbSUg-10r8cJ-7" value="Microfluidic Chip" style="text;html=1;strokeColor=none;fillColor=none;align=center;verticalAlign=middle;whiteSpace=wrap;rounded=0;strokeWidth=2;fontSize=16;fontStyle=1;fontColor=#003366;" parent="1" vertex="1">
          <mxGeometry x="510" y="430" width="110" height="30" as="geometry" />
        </mxCell>
        <mxCell id="u7fwsHMoTbSUg-10r8cJ-8" value="Excitation LED Board (Board 2)" style="text;html=1;strokeColor=none;fillColor=none;align=center;verticalAlign=middle;whiteSpace=wrap;rounded=0;strokeWidth=2;fontSize=16;fontStyle=1;fontColor=#003366;" parent="1" vertex="1">
          <mxGeometry x="510" y="512" width="110" height="30" as="geometry" />
        </mxCell>
      </root>
    </mxGraphModel>
  </diagram>
</mxfile>
